STARTFONT 2.1
FONT -FontForge-Saira SemiBold-Demi-R-Normal--14-110-89-89-P-74-ISO10646-1
SIZE 11 89 89
FONTBOUNDINGBOX 20 22 -3 -6
COMMENT "Generated by fontforge, http://fontforge.sourceforge.net"
COMMENT "Copyright 2020 The Saira Project Authors (https://github.com/Omnibus-Type/Saira)"
STARTPROPERTIES 39
FOUNDRY "FontForge"
FAMILY_NAME "Saira SemiBold"
WEIGHT_NAME "Demi"
SLANT "R"
SETWIDTH_NAME "Normal"
ADD_STYLE_NAME ""
PIXEL_SIZE 14
POINT_SIZE 110
RESOLUTION_X 89
RESOLUTION_Y 89
SPACING "P"
AVERAGE_WIDTH 74
CHARSET_REGISTRY "ISO10646"
CHARSET_ENCODING "1"
FONTNAME_REGISTRY ""
CHARSET_COLLECTIONS "ISO8859-2 ISO8859-9 ISO8859-4 Symbol ISO10646-1"
FONT_NAME "Saira-SemiBold"
FACE_NAME "Saira SemiBold"
COPYRIGHT "Copyright 2020 The Saira Project Authors (https://github.com/Omnibus-Type/Saira)"
FONT_VERSION "1.101"
FONT_ASCENT 11
FONT_DESCENT 3
UNDERLINE_POSITION -2
UNDERLINE_THICKNESS 1
X_HEIGHT 6
CAP_HEIGHT 9
RAW_ASCENT 800
RAW_DESCENT 200
NORM_SPACE 3
RELATIVE_WEIGHT 60
RELATIVE_SETWIDTH 50
SUPERSCRIPT_X 0
SUPERSCRIPT_Y 4
SUPERSCRIPT_SIZE 8
SUBSCRIPT_X 0
SUBSCRIPT_Y 1
SUBSCRIPT_SIZE 8
AVG_LOWERCASE_WIDTH 75
AVG_UPPERCASE_WIDTH 93
ENDPROPERTIES
CHARS 893
STARTCHAR CR
ENCODING 13
SWIDTH 247 0
DWIDTH 3 0
BBX 1 1 0 0
BITMAP
00
ENDCHAR
STARTCHAR space
ENCODING 32
SWIDTH 247 0
DWIDTH 3 0
BBX 1 1 0 0
BITMAP
00
ENDCHAR
STARTCHAR exclam
ENCODING 33
SWIDTH 303 0
DWIDTH 4 0
BBX 2 10 1 0
BITMAP
C0
C0
C0
C0
C0
C0
C0
00
C0
C0
ENDCHAR
STARTCHAR quotedbl
ENCODING 34
SWIDTH 431 0
DWIDTH 6 0
BBX 4 4 1 6
BITMAP
F0
F0
D0
90
ENDCHAR
STARTCHAR numbersign
ENCODING 35
SWIDTH 748 0
DWIDTH 10 0
BBX 8 10 1 0
BITMAP
12
32
26
FF
24
24
FE
4C
48
C8
ENDCHAR
STARTCHAR dollar
ENCODING 36
SWIDTH 538 0
DWIDTH 8 0
BBX 6 10 1 0
BITMAP
20
78
F8
E0
F0
FC
2C
FC
F8
20
ENDCHAR
STARTCHAR percent
ENCODING 37
SWIDTH 860 0
DWIDTH 12 0
BBX 10 10 1 0
BITMAP
E180
9100
9200
9200
9400
6BC0
0A40
1240
2240
63C0
ENDCHAR
STARTCHAR ampersand
ENCODING 38
SWIDTH 737 0
DWIDTH 10 0
BBX 9 10 1 0
BITMAP
3E00
FE00
C000
C000
F380
7380
C200
C200
E200
7E00
ENDCHAR
STARTCHAR quotesingle
ENCODING 39
SWIDTH 252 0
DWIDTH 4 0
BBX 2 4 1 6
BITMAP
C0
C0
C0
80
ENDCHAR
STARTCHAR parenleft
ENCODING 40
SWIDTH 339 0
DWIDTH 5 0
BBX 3 12 1 -2
BITMAP
60
40
C0
C0
C0
C0
C0
C0
C0
C0
40
20
ENDCHAR
STARTCHAR parenright
ENCODING 41
SWIDTH 339 0
DWIDTH 5 0
BBX 4 12 0 -2
BITMAP
C0
60
20
30
30
30
30
30
30
20
60
C0
ENDCHAR
STARTCHAR asterisk
ENCODING 42
SWIDTH 447 0
DWIDTH 6 0
BBX 5 6 1 4
BITMAP
20
B0
F8
F0
A8
20
ENDCHAR
STARTCHAR plus
ENCODING 43
SWIDTH 540 0
DWIDTH 8 0
BBX 6 5 1 1
BITMAP
20
20
FC
20
20
ENDCHAR
STARTCHAR comma
ENCODING 44
SWIDTH 273 0
DWIDTH 4 0
BBX 2 4 1 -2
BITMAP
C0
C0
40
C0
ENDCHAR
STARTCHAR hyphen
ENCODING 45
SWIDTH 369 0
DWIDTH 5 0
BBX 3 2 1 3
BITMAP
E0
E0
ENDCHAR
STARTCHAR period
ENCODING 46
SWIDTH 273 0
DWIDTH 4 0
BBX 2 2 1 0
BITMAP
C0
C0
ENDCHAR
STARTCHAR slash
ENCODING 47
SWIDTH 392 0
DWIDTH 5 0
BBX 6 11 0 -1
BITMAP
0C
18
18
10
30
20
60
60
40
C0
C0
ENDCHAR
STARTCHAR zero
ENCODING 48
SWIDTH 666 0
DWIDTH 9 0
BBX 7 10 1 0
BITMAP
7C
FE
C6
C6
C6
C6
C6
C6
FE
7E
ENDCHAR
STARTCHAR one
ENCODING 49
SWIDTH 389 0
DWIDTH 5 0
BBX 4 10 0 0
BITMAP
10
70
F0
30
30
30
30
30
30
30
ENDCHAR
STARTCHAR two
ENCODING 50
SWIDTH 611 0
DWIDTH 9 0
BBX 7 10 1 0
BITMAP
F8
FC
06
06
1C
78
E0
C0
FE
FE
ENDCHAR
STARTCHAR three
ENCODING 51
SWIDTH 607 0
DWIDTH 9 0
BBX 7 10 1 0
BITMAP
F8
FC
0E
0C
7C
7C
0E
06
FC
FC
ENDCHAR
STARTCHAR four
ENCODING 52
SWIDTH 647 0
DWIDTH 9 0
BBX 8 10 1 0
BITMAP
18
38
30
60
64
CC
FF
FF
0C
0C
ENDCHAR
STARTCHAR five
ENCODING 53
SWIDTH 623 0
DWIDTH 9 0
BBX 7 10 1 0
BITMAP
FC
FC
C0
C0
FC
FE
06
06
FE
FC
ENDCHAR
STARTCHAR six
ENCODING 54
SWIDTH 664 0
DWIDTH 9 0
BBX 7 10 1 0
BITMAP
3E
FE
C0
C0
FE
FE
C2
C2
FE
7E
ENDCHAR
STARTCHAR seven
ENCODING 55
SWIDTH 569 0
DWIDTH 8 0
BBX 7 10 0 0
BITMAP
FE
FE
06
06
0C
0C
18
18
30
30
ENDCHAR
STARTCHAR eight
ENCODING 56
SWIDTH 682 0
DWIDTH 10 0
BBX 8 10 1 0
BITMAP
3C
FE
C3
C3
FE
7E
C3
C3
FF
7E
ENDCHAR
STARTCHAR nine
ENCODING 57
SWIDTH 664 0
DWIDTH 9 0
BBX 7 10 1 0
BITMAP
7C
FE
C6
C6
C6
FE
06
06
FE
FC
ENDCHAR
STARTCHAR colon
ENCODING 58
SWIDTH 273 0
DWIDTH 4 0
BBX 2 7 1 0
BITMAP
C0
C0
00
00
00
C0
C0
ENDCHAR
STARTCHAR semicolon
ENCODING 59
SWIDTH 273 0
DWIDTH 4 0
BBX 2 9 1 -2
BITMAP
C0
C0
00
00
00
C0
C0
40
C0
ENDCHAR
STARTCHAR less
ENCODING 60
SWIDTH 541 0
DWIDTH 8 0
BBX 6 5 1 1
BITMAP
1C
70
C0
70
1C
ENDCHAR
STARTCHAR equal
ENCODING 61
SWIDTH 540 0
DWIDTH 8 0
BBX 6 5 1 1
BITMAP
FC
FC
00
FC
FC
ENDCHAR
STARTCHAR greater
ENCODING 62
SWIDTH 541 0
DWIDTH 8 0
BBX 6 5 1 1
BITMAP
C0
78
0C
78
C0
ENDCHAR
STARTCHAR question
ENCODING 63
SWIDTH 511 0
DWIDTH 7 0
BBX 5 10 1 0
BITMAP
F0
F8
18
18
38
60
60
00
60
60
ENDCHAR
STARTCHAR at
ENCODING 64
SWIDTH 936 0
DWIDTH 13 0
BBX 11 12 1 -2
BITMAP
3F80
4040
8020
9F20
8120
8F20
9920
9320
9DE0
8000
6000
1700
ENDCHAR
STARTCHAR A
ENCODING 65
SWIDTH 686 0
DWIDTH 10 0
BBX 9 10 0 0
BITMAP
1C00
1E00
1E00
3600
3300
3300
7F00
7F80
6180
C180
ENDCHAR
STARTCHAR B
ENCODING 66
SWIDTH 675 0
DWIDTH 9 0
BBX 8 10 1 0
BITMAP
FC
FE
C7
C2
FE
FE
C3
C3
FF
FE
ENDCHAR
STARTCHAR C
ENCODING 67
SWIDTH 571 0
DWIDTH 8 0
BBX 6 10 1 0
BITMAP
3C
FC
C0
C0
C0
C0
C0
C0
FC
7C
ENDCHAR
STARTCHAR D
ENCODING 68
SWIDTH 683 0
DWIDTH 10 0
BBX 8 10 1 0
BITMAP
F8
FE
C7
C3
C3
C3
C3
C3
FE
FE
ENDCHAR
STARTCHAR E
ENCODING 69
SWIDTH 607 0
DWIDTH 9 0
BBX 7 10 1 0
BITMAP
FE
FE
C0
C0
FC
FC
C0
C0
FE
FE
ENDCHAR
STARTCHAR F
ENCODING 70
SWIDTH 569 0
DWIDTH 8 0
BBX 6 10 1 0
BITMAP
FC
FC
C0
C0
C0
FC
C0
C0
C0
C0
ENDCHAR
STARTCHAR G
ENCODING 71
SWIDTH 669 0
DWIDTH 9 0
BBX 7 10 1 0
BITMAP
3E
FE
C0
C0
C0
CE
C6
C6
E6
7E
ENDCHAR
STARTCHAR H
ENCODING 72
SWIDTH 722 0
DWIDTH 10 0
BBX 8 10 1 0
BITMAP
C3
C3
C3
C3
FF
FF
C3
C3
C3
C3
ENDCHAR
STARTCHAR I
ENCODING 73
SWIDTH 306 0
DWIDTH 4 0
BBX 2 10 1 0
BITMAP
C0
C0
C0
C0
C0
C0
C0
C0
C0
C0
ENDCHAR
STARTCHAR J
ENCODING 74
SWIDTH 389 0
DWIDTH 5 0
BBX 4 10 0 0
BITMAP
30
30
30
30
30
30
30
30
F0
F0
ENDCHAR
STARTCHAR K
ENCODING 75
SWIDTH 678 0
DWIDTH 9 0
BBX 8 10 1 0
BITMAP
C3
C6
CE
CC
F8
F8
CC
CE
C6
C3
ENDCHAR
STARTCHAR L
ENCODING 76
SWIDTH 538 0
DWIDTH 8 0
BBX 6 10 1 0
BITMAP
C0
C0
C0
C0
C0
C0
C0
C0
FC
FC
ENDCHAR
STARTCHAR M
ENCODING 77
SWIDTH 899 0
DWIDTH 13 0
BBX 10 10 1 0
BITMAP
E0C0
E1C0
F1C0
F1C0
D3C0
DBC0
DEC0
CEC0
CCC0
CCC0
ENDCHAR
STARTCHAR N
ENCODING 78
SWIDTH 723 0
DWIDTH 10 0
BBX 8 10 1 0
BITMAP
C3
E3
F3
F3
DB
DB
CF
C7
C7
C3
ENDCHAR
STARTCHAR O
ENCODING 79
SWIDTH 707 0
DWIDTH 10 0
BBX 8 10 1 0
BITMAP
3C
FF
C3
C3
C3
C3
C3
C3
FF
7E
ENDCHAR
STARTCHAR P
ENCODING 80
SWIDTH 647 0
DWIDTH 9 0
BBX 8 10 1 0
BITMAP
FC
FE
C6
C3
C6
FE
FC
C0
C0
C0
ENDCHAR
STARTCHAR Q
ENCODING 81
SWIDTH 707 0
DWIDTH 10 0
BBX 8 12 1 -2
BITMAP
3C
FF
C3
C3
C3
C3
C3
DF
FF
7E
07
03
ENDCHAR
STARTCHAR R
ENCODING 82
SWIDTH 676 0
DWIDTH 9 0
BBX 8 10 1 0
BITMAP
FC
FE
C3
C3
C7
FE
CC
C6
C6
C3
ENDCHAR
STARTCHAR S
ENCODING 83
SWIDTH 620 0
DWIDTH 9 0
BBX 7 10 1 0
BITMAP
7C
FC
C0
C0
FC
7E
06
06
FE
FC
ENDCHAR
STARTCHAR T
ENCODING 84
SWIDTH 582 0
DWIDTH 8 0
BBX 8 10 0 0
BITMAP
FF
FF
18
18
18
18
18
18
18
18
ENDCHAR
STARTCHAR U
ENCODING 85
SWIDTH 698 0
DWIDTH 10 0
BBX 8 10 1 0
BITMAP
C3
C3
C3
C3
C3
C3
C3
C3
FE
7E
ENDCHAR
STARTCHAR V
ENCODING 86
SWIDTH 663 0
DWIDTH 9 0
BBX 9 10 0 0
BITMAP
C180
6180
6300
6300
3300
3600
3600
1E00
1C00
1C00
ENDCHAR
STARTCHAR W
ENCODING 87
SWIDTH 989 0
DWIDTH 14 0
BBX 14 10 0 0
BITMAP
C30C
6318
6798
6798
6798
24B0
3CF0
3CF0
3CF0
1860
ENDCHAR
STARTCHAR X
ENCODING 88
SWIDTH 679 0
DWIDTH 10 0
BBX 9 10 0 0
BITMAP
E180
6300
3300
3E00
1C00
1C00
1E00
3700
6300
E180
ENDCHAR
STARTCHAR Y
ENCODING 89
SWIDTH 624 0
DWIDTH 9 0
BBX 9 10 0 0
BITMAP
C180
6300
6300
3600
3400
1C00
1800
1800
1800
1800
ENDCHAR
STARTCHAR Z
ENCODING 90
SWIDTH 611 0
DWIDTH 9 0
BBX 7 10 1 0
BITMAP
FE
FE
0C
1C
18
30
60
E0
FE
FE
ENDCHAR
STARTCHAR bracketleft
ENCODING 91
SWIDTH 366 0
DWIDTH 5 0
BBX 4 12 1 -2
BITMAP
F0
C0
C0
C0
C0
C0
C0
C0
C0
C0
C0
F0
ENDCHAR
STARTCHAR backslash
ENCODING 92
SWIDTH 392 0
DWIDTH 5 0
BBX 6 11 0 -1
BITMAP
C0
40
60
60
20
30
30
10
18
08
0C
ENDCHAR
STARTCHAR bracketright
ENCODING 93
SWIDTH 366 0
DWIDTH 5 0
BBX 3 12 1 -2
BITMAP
E0
60
60
60
60
60
60
60
60
60
60
E0
ENDCHAR
STARTCHAR asciicircum
ENCODING 94
SWIDTH 442 0
DWIDTH 6 0
BBX 6 4 0 6
BITMAP
30
78
48
CC
ENDCHAR
STARTCHAR underscore
ENCODING 95
SWIDTH 378 0
DWIDTH 5 0
BBX 5 2 0 -3
BITMAP
F8
F8
ENDCHAR
STARTCHAR grave
ENCODING 96
SWIDTH 228 0
DWIDTH 3 0
BBX 3 2 0 8
BITMAP
C0
20
ENDCHAR
STARTCHAR a
ENCODING 97
SWIDTH 565 0
DWIDTH 8 0
BBX 6 7 1 0
BITMAP
F8
0C
0C
FC
8C
CC
FC
ENDCHAR
STARTCHAR b
ENCODING 98
SWIDTH 585 0
DWIDTH 8 0
BBX 6 10 1 0
BITMAP
C0
C0
C0
FC
CC
C4
C4
C4
EC
FC
ENDCHAR
STARTCHAR c
ENCODING 99
SWIDTH 462 0
DWIDTH 6 0
BBX 5 7 1 0
BITMAP
F8
C0
C0
C0
C0
C0
F8
ENDCHAR
STARTCHAR d
ENCODING 100
SWIDTH 585 0
DWIDTH 8 0
BBX 6 10 1 0
BITMAP
0C
0C
0C
FC
CC
CC
CC
CC
FC
FC
ENDCHAR
STARTCHAR e
ENCODING 101
SWIDTH 557 0
DWIDTH 8 0
BBX 6 7 1 0
BITMAP
FC
CC
CC
FC
C0
C0
FC
ENDCHAR
STARTCHAR f
ENCODING 102
SWIDTH 404 0
DWIDTH 6 0
BBX 5 10 0 0
BITMAP
38
30
30
F8
30
30
30
30
30
30
ENDCHAR
STARTCHAR g
ENCODING 103
SWIDTH 585 0
DWIDTH 8 0
BBX 6 10 1 -3
BITMAP
FC
CC
CC
CC
CC
FC
FC
0C
FC
F8
ENDCHAR
STARTCHAR h
ENCODING 104
SWIDTH 593 0
DWIDTH 8 0
BBX 6 10 1 0
BITMAP
C0
C0
C0
FC
CC
CC
CC
CC
CC
CC
ENDCHAR
STARTCHAR i
ENCODING 105
SWIDTH 275 0
DWIDTH 4 0
BBX 2 10 1 0
BITMAP
C0
00
00
C0
C0
C0
C0
C0
C0
C0
ENDCHAR
STARTCHAR j
ENCODING 106
SWIDTH 275 0
DWIDTH 4 0
BBX 3 13 0 -3
BITMAP
60
00
00
60
60
60
60
60
60
60
60
E0
C0
ENDCHAR
STARTCHAR k
ENCODING 107
SWIDTH 558 0
DWIDTH 8 0
BBX 7 10 1 0
BITMAP
C0
C0
C2
CC
D8
D8
F0
D8
D8
CE
ENDCHAR
STARTCHAR l
ENCODING 108
SWIDTH 275 0
DWIDTH 4 0
BBX 2 10 1 0
BITMAP
C0
C0
C0
C0
C0
C0
C0
C0
C0
C0
ENDCHAR
STARTCHAR m
ENCODING 109
SWIDTH 872 0
DWIDTH 12 0
BBX 10 7 1 0
BITMAP
FFC0
CEC0
CCC0
CCC0
CCC0
CCC0
CCC0
ENDCHAR
STARTCHAR n
ENCODING 110
SWIDTH 593 0
DWIDTH 8 0
BBX 6 7 1 0
BITMAP
FC
CC
CC
CC
CC
CC
CC
ENDCHAR
STARTCHAR o
ENCODING 111
SWIDTH 574 0
DWIDTH 8 0
BBX 6 7 1 0
BITMAP
FC
CC
CC
CC
CC
CC
FC
ENDCHAR
STARTCHAR p
ENCODING 112
SWIDTH 585 0
DWIDTH 8 0
BBX 6 10 1 -3
BITMAP
FC
CC
C4
C4
C4
FC
FC
C0
C0
C0
ENDCHAR
STARTCHAR q
ENCODING 113
SWIDTH 586 0
DWIDTH 8 0
BBX 6 10 1 -3
BITMAP
FC
CC
CC
CC
CC
FC
FC
0C
0C
0C
ENDCHAR
STARTCHAR r
ENCODING 114
SWIDTH 395 0
DWIDTH 6 0
BBX 4 7 1 0
BITMAP
F0
F0
C0
C0
C0
C0
C0
ENDCHAR
STARTCHAR s
ENCODING 115
SWIDTH 499 0
DWIDTH 7 0
BBX 5 7 1 0
BITMAP
F8
80
C0
F8
08
18
F8
ENDCHAR
STARTCHAR t
ENCODING 116
SWIDTH 390 0
DWIDTH 5 0
BBX 5 9 0 0
BITMAP
30
30
F8
30
30
30
30
30
30
ENDCHAR
STARTCHAR u
ENCODING 117
SWIDTH 593 0
DWIDTH 8 0
BBX 6 7 1 0
BITMAP
CC
CC
CC
CC
CC
FC
F4
ENDCHAR
STARTCHAR v
ENCODING 118
SWIDTH 541 0
DWIDTH 8 0
BBX 7 7 0 0
BITMAP
C6
66
64
6C
3C
3C
38
ENDCHAR
STARTCHAR w
ENCODING 119
SWIDTH 832 0
DWIDTH 12 0
BBX 11 7 0 0
BITMAP
C660
6660
6E60
6F40
2BC0
39C0
3980
ENDCHAR
STARTCHAR x
ENCODING 120
SWIDTH 558 0
DWIDTH 8 0
BBX 8 7 0 0
BITMAP
E6
7C
3C
18
3C
6E
E7
ENDCHAR
STARTCHAR y
ENCODING 121
SWIDTH 593 0
DWIDTH 8 0
BBX 6 10 1 -3
BITMAP
CC
CC
CC
CC
CC
FC
7C
0C
FC
F8
ENDCHAR
STARTCHAR z
ENCODING 122
SWIDTH 521 0
DWIDTH 7 0
BBX 6 7 1 0
BITMAP
FC
18
38
70
60
FC
FC
ENDCHAR
STARTCHAR braceleft
ENCODING 123
SWIDTH 351 0
DWIDTH 5 0
BBX 5 12 0 -2
BITMAP
38
20
20
20
20
E0
60
20
20
20
20
18
ENDCHAR
STARTCHAR bar
ENCODING 124
SWIDTH 290 0
DWIDTH 4 0
BBX 2 12 1 -2
BITMAP
C0
C0
C0
C0
C0
C0
C0
C0
C0
C0
C0
C0
ENDCHAR
STARTCHAR braceright
ENCODING 125
SWIDTH 351 0
DWIDTH 5 0
BBX 5 12 0 -2
BITMAP
E0
20
20
20
20
38
30
20
20
20
60
C0
ENDCHAR
STARTCHAR asciitilde
ENCODING 126
SWIDTH 497 0
DWIDTH 7 0
BBX 5 2 1 3
BITMAP
F8
98
ENDCHAR
STARTCHAR uni00A0
ENCODING 160
SWIDTH 247 0
DWIDTH 3 0
BBX 1 1 0 0
BITMAP
00
ENDCHAR
STARTCHAR exclamdown
ENCODING 161
SWIDTH 290 0
DWIDTH 4 0
BBX 2 9 1 -2
BITMAP
C0
C0
00
C0
C0
C0
C0
C0
C0
ENDCHAR
STARTCHAR cent
ENCODING 162
SWIDTH 468 0
DWIDTH 7 0
BBX 5 10 1 0
BITMAP
30
38
F8
F0
F0
F0
F0
F8
78
30
ENDCHAR
STARTCHAR sterling
ENCODING 163
SWIDTH 599 0
DWIDTH 8 0
BBX 7 10 1 0
BITMAP
3E
7E
60
60
FC
FC
60
60
FE
FE
ENDCHAR
STARTCHAR currency
ENCODING 164
SWIDTH 679 0
DWIDTH 10 0
BBX 8 10 1 0
BITMAP
82
FB
7E
46
C6
C6
46
6E
FE
83
ENDCHAR
STARTCHAR yen
ENCODING 165
SWIDTH 628 0
DWIDTH 9 0
BBX 8 10 0 0
BITMAP
C3
63
66
36
7F
1C
7F
18
18
18
ENDCHAR
STARTCHAR brokenbar
ENCODING 166
SWIDTH 290 0
DWIDTH 4 0
BBX 2 12 1 -2
BITMAP
C0
C0
C0
C0
C0
00
00
C0
C0
C0
C0
C0
ENDCHAR
STARTCHAR section
ENCODING 167
SWIDTH 692 0
DWIDTH 10 0
BBX 8 12 1 -2
BITMAP
3E
7E
60
70
FE
87
C3
F3
3E
06
06
7C
ENDCHAR
STARTCHAR dieresis
ENCODING 168
SWIDTH 320 0
DWIDTH 4 0
BBX 4 2 0 8
BITMAP
D0
D0
ENDCHAR
STARTCHAR copyright
ENCODING 169
SWIDTH 742 0
DWIDTH 10 0
BBX 8 10 1 0
BITMAP
3E
C1
81
9D
B1
B1
B1
9D
81
7E
ENDCHAR
STARTCHAR ordfeminine
ENCODING 170
SWIDTH 414 0
DWIDTH 6 0
BBX 4 6 1 4
BITMAP
E0
30
70
90
B0
D0
ENDCHAR
STARTCHAR guillemotleft
ENCODING 171
SWIDTH 493 0
DWIDTH 7 0
BBX 6 6 0 1
BITMAP
3C
68
D8
58
2C
34
ENDCHAR
STARTCHAR logicalnot
ENCODING 172
SWIDTH 539 0
DWIDTH 8 0
BBX 6 3 1 1
BITMAP
FC
0C
0C
ENDCHAR
STARTCHAR uni00AD
ENCODING 173
SWIDTH 369 0
DWIDTH 5 0
BBX 3 2 1 3
BITMAP
E0
E0
ENDCHAR
STARTCHAR registered
ENCODING 174
SWIDTH 742 0
DWIDTH 10 0
BBX 8 10 1 0
BITMAP
3E
C1
81
BD
A5
BD
A5
A5
81
7E
ENDCHAR
STARTCHAR macron
ENCODING 175
SWIDTH 315 0
DWIDTH 4 0
BBX 4 2 0 8
BITMAP
F0
F0
ENDCHAR
STARTCHAR degree
ENCODING 176
SWIDTH 394 0
DWIDTH 6 0
BBX 4 4 1 6
BITMAP
E0
90
90
F0
ENDCHAR
STARTCHAR plusminus
ENCODING 177
SWIDTH 540 0
DWIDTH 8 0
BBX 6 8 1 0
BITMAP
20
20
FC
20
20
00
00
FC
ENDCHAR
STARTCHAR uni00B2
ENCODING 178
SWIDTH 353 0
DWIDTH 5 0
BBX 4 5 0 6
BITMAP
70
10
70
40
F0
ENDCHAR
STARTCHAR uni00B3
ENCODING 179
SWIDTH 350 0
DWIDTH 5 0
BBX 4 5 0 6
BITMAP
F0
10
70
10
F0
ENDCHAR
STARTCHAR acute
ENCODING 180
SWIDTH 228 0
DWIDTH 3 0
BBX 3 2 0 8
BITMAP
60
C0
ENDCHAR
STARTCHAR uni00B5
ENCODING 181
SWIDTH 593 0
DWIDTH 8 0
BBX 6 10 1 -3
BITMAP
CC
CC
CC
CC
CC
FC
F4
C0
C0
C0
ENDCHAR
STARTCHAR paragraph
ENCODING 182
SWIDTH 620 0
DWIDTH 9 0
BBX 7 12 1 -2
BITMAP
76
F6
F6
F6
F6
F6
F6
16
16
16
16
16
ENDCHAR
STARTCHAR periodcentered
ENCODING 183
SWIDTH 273 0
DWIDTH 4 0
BBX 2 2 1 3
BITMAP
C0
C0
ENDCHAR
STARTCHAR cedilla
ENCODING 184
SWIDTH 164 0
DWIDTH 2 0
BBX 2 3 0 -3
BITMAP
40
C0
C0
ENDCHAR
STARTCHAR uni00B9
ENCODING 185
SWIDTH 229 0
DWIDTH 3 0
BBX 2 5 0 6
BITMAP
C0
40
40
40
40
ENDCHAR
STARTCHAR ordmasculine
ENCODING 186
SWIDTH 430 0
DWIDTH 6 0
BBX 4 6 1 4
BITMAP
F0
90
90
90
F0
60
ENDCHAR
STARTCHAR guillemotright
ENCODING 187
SWIDTH 492 0
DWIDTH 7 0
BBX 5 6 1 1
BITMAP
B0
58
68
48
D0
B0
ENDCHAR
STARTCHAR onequarter
ENCODING 188
SWIDTH 687 0
DWIDTH 10 0
BBX 9 10 0 0
BITMAP
4100
C200
4600
4400
4800
5B00
1200
2480
2780
4180
ENDCHAR
STARTCHAR onehalf
ENCODING 189
SWIDTH 738 0
DWIDTH 10 0
BBX 10 10 0 0
BITMAP
4100
C200
4600
4400
4800
5BC0
1040
2380
2200
43C0
ENDCHAR
STARTCHAR threequarters
ENCODING 190
SWIDTH 807 0
DWIDTH 11 0
BBX 11 10 0 0
BITMAP
F0C0
1080
1100
7300
1240
F480
0580
0940
13E0
3040
ENDCHAR
STARTCHAR questiondown
ENCODING 191
SWIDTH 451 0
DWIDTH 6 0
BBX 6 10 1 -3
BITMAP
30
30
00
30
30
E0
C0
C0
FC
78
ENDCHAR
STARTCHAR Agrave
ENCODING 192
SWIDTH 686 0
DWIDTH 10 0
BBX 9 12 0 0
BITMAP
3800
0800
1C00
1E00
1E00
3600
3300
3300
7F00
7F80
6180
C180
ENDCHAR
STARTCHAR Aacute
ENCODING 193
SWIDTH 686 0
DWIDTH 10 0
BBX 9 12 0 0
BITMAP
0600
0800
1C00
1E00
1E00
3600
3300
3300
7F00
7F80
6180
C180
ENDCHAR
STARTCHAR Acircumflex
ENCODING 194
SWIDTH 686 0
DWIDTH 10 0
BBX 9 12 0 0
BITMAP
1C00
1200
1C00
1E00
1E00
3600
3300
3300
7F00
7F80
6180
C180
ENDCHAR
STARTCHAR Atilde
ENCODING 195
SWIDTH 686 0
DWIDTH 10 0
BBX 9 12 0 0
BITMAP
3E00
2600
1C00
1E00
1E00
3600
3300
3300
7F00
7F80
6180
C180
ENDCHAR
STARTCHAR Adieresis
ENCODING 196
SWIDTH 686 0
DWIDTH 10 0
BBX 9 12 0 0
BITMAP
1600
1600
1C00
1E00
1E00
3600
3300
3300
7F00
7F80
6180
C180
ENDCHAR
STARTCHAR Aring
ENCODING 197
SWIDTH 683 0
DWIDTH 10 0
BBX 9 12 0 0
BITMAP
1E00
1200
1E00
1E00
1E00
3600
3300
3300
7F00
7F80
6180
C180
ENDCHAR
STARTCHAR AE
ENCODING 198
SWIDTH 964 0
DWIDTH 14 0
BBX 13 10 0 0
BITMAP
0FF8
0FF8
1E00
1B00
33F0
33F0
7F00
7F00
C1F8
C1F8
ENDCHAR
STARTCHAR Ccedilla
ENCODING 199
SWIDTH 571 0
DWIDTH 8 0
BBX 6 13 1 -3
BITMAP
3C
FC
C0
C0
C0
C0
C0
C0
FC
7C
10
30
30
ENDCHAR
STARTCHAR Egrave
ENCODING 200
SWIDTH 607 0
DWIDTH 9 0
BBX 7 12 1 0
BITMAP
60
10
FE
FE
C0
C0
FC
FC
C0
C0
FE
FE
ENDCHAR
STARTCHAR Eacute
ENCODING 201
SWIDTH 607 0
DWIDTH 9 0
BBX 7 12 1 0
BITMAP
1C
10
FE
FE
C0
C0
FC
FC
C0
C0
FE
FE
ENDCHAR
STARTCHAR Ecircumflex
ENCODING 202
SWIDTH 607 0
DWIDTH 9 0
BBX 7 12 1 0
BITMAP
38
6C
FE
FE
C0
C0
FC
FC
C0
C0
FE
FE
ENDCHAR
STARTCHAR Edieresis
ENCODING 203
SWIDTH 607 0
DWIDTH 9 0
BBX 7 12 1 0
BITMAP
6C
6C
FE
FE
C0
C0
FC
FC
C0
C0
FE
FE
ENDCHAR
STARTCHAR Igrave
ENCODING 204
SWIDTH 306 0
DWIDTH 4 0
BBX 3 12 0 0
BITMAP
C0
60
60
60
60
60
60
60
60
60
60
60
ENDCHAR
STARTCHAR Iacute
ENCODING 205
SWIDTH 306 0
DWIDTH 4 0
BBX 3 12 1 0
BITMAP
60
C0
C0
C0
C0
C0
C0
C0
C0
C0
C0
C0
ENDCHAR
STARTCHAR Icircumflex
ENCODING 206
SWIDTH 306 0
DWIDTH 4 0
BBX 4 12 0 0
BITMAP
70
90
60
60
60
60
60
60
60
60
60
60
ENDCHAR
STARTCHAR Idieresis
ENCODING 207
SWIDTH 306 0
DWIDTH 4 0
BBX 4 12 0 0
BITMAP
90
90
60
60
60
60
60
60
60
60
60
60
ENDCHAR
STARTCHAR Eth
ENCODING 208
SWIDTH 683 0
DWIDTH 10 0
BBX 9 10 0 0
BITMAP
7C00
7F00
6380
6180
F180
F180
6180
6180
7F00
7F00
ENDCHAR
STARTCHAR Ntilde
ENCODING 209
SWIDTH 723 0
DWIDTH 10 0
BBX 8 12 1 0
BITMAP
3E
2C
C3
E3
F3
F3
DB
DB
CF
C7
C7
C3
ENDCHAR
STARTCHAR Ograve
ENCODING 210
SWIDTH 707 0
DWIDTH 10 0
BBX 8 12 1 0
BITMAP
30
18
3C
FF
C3
C3
C3
C3
C3
C3
FF
7E
ENDCHAR
STARTCHAR Oacute
ENCODING 211
SWIDTH 707 0
DWIDTH 10 0
BBX 8 12 1 0
BITMAP
0C
18
3C
FF
C3
C3
C3
C3
C3
C3
FF
7E
ENDCHAR
STARTCHAR Ocircumflex
ENCODING 212
SWIDTH 707 0
DWIDTH 10 0
BBX 8 12 1 0
BITMAP
18
24
3C
FF
C3
C3
C3
C3
C3
C3
FF
7E
ENDCHAR
STARTCHAR Otilde
ENCODING 213
SWIDTH 707 0
DWIDTH 10 0
BBX 8 12 1 0
BITMAP
3E
4C
3C
FF
C3
C3
C3
C3
C3
C3
FF
7E
ENDCHAR
STARTCHAR Odieresis
ENCODING 214
SWIDTH 707 0
DWIDTH 10 0
BBX 8 12 1 0
BITMAP
24
24
3C
FF
C3
C3
C3
C3
C3
C3
FF
7E
ENDCHAR
STARTCHAR multiply
ENCODING 215
SWIDTH 501 0
DWIDTH 7 0
BBX 5 5 1 1
BITMAP
D8
70
70
D8
88
ENDCHAR
STARTCHAR Oslash
ENCODING 216
SWIDTH 707 0
DWIDTH 10 0
BBX 8 11 1 -1
BITMAP
3F
FF
C7
CF
CB
DB
F3
E3
FF
7E
C0
ENDCHAR
STARTCHAR Ugrave
ENCODING 217
SWIDTH 698 0
DWIDTH 10 0
BBX 8 12 1 0
BITMAP
70
18
C3
C3
C3
C3
C3
C3
C3
C3
FE
7E
ENDCHAR
STARTCHAR Uacute
ENCODING 218
SWIDTH 698 0
DWIDTH 10 0
BBX 8 12 1 0
BITMAP
0C
18
C3
C3
C3
C3
C3
C3
C3
C3
FE
7E
ENDCHAR
STARTCHAR Ucircumflex
ENCODING 219
SWIDTH 698 0
DWIDTH 10 0
BBX 8 12 1 0
BITMAP
18
24
C3
C3
C3
C3
C3
C3
C3
C3
FE
7E
ENDCHAR
STARTCHAR Udieresis
ENCODING 220
SWIDTH 698 0
DWIDTH 10 0
BBX 8 12 1 0
BITMAP
24
24
C3
C3
C3
C3
C3
C3
C3
C3
FE
7E
ENDCHAR
STARTCHAR Yacute
ENCODING 221
SWIDTH 624 0
DWIDTH 9 0
BBX 9 12 0 0
BITMAP
0E00
1800
C180
6300
6300
3600
3400
1C00
1800
1800
1800
1800
ENDCHAR
STARTCHAR Thorn
ENCODING 222
SWIDTH 647 0
DWIDTH 9 0
BBX 8 10 1 0
BITMAP
C0
C0
FE
FE
C6
C3
C6
FE
C0
C0
ENDCHAR
STARTCHAR germandbls
ENCODING 223
SWIDTH 604 0
DWIDTH 8 0
BBX 7 11 1 0
BITMAP
10
FC
C6
C6
DC
DC
C6
C6
C6
CE
DC
ENDCHAR
STARTCHAR agrave
ENCODING 224
SWIDTH 565 0
DWIDTH 8 0
BBX 6 10 1 0
BITMAP
60
30
00
F8
0C
0C
FC
8C
CC
FC
ENDCHAR
STARTCHAR aacute
ENCODING 225
SWIDTH 565 0
DWIDTH 8 0
BBX 6 10 1 0
BITMAP
38
20
00
F8
0C
0C
FC
8C
CC
FC
ENDCHAR
STARTCHAR acircumflex
ENCODING 226
SWIDTH 565 0
DWIDTH 8 0
BBX 6 10 1 0
BITMAP
30
48
00
F8
0C
0C
FC
8C
CC
FC
ENDCHAR
STARTCHAR atilde
ENCODING 227
SWIDTH 565 0
DWIDTH 8 0
BBX 6 10 1 0
BITMAP
7C
98
00
F8
0C
0C
FC
8C
CC
FC
ENDCHAR
STARTCHAR adieresis
ENCODING 228
SWIDTH 565 0
DWIDTH 8 0
BBX 6 10 1 0
BITMAP
48
48
00
F8
0C
0C
FC
8C
CC
FC
ENDCHAR
STARTCHAR aring
ENCODING 229
SWIDTH 565 0
DWIDTH 8 0
BBX 6 11 1 0
BITMAP
78
48
78
00
F8
0C
0C
FC
8C
CC
FC
ENDCHAR
STARTCHAR ae
ENCODING 230
SWIDTH 869 0
DWIDTH 12 0
BBX 10 7 1 0
BITMAP
FFC0
0CC0
0C40
FFC0
8C00
CE00
FFC0
ENDCHAR
STARTCHAR ccedilla
ENCODING 231
SWIDTH 462 0
DWIDTH 6 0
BBX 5 10 1 -3
BITMAP
F8
C0
C0
C0
C0
C0
F8
20
20
60
ENDCHAR
STARTCHAR egrave
ENCODING 232
SWIDTH 557 0
DWIDTH 8 0
BBX 6 10 1 0
BITMAP
60
30
00
FC
CC
CC
FC
C0
C0
FC
ENDCHAR
STARTCHAR eacute
ENCODING 233
SWIDTH 557 0
DWIDTH 8 0
BBX 6 10 1 0
BITMAP
18
20
00
FC
CC
CC
FC
C0
C0
FC
ENDCHAR
STARTCHAR ecircumflex
ENCODING 234
SWIDTH 557 0
DWIDTH 8 0
BBX 6 10 1 0
BITMAP
30
48
00
FC
CC
CC
FC
C0
C0
FC
ENDCHAR
STARTCHAR edieresis
ENCODING 235
SWIDTH 557 0
DWIDTH 8 0
BBX 6 10 1 0
BITMAP
48
48
00
FC
CC
CC
FC
C0
C0
FC
ENDCHAR
STARTCHAR igrave
ENCODING 236
SWIDTH 275 0
DWIDTH 4 0
BBX 3 10 0 0
BITMAP
C0
60
00
60
60
60
60
60
60
60
ENDCHAR
STARTCHAR iacute
ENCODING 237
SWIDTH 275 0
DWIDTH 4 0
BBX 3 10 1 0
BITMAP
E0
80
00
C0
C0
C0
C0
C0
C0
C0
ENDCHAR
STARTCHAR icircumflex
ENCODING 238
SWIDTH 275 0
DWIDTH 4 0
BBX 4 10 0 0
BITMAP
60
90
00
60
60
60
60
60
60
60
ENDCHAR
STARTCHAR idieresis
ENCODING 239
SWIDTH 275 0
DWIDTH 4 0
BBX 4 10 0 0
BITMAP
90
90
00
60
60
60
60
60
60
60
ENDCHAR
STARTCHAR eth
ENCODING 240
SWIDTH 577 0
DWIDTH 8 0
BBX 6 10 1 0
BITMAP
3C
38
0C
FC
CC
CC
CC
CC
CC
FC
ENDCHAR
STARTCHAR ntilde
ENCODING 241
SWIDTH 593 0
DWIDTH 8 0
BBX 6 10 1 0
BITMAP
7C
58
00
FC
CC
CC
CC
CC
CC
CC
ENDCHAR
STARTCHAR ograve
ENCODING 242
SWIDTH 574 0
DWIDTH 8 0
BBX 6 10 1 0
BITMAP
60
30
00
FC
CC
CC
CC
CC
CC
FC
ENDCHAR
STARTCHAR oacute
ENCODING 243
SWIDTH 574 0
DWIDTH 8 0
BBX 6 10 1 0
BITMAP
18
20
00
FC
CC
CC
CC
CC
CC
FC
ENDCHAR
STARTCHAR ocircumflex
ENCODING 244
SWIDTH 574 0
DWIDTH 8 0
BBX 6 10 1 0
BITMAP
30
48
00
FC
CC
CC
CC
CC
CC
FC
ENDCHAR
STARTCHAR otilde
ENCODING 245
SWIDTH 574 0
DWIDTH 8 0
BBX 6 10 1 0
BITMAP
7C
98
00
FC
CC
CC
CC
CC
CC
FC
ENDCHAR
STARTCHAR odieresis
ENCODING 246
SWIDTH 574 0
DWIDTH 8 0
BBX 6 10 1 0
BITMAP
48
48
00
FC
CC
CC
CC
CC
CC
FC
ENDCHAR
STARTCHAR divide
ENCODING 247
SWIDTH 540 0
DWIDTH 8 0
BBX 6 7 1 0
BITMAP
20
20
00
FC
00
20
20
ENDCHAR
STARTCHAR oslash
ENCODING 248
SWIDTH 574 0
DWIDTH 8 0
BBX 6 9 1 -1
BITMAP
04
FC
DC
DC
FC
EC
EC
FC
80
ENDCHAR
STARTCHAR ugrave
ENCODING 249
SWIDTH 593 0
DWIDTH 8 0
BBX 6 10 1 0
BITMAP
60
30
00
CC
CC
CC
CC
CC
FC
F4
ENDCHAR
STARTCHAR uacute
ENCODING 250
SWIDTH 593 0
DWIDTH 8 0
BBX 6 10 1 0
BITMAP
18
20
00
CC
CC
CC
CC
CC
FC
F4
ENDCHAR
STARTCHAR ucircumflex
ENCODING 251
SWIDTH 593 0
DWIDTH 8 0
BBX 6 10 1 0
BITMAP
38
48
00
CC
CC
CC
CC
CC
FC
F4
ENDCHAR
STARTCHAR udieresis
ENCODING 252
SWIDTH 593 0
DWIDTH 8 0
BBX 6 10 1 0
BITMAP
48
48
00
CC
CC
CC
CC
CC
FC
F4
ENDCHAR
STARTCHAR yacute
ENCODING 253
SWIDTH 593 0
DWIDTH 8 0
BBX 6 13 1 -3
BITMAP
18
20
00
CC
CC
CC
CC
CC
FC
7C
0C
FC
F8
ENDCHAR
STARTCHAR thorn
ENCODING 254
SWIDTH 585 0
DWIDTH 8 0
BBX 6 13 1 -3
BITMAP
C0
C0
C0
FC
CC
C4
C4
C4
FC
FC
C0
C0
C0
ENDCHAR
STARTCHAR ydieresis
ENCODING 255
SWIDTH 593 0
DWIDTH 8 0
BBX 6 13 1 -3
BITMAP
48
48
00
CC
CC
CC
CC
CC
FC
7C
0C
FC
F8
ENDCHAR
STARTCHAR Amacron
ENCODING 256
SWIDTH 686 0
DWIDTH 10 0
BBX 9 12 0 0
BITMAP
1E00
1E00
1C00
1E00
1E00
3600
3300
3300
7F00
7F80
6180
C180
ENDCHAR
STARTCHAR amacron
ENCODING 257
SWIDTH 565 0
DWIDTH 8 0
BBX 6 10 1 0
BITMAP
78
78
00
F8
0C
0C
FC
8C
CC
FC
ENDCHAR
STARTCHAR Abreve
ENCODING 258
SWIDTH 686 0
DWIDTH 10 0
BBX 9 12 0 0
BITMAP
1200
1C00
1C00
1E00
1E00
3600
3300
3300
7F00
7F80
6180
C180
ENDCHAR
STARTCHAR abreve
ENCODING 259
SWIDTH 565 0
DWIDTH 8 0
BBX 6 10 1 0
BITMAP
48
78
00
F8
0C
0C
FC
8C
CC
FC
ENDCHAR
STARTCHAR Aogonek
ENCODING 260
SWIDTH 686 0
DWIDTH 10 0
BBX 9 13 0 -3
BITMAP
1C00
1E00
1E00
3600
3300
3300
7F00
7F80
6180
C180
0180
0180
0180
ENDCHAR
STARTCHAR aogonek
ENCODING 261
SWIDTH 565 0
DWIDTH 8 0
BBX 6 10 1 -3
BITMAP
F8
0C
0C
FC
8C
CC
FC
08
18
0C
ENDCHAR
STARTCHAR Cacute
ENCODING 262
SWIDTH 571 0
DWIDTH 8 0
BBX 6 12 1 0
BITMAP
0C
10
3C
FC
C0
C0
C0
C0
C0
C0
FC
7C
ENDCHAR
STARTCHAR cacute
ENCODING 263
SWIDTH 462 0
DWIDTH 6 0
BBX 5 10 1 0
BITMAP
30
60
00
F8
C0
C0
C0
C0
C0
F8
ENDCHAR
STARTCHAR Ccircumflex
ENCODING 264
SWIDTH 571 0
DWIDTH 8 0
BBX 6 12 1 0
BITMAP
38
6C
3C
FC
C0
C0
C0
C0
C0
C0
FC
7C
ENDCHAR
STARTCHAR ccircumflex
ENCODING 265
SWIDTH 462 0
DWIDTH 6 0
BBX 5 10 1 0
BITMAP
70
D8
00
F8
C0
C0
C0
C0
C0
F8
ENDCHAR
STARTCHAR Cdotaccent
ENCODING 266
SWIDTH 571 0
DWIDTH 8 0
BBX 6 12 1 0
BITMAP
10
10
3C
FC
C0
C0
C0
C0
C0
C0
FC
7C
ENDCHAR
STARTCHAR cdotaccent
ENCODING 267
SWIDTH 462 0
DWIDTH 6 0
BBX 5 10 1 0
BITMAP
20
20
00
F8
C0
C0
C0
C0
C0
F8
ENDCHAR
STARTCHAR Ccaron
ENCODING 268
SWIDTH 571 0
DWIDTH 8 0
BBX 6 12 1 0
BITMAP
6C
38
3C
FC
C0
C0
C0
C0
C0
C0
FC
7C
ENDCHAR
STARTCHAR ccaron
ENCODING 269
SWIDTH 462 0
DWIDTH 6 0
BBX 5 10 1 0
BITMAP
D8
70
00
F8
C0
C0
C0
C0
C0
F8
ENDCHAR
STARTCHAR Dcaron
ENCODING 270
SWIDTH 683 0
DWIDTH 10 0
BBX 8 12 1 0
BITMAP
2C
18
F8
FE
C7
C3
C3
C3
C3
C3
FE
FE
ENDCHAR
STARTCHAR dcaron
ENCODING 271
SWIDTH 585 0
DWIDTH 8 0
BBX 8 10 1 0
BITMAP
0D
0D
0D
FD
CC
CC
CC
CC
FC
FC
ENDCHAR
STARTCHAR Dcroat
ENCODING 272
SWIDTH 683 0
DWIDTH 10 0
BBX 9 10 0 0
BITMAP
7C00
7F00
6380
6180
F180
F180
6180
6180
7F00
7F00
ENDCHAR
STARTCHAR dcroat
ENCODING 273
SWIDTH 585 0
DWIDTH 8 0
BBX 7 10 1 0
BITMAP
1E
0C
0C
FC
CC
CC
CC
CC
FC
FC
ENDCHAR
STARTCHAR Emacron
ENCODING 274
SWIDTH 607 0
DWIDTH 9 0
BBX 7 12 1 0
BITMAP
7C
7C
FE
FE
C0
C0
FC
FC
C0
C0
FE
FE
ENDCHAR
STARTCHAR emacron
ENCODING 275
SWIDTH 557 0
DWIDTH 8 0
BBX 6 10 1 0
BITMAP
78
78
00
FC
CC
CC
FC
C0
C0
FC
ENDCHAR
STARTCHAR Ebreve
ENCODING 276
SWIDTH 607 0
DWIDTH 9 0
BBX 7 12 1 0
BITMAP
6C
38
FE
FE
C0
C0
FC
FC
C0
C0
FE
FE
ENDCHAR
STARTCHAR ebreve
ENCODING 277
SWIDTH 557 0
DWIDTH 8 0
BBX 6 10 1 0
BITMAP
48
78
00
FC
CC
CC
FC
C0
C0
FC
ENDCHAR
STARTCHAR Edotaccent
ENCODING 278
SWIDTH 607 0
DWIDTH 9 0
BBX 7 12 1 0
BITMAP
10
10
FE
FE
C0
C0
FC
FC
C0
C0
FE
FE
ENDCHAR
STARTCHAR edotaccent
ENCODING 279
SWIDTH 557 0
DWIDTH 8 0
BBX 6 10 1 0
BITMAP
30
30
00
FC
CC
CC
FC
C0
C0
FC
ENDCHAR
STARTCHAR Eogonek
ENCODING 280
SWIDTH 607 0
DWIDTH 9 0
BBX 7 13 1 -3
BITMAP
FE
FE
C0
C0
FC
FC
C0
C0
FE
FE
04
0C
06
ENDCHAR
STARTCHAR eogonek
ENCODING 281
SWIDTH 557 0
DWIDTH 8 0
BBX 6 10 1 -3
BITMAP
FC
CC
CC
FC
C0
C0
FC
08
18
0C
ENDCHAR
STARTCHAR Ecaron
ENCODING 282
SWIDTH 607 0
DWIDTH 9 0
BBX 7 12 1 0
BITMAP
6C
38
FE
FE
C0
C0
FC
FC
C0
C0
FE
FE
ENDCHAR
STARTCHAR ecaron
ENCODING 283
SWIDTH 557 0
DWIDTH 8 0
BBX 6 10 1 0
BITMAP
78
30
00
FC
CC
CC
FC
C0
C0
FC
ENDCHAR
STARTCHAR Gcircumflex
ENCODING 284
SWIDTH 669 0
DWIDTH 9 0
BBX 7 12 1 0
BITMAP
18
24
3E
FE
C0
C0
C0
CE
C6
C6
E6
7E
ENDCHAR
STARTCHAR gcircumflex
ENCODING 285
SWIDTH 585 0
DWIDTH 8 0
BBX 6 13 1 -3
BITMAP
30
48
00
FC
CC
CC
CC
CC
FC
FC
0C
FC
F8
ENDCHAR
STARTCHAR Gbreve
ENCODING 286
SWIDTH 669 0
DWIDTH 9 0
BBX 7 12 1 0
BITMAP
24
3C
3E
FE
C0
C0
C0
CE
C6
C6
E6
7E
ENDCHAR
STARTCHAR gbreve
ENCODING 287
SWIDTH 585 0
DWIDTH 8 0
BBX 6 13 1 -3
BITMAP
48
78
00
FC
CC
CC
CC
CC
FC
FC
0C
FC
F8
ENDCHAR
STARTCHAR Gdotaccent
ENCODING 288
SWIDTH 669 0
DWIDTH 9 0
BBX 7 12 1 0
BITMAP
18
18
3E
FE
C0
C0
C0
CE
C6
C6
E6
7E
ENDCHAR
STARTCHAR gdotaccent
ENCODING 289
SWIDTH 585 0
DWIDTH 8 0
BBX 6 13 1 -3
BITMAP
30
30
00
FC
CC
CC
CC
CC
FC
FC
0C
FC
F8
ENDCHAR
STARTCHAR uni0122
ENCODING 290
SWIDTH 669 0
DWIDTH 9 0
BBX 7 14 1 -4
BITMAP
3E
FE
C0
C0
C0
CE
C6
C6
E6
7E
00
18
18
18
ENDCHAR
STARTCHAR uni0123
ENCODING 291
SWIDTH 585 0
DWIDTH 8 0
BBX 6 14 1 -3
BITMAP
30
30
30
00
FC
CC
CC
CC
CC
FC
FC
0C
FC
F8
ENDCHAR
STARTCHAR Hcircumflex
ENCODING 292
SWIDTH 722 0
DWIDTH 10 0
BBX 8 12 1 0
BITMAP
18
24
C3
C3
C3
C3
FF
FF
C3
C3
C3
C3
ENDCHAR
STARTCHAR hcircumflex
ENCODING 293
SWIDTH 593 0
DWIDTH 8 0
BBX 7 13 0 0
BITMAP
60
90
00
60
60
60
7E
66
66
66
66
66
66
ENDCHAR
STARTCHAR Hbar
ENCODING 294
SWIDTH 722 0
DWIDTH 10 0
BBX 8 10 1 0
BITMAP
C3
C3
FF
C3
C3
FF
FF
C3
C3
C3
ENDCHAR
STARTCHAR hbar
ENCODING 295
SWIDTH 593 0
DWIDTH 8 0
BBX 7 10 0 0
BITMAP
F8
60
60
7E
66
66
66
66
66
66
ENDCHAR
STARTCHAR Itilde
ENCODING 296
SWIDTH 306 0
DWIDTH 4 0
BBX 5 12 0 0
BITMAP
F8
B0
60
60
60
60
60
60
60
60
60
60
ENDCHAR
STARTCHAR itilde
ENCODING 297
SWIDTH 275 0
DWIDTH 4 0
BBX 5 10 -1 0
BITMAP
78
98
00
30
30
30
30
30
30
30
ENDCHAR
STARTCHAR Imacron
ENCODING 298
SWIDTH 306 0
DWIDTH 4 0
BBX 4 12 0 0
BITMAP
F0
F0
60
60
60
60
60
60
60
60
60
60
ENDCHAR
STARTCHAR imacron
ENCODING 299
SWIDTH 275 0
DWIDTH 4 0
BBX 4 10 0 0
BITMAP
F0
F0
00
60
60
60
60
60
60
60
ENDCHAR
STARTCHAR Ibreve
ENCODING 300
SWIDTH 306 0
DWIDTH 4 0
BBX 4 12 0 0
BITMAP
90
F0
60
60
60
60
60
60
60
60
60
60
ENDCHAR
STARTCHAR ibreve
ENCODING 301
SWIDTH 275 0
DWIDTH 4 0
BBX 4 10 0 0
BITMAP
90
F0
00
60
60
60
60
60
60
60
ENDCHAR
STARTCHAR Iogonek
ENCODING 302
SWIDTH 306 0
DWIDTH 4 0
BBX 2 13 1 -3
BITMAP
C0
C0
C0
C0
C0
C0
C0
C0
C0
C0
C0
80
C0
ENDCHAR
STARTCHAR iogonek
ENCODING 303
SWIDTH 275 0
DWIDTH 4 0
BBX 3 13 0 -3
BITMAP
60
00
00
60
60
60
60
60
60
60
40
C0
60
ENDCHAR
STARTCHAR Idotaccent
ENCODING 304
SWIDTH 306 0
DWIDTH 4 0
BBX 2 12 1 0
BITMAP
C0
C0
C0
C0
C0
C0
C0
C0
C0
C0
C0
C0
ENDCHAR
STARTCHAR dotlessi
ENCODING 305
SWIDTH 275 0
DWIDTH 4 0
BBX 2 7 1 0
BITMAP
C0
C0
C0
C0
C0
C0
C0
ENDCHAR
STARTCHAR IJ
ENCODING 306
SWIDTH 695 0
DWIDTH 10 0
BBX 8 10 1 0
BITMAP
C3
C3
C3
C3
C3
C3
C3
C3
CE
CE
ENDCHAR
STARTCHAR ij
ENCODING 307
SWIDTH 550 0
DWIDTH 8 0
BBX 6 13 1 -3
BITMAP
CC
00
00
CC
CC
CC
CC
CC
CC
CC
0C
1C
18
ENDCHAR
STARTCHAR Jcircumflex
ENCODING 308
SWIDTH 389 0
DWIDTH 5 0
BBX 6 12 0 0
BITMAP
38
6C
30
30
30
30
30
30
30
30
F0
F0
ENDCHAR
STARTCHAR jcircumflex
ENCODING 309
SWIDTH 275 0
DWIDTH 4 0
BBX 4 13 0 -3
BITMAP
60
90
00
60
60
60
60
60
60
60
60
E0
C0
ENDCHAR
STARTCHAR uni0136
ENCODING 310
SWIDTH 678 0
DWIDTH 9 0
BBX 8 14 1 -4
BITMAP
C3
C6
CE
CC
F8
F8
CC
CE
C6
C3
00
18
18
18
ENDCHAR
STARTCHAR uni0137
ENCODING 311
SWIDTH 558 0
DWIDTH 8 0
BBX 7 14 1 -4
BITMAP
C0
C0
C2
CC
D8
D8
F0
D8
D8
CE
00
30
30
30
ENDCHAR
STARTCHAR kgreenlandic
ENCODING 312
SWIDTH 558 0
DWIDTH 8 0
BBX 7 7 1 0
BITMAP
CE
D8
D8
F0
D8
D8
CE
ENDCHAR
STARTCHAR Lacute
ENCODING 313
SWIDTH 538 0
DWIDTH 8 0
BBX 6 12 1 0
BITMAP
60
C0
C0
C0
C0
C0
C0
C0
C0
C0
FC
FC
ENDCHAR
STARTCHAR lacute
ENCODING 314
SWIDTH 275 0
DWIDTH 4 0
BBX 3 13 1 0
BITMAP
60
C0
00
C0
C0
C0
C0
C0
C0
C0
C0
C0
C0
ENDCHAR
STARTCHAR uni013B
ENCODING 315
SWIDTH 538 0
DWIDTH 8 0
BBX 6 14 1 -4
BITMAP
C0
C0
C0
C0
C0
C0
C0
C0
FC
FC
00
30
30
30
ENDCHAR
STARTCHAR uni013C
ENCODING 316
SWIDTH 275 0
DWIDTH 4 0
BBX 2 14 1 -4
BITMAP
C0
C0
C0
C0
C0
C0
C0
C0
C0
C0
00
C0
C0
C0
ENDCHAR
STARTCHAR Lcaron
ENCODING 317
SWIDTH 538 0
DWIDTH 8 0
BBX 6 10 1 0
BITMAP
C8
C8
C8
C8
C0
C0
C0
C0
FC
FC
ENDCHAR
STARTCHAR lcaron
ENCODING 318
SWIDTH 275 0
DWIDTH 4 0
BBX 4 10 1 0
BITMAP
F0
F0
F0
E0
C0
C0
C0
C0
C0
C0
ENDCHAR
STARTCHAR Ldot
ENCODING 319
SWIDTH 536 0
DWIDTH 8 0
BBX 6 10 1 0
BITMAP
C0
C0
C0
C0
CC
CC
C0
C0
FC
FC
ENDCHAR
STARTCHAR ldot
ENCODING 320
SWIDTH 318 0
DWIDTH 4 0
BBX 4 10 1 0
BITMAP
C0
C0
C0
C0
C0
F0
F0
C0
C0
C0
ENDCHAR
STARTCHAR Lslash
ENCODING 321
SWIDTH 538 0
DWIDTH 8 0
BBX 7 10 0 0
BITMAP
60
60
60
64
78
E0
E0
60
7E
7E
ENDCHAR
STARTCHAR lslash
ENCODING 322
SWIDTH 287 0
DWIDTH 4 0
BBX 4 10 0 0
BITMAP
60
60
60
70
70
E0
60
60
60
60
ENDCHAR
STARTCHAR Nacute
ENCODING 323
SWIDTH 723 0
DWIDTH 10 0
BBX 8 12 1 0
BITMAP
0C
18
C3
E3
F3
F3
DB
DB
CF
C7
C7
C3
ENDCHAR
STARTCHAR nacute
ENCODING 324
SWIDTH 593 0
DWIDTH 8 0
BBX 6 10 1 0
BITMAP
18
20
00
FC
CC
CC
CC
CC
CC
CC
ENDCHAR
STARTCHAR uni0145
ENCODING 325
SWIDTH 723 0
DWIDTH 10 0
BBX 8 14 1 -4
BITMAP
C3
E3
F3
F3
DB
DB
CF
C7
C7
C3
00
18
18
18
ENDCHAR
STARTCHAR uni0146
ENCODING 326
SWIDTH 593 0
DWIDTH 8 0
BBX 6 11 1 -4
BITMAP
FC
CC
CC
CC
CC
CC
CC
00
30
30
30
ENDCHAR
STARTCHAR Ncaron
ENCODING 327
SWIDTH 723 0
DWIDTH 10 0
BBX 8 12 1 0
BITMAP
34
18
C3
E3
F3
F3
DB
DB
CF
C7
C7
C3
ENDCHAR
STARTCHAR ncaron
ENCODING 328
SWIDTH 593 0
DWIDTH 8 0
BBX 6 10 1 0
BITMAP
68
30
00
FC
CC
CC
CC
CC
CC
CC
ENDCHAR
STARTCHAR napostrophe
ENCODING 329
SWIDTH 604 0
DWIDTH 8 0
BBX 7 10 0 0
BITMAP
C0
40
C0
7E
66
66
66
66
66
66
ENDCHAR
STARTCHAR Eng
ENCODING 330
SWIDTH 723 0
DWIDTH 10 0
BBX 8 13 1 -3
BITMAP
C3
E3
F3
F3
DB
DB
CF
C7
C7
C3
03
07
06
ENDCHAR
STARTCHAR eng
ENCODING 331
SWIDTH 593 0
DWIDTH 8 0
BBX 6 10 1 -3
BITMAP
FC
CC
CC
CC
CC
CC
CC
0C
1C
1C
ENDCHAR
STARTCHAR Omacron
ENCODING 332
SWIDTH 707 0
DWIDTH 10 0
BBX 8 12 1 0
BITMAP
3C
3C
3C
FF
C3
C3
C3
C3
C3
C3
FF
7E
ENDCHAR
STARTCHAR omacron
ENCODING 333
SWIDTH 574 0
DWIDTH 8 0
BBX 6 10 1 0
BITMAP
78
78
00
FC
CC
CC
CC
CC
CC
FC
ENDCHAR
STARTCHAR Obreve
ENCODING 334
SWIDTH 707 0
DWIDTH 10 0
BBX 8 12 1 0
BITMAP
24
3C
3C
FF
C3
C3
C3
C3
C3
C3
FF
7E
ENDCHAR
STARTCHAR obreve
ENCODING 335
SWIDTH 574 0
DWIDTH 8 0
BBX 6 10 1 0
BITMAP
48
78
00
FC
CC
CC
CC
CC
CC
FC
ENDCHAR
STARTCHAR Ohungarumlaut
ENCODING 336
SWIDTH 707 0
DWIDTH 10 0
BBX 8 12 1 0
BITMAP
1E
24
3C
FF
C3
C3
C3
C3
C3
C3
FF
7E
ENDCHAR
STARTCHAR ohungarumlaut
ENCODING 337
SWIDTH 574 0
DWIDTH 8 0
BBX 6 10 1 0
BITMAP
34
48
00
FC
CC
CC
CC
CC
CC
FC
ENDCHAR
STARTCHAR OE
ENCODING 338
SWIDTH 1015 0
DWIDTH 14 0
BBX 12 10 1 0
BITMAP
3FF0
FFF0
C300
C300
C3F0
C3F0
C300
C300
FFF0
7FF0
ENDCHAR
STARTCHAR oe
ENCODING 339
SWIDTH 895 0
DWIDTH 13 0
BBX 11 7 1 0
BITMAP
FFC0
CE60
CC60
CFE0
CC00
CE00
FFE0
ENDCHAR
STARTCHAR Racute
ENCODING 340
SWIDTH 676 0
DWIDTH 9 0
BBX 8 12 1 0
BITMAP
0C
10
FC
FE
C3
C3
C7
FE
CC
C6
C6
C3
ENDCHAR
STARTCHAR racute
ENCODING 341
SWIDTH 395 0
DWIDTH 6 0
BBX 4 10 1 0
BITMAP
70
C0
00
F0
F0
C0
C0
C0
C0
C0
ENDCHAR
STARTCHAR uni0156
ENCODING 342
SWIDTH 676 0
DWIDTH 9 0
BBX 8 14 1 -4
BITMAP
FC
FE
C3
C3
C7
FE
CC
C6
C6
C3
00
18
18
18
ENDCHAR
STARTCHAR uni0157
ENCODING 343
SWIDTH 395 0
DWIDTH 6 0
BBX 4 11 1 -4
BITMAP
F0
F0
C0
C0
C0
C0
C0
00
C0
C0
C0
ENDCHAR
STARTCHAR Rcaron
ENCODING 344
SWIDTH 676 0
DWIDTH 9 0
BBX 8 12 1 0
BITMAP
6C
18
FC
FE
C3
C3
C7
FE
CC
C6
C6
C3
ENDCHAR
STARTCHAR rcaron
ENCODING 345
SWIDTH 395 0
DWIDTH 6 0
BBX 4 10 1 0
BITMAP
B0
60
00
F0
F0
C0
C0
C0
C0
C0
ENDCHAR
STARTCHAR Sacute
ENCODING 346
SWIDTH 620 0
DWIDTH 9 0
BBX 7 12 1 0
BITMAP
1C
10
7C
FC
C0
C0
FC
7E
06
06
FE
FC
ENDCHAR
STARTCHAR sacute
ENCODING 347
SWIDTH 499 0
DWIDTH 7 0
BBX 5 10 1 0
BITMAP
30
60
00
F8
80
C0
F8
08
18
F8
ENDCHAR
STARTCHAR Scircumflex
ENCODING 348
SWIDTH 620 0
DWIDTH 9 0
BBX 7 12 1 0
BITMAP
38
68
7C
FC
C0
C0
FC
7E
06
06
FE
FC
ENDCHAR
STARTCHAR scircumflex
ENCODING 349
SWIDTH 499 0
DWIDTH 7 0
BBX 5 10 1 0
BITMAP
70
D8
00
F8
80
C0
F8
08
18
F8
ENDCHAR
STARTCHAR Scedilla
ENCODING 350
SWIDTH 620 0
DWIDTH 9 0
BBX 7 13 1 -3
BITMAP
7C
FC
C0
C0
FC
7E
06
06
FE
FC
10
30
30
ENDCHAR
STARTCHAR scedilla
ENCODING 351
SWIDTH 499 0
DWIDTH 7 0
BBX 5 10 1 -3
BITMAP
F8
80
C0
F8
08
18
F8
20
60
60
ENDCHAR
STARTCHAR Scaron
ENCODING 352
SWIDTH 620 0
DWIDTH 9 0
BBX 7 12 1 0
BITMAP
6C
30
7C
FC
C0
C0
FC
7E
06
06
FE
FC
ENDCHAR
STARTCHAR scaron
ENCODING 353
SWIDTH 499 0
DWIDTH 7 0
BBX 5 10 1 0
BITMAP
D8
70
00
F8
80
C0
F8
08
18
F8
ENDCHAR
STARTCHAR uni0162
ENCODING 354
SWIDTH 582 0
DWIDTH 8 0
BBX 8 13 0 -3
BITMAP
FF
FF
18
18
18
18
18
18
18
18
18
10
30
ENDCHAR
STARTCHAR uni0163
ENCODING 355
SWIDTH 390 0
DWIDTH 5 0
BBX 5 12 0 -3
BITMAP
30
30
F8
30
30
30
30
30
30
20
60
60
ENDCHAR
STARTCHAR Tcaron
ENCODING 356
SWIDTH 582 0
DWIDTH 8 0
BBX 8 12 0 0
BITMAP
34
18
FF
FF
18
18
18
18
18
18
18
18
ENDCHAR
STARTCHAR tcaron
ENCODING 357
SWIDTH 390 0
DWIDTH 5 0
BBX 6 12 0 0
BITMAP
0C
0C
0C
38
30
F8
30
30
30
30
30
30
ENDCHAR
STARTCHAR Tbar
ENCODING 358
SWIDTH 582 0
DWIDTH 8 0
BBX 8 10 0 0
BITMAP
FF
FF
18
18
18
7F
18
18
18
18
ENDCHAR
STARTCHAR tbar
ENCODING 359
SWIDTH 390 0
DWIDTH 5 0
BBX 5 9 0 0
BITMAP
30
30
F8
30
30
F8
30
30
30
ENDCHAR
STARTCHAR Utilde
ENCODING 360
SWIDTH 698 0
DWIDTH 10 0
BBX 8 12 1 0
BITMAP
3C
4C
C3
C3
C3
C3
C3
C3
C3
C3
FE
7E
ENDCHAR
STARTCHAR utilde
ENCODING 361
SWIDTH 593 0
DWIDTH 8 0
BBX 6 10 1 0
BITMAP
7C
58
00
CC
CC
CC
CC
CC
FC
F4
ENDCHAR
STARTCHAR Umacron
ENCODING 362
SWIDTH 698 0
DWIDTH 10 0
BBX 8 12 1 0
BITMAP
3C
3C
C3
C3
C3
C3
C3
C3
C3
C3
FE
7E
ENDCHAR
STARTCHAR umacron
ENCODING 363
SWIDTH 593 0
DWIDTH 8 0
BBX 6 10 1 0
BITMAP
78
78
00
CC
CC
CC
CC
CC
FC
F4
ENDCHAR
STARTCHAR Ubreve
ENCODING 364
SWIDTH 698 0
DWIDTH 10 0
BBX 8 12 1 0
BITMAP
24
38
C3
C3
C3
C3
C3
C3
C3
C3
FE
7E
ENDCHAR
STARTCHAR ubreve
ENCODING 365
SWIDTH 593 0
DWIDTH 8 0
BBX 6 10 1 0
BITMAP
48
38
00
CC
CC
CC
CC
CC
FC
F4
ENDCHAR
STARTCHAR Uring
ENCODING 366
SWIDTH 698 0
DWIDTH 10 0
BBX 8 13 1 0
BITMAP
3C
24
3C
C3
C3
C3
C3
C3
C3
C3
C3
FE
7E
ENDCHAR
STARTCHAR uring
ENCODING 367
SWIDTH 593 0
DWIDTH 8 0
BBX 6 11 1 0
BITMAP
78
48
78
00
CC
CC
CC
CC
CC
FC
F4
ENDCHAR
STARTCHAR Uhungarumlaut
ENCODING 368
SWIDTH 698 0
DWIDTH 10 0
BBX 8 12 1 0
BITMAP
1E
24
C3
C3
C3
C3
C3
C3
C3
C3
FE
7E
ENDCHAR
STARTCHAR uhungarumlaut
ENCODING 369
SWIDTH 593 0
DWIDTH 8 0
BBX 7 10 1 0
BITMAP
36
68
00
CC
CC
CC
CC
CC
FC
F4
ENDCHAR
STARTCHAR Uogonek
ENCODING 370
SWIDTH 698 0
DWIDTH 10 0
BBX 8 13 1 -3
BITMAP
C3
C3
C3
C3
C3
C3
C3
C3
FE
7E
10
10
18
ENDCHAR
STARTCHAR uogonek
ENCODING 371
SWIDTH 593 0
DWIDTH 8 0
BBX 6 10 1 -3
BITMAP
CC
CC
CC
CC
CC
FC
F4
0C
0C
0C
ENDCHAR
STARTCHAR Wcircumflex
ENCODING 372
SWIDTH 989 0
DWIDTH 14 0
BBX 14 12 0 0
BITMAP
0300
0480
C30C
6318
6798
6798
6798
24B0
3CF0
3CF0
3CF0
1860
ENDCHAR
STARTCHAR wcircumflex
ENCODING 373
SWIDTH 832 0
DWIDTH 12 0
BBX 11 10 0 0
BITMAP
0E00
0900
0000
C660
6660
6E60
6F40
2BC0
39C0
3980
ENDCHAR
STARTCHAR Ycircumflex
ENCODING 374
SWIDTH 624 0
DWIDTH 9 0
BBX 9 12 0 0
BITMAP
1C00
3600
C180
6300
6300
3600
3400
1C00
1800
1800
1800
1800
ENDCHAR
STARTCHAR ycircumflex
ENCODING 375
SWIDTH 593 0
DWIDTH 8 0
BBX 6 13 1 -3
BITMAP
38
48
00
CC
CC
CC
CC
CC
FC
7C
0C
FC
F8
ENDCHAR
STARTCHAR Ydieresis
ENCODING 376
SWIDTH 624 0
DWIDTH 9 0
BBX 9 12 0 0
BITMAP
3600
3600
C180
6300
6300
3600
3400
1C00
1800
1800
1800
1800
ENDCHAR
STARTCHAR Zacute
ENCODING 377
SWIDTH 611 0
DWIDTH 9 0
BBX 7 12 1 0
BITMAP
18
30
FE
FE
0C
1C
18
30
60
E0
FE
FE
ENDCHAR
STARTCHAR zacute
ENCODING 378
SWIDTH 521 0
DWIDTH 7 0
BBX 6 10 1 0
BITMAP
38
60
00
FC
18
38
70
60
FC
FC
ENDCHAR
STARTCHAR Zdotaccent
ENCODING 379
SWIDTH 611 0
DWIDTH 9 0
BBX 7 12 1 0
BITMAP
30
30
FE
FE
0C
1C
18
30
60
E0
FE
FE
ENDCHAR
STARTCHAR zdotaccent
ENCODING 380
SWIDTH 521 0
DWIDTH 7 0
BBX 6 10 1 0
BITMAP
30
30
00
FC
18
38
70
60
FC
FC
ENDCHAR
STARTCHAR Zcaron
ENCODING 381
SWIDTH 611 0
DWIDTH 9 0
BBX 7 12 1 0
BITMAP
6C
30
FE
FE
0C
1C
18
30
60
E0
FE
FE
ENDCHAR
STARTCHAR zcaron
ENCODING 382
SWIDTH 521 0
DWIDTH 7 0
BBX 6 10 1 0
BITMAP
D8
30
00
FC
18
38
70
60
FC
FC
ENDCHAR
STARTCHAR longs
ENCODING 383
SWIDTH 384 0
DWIDTH 5 0
BBX 5 10 0 0
BITMAP
38
30
30
F0
30
30
30
30
30
30
ENDCHAR
STARTCHAR uni018F
ENCODING 399
SWIDTH 690 0
DWIDTH 10 0
BBX 8 10 1 0
BITMAP
7C
7E
07
03
FF
FF
C3
C3
FF
7E
ENDCHAR
STARTCHAR florin
ENCODING 402
SWIDTH 461 0
DWIDTH 6 0
BBX 9 13 -2 -3
BITMAP
0780
0400
0C00
1F00
2C00
0800
1800
1800
1800
1800
1000
7000
E000
ENDCHAR
STARTCHAR uni019D
ENCODING 413
SWIDTH 723 0
DWIDTH 10 0
BBX 9 13 0 -3
BITMAP
6180
7180
7980
7980
6D80
6D80
6780
6380
6380
6180
6000
E000
C000
ENDCHAR
STARTCHAR Ohorn
ENCODING 416
SWIDTH 707 0
DWIDTH 10 0
BBX 8 11 1 0
BITMAP
01
3F
FF
C3
C3
C3
C3
C3
C3
FF
7E
ENDCHAR
STARTCHAR ohorn
ENCODING 417
SWIDTH 574 0
DWIDTH 8 0
BBX 7 8 1 0
BITMAP
06
FC
CC
CC
CC
CC
CC
FC
ENDCHAR
STARTCHAR Uhorn
ENCODING 431
SWIDTH 698 0
DWIDTH 10 0
BBX 9 11 1 0
BITMAP
0080
C380
C300
C300
C300
C300
C300
C300
C300
FE00
7E00
ENDCHAR
STARTCHAR uhorn
ENCODING 432
SWIDTH 593 0
DWIDTH 8 0
BBX 8 8 1 0
BITMAP
03
CE
CC
CC
CC
CC
FC
F4
ENDCHAR
STARTCHAR uni01C4
ENCODING 452
SWIDTH 1294 0
DWIDTH 18 0
BBX 16 12 1 0
BITMAP
0016
000C
F87F
FE7F
C703
C306
C30E
C31C
C318
C330
FE7F
FE7F
ENDCHAR
STARTCHAR uni01C5
ENCODING 453
SWIDTH 1204 0
DWIDTH 17 0
BBX 15 10 1 0
BITMAP
F836
FE18
C700
C37E
C306
C30C
C318
C330
FE7E
FE7E
ENDCHAR
STARTCHAR uni01C6
ENCODING 454
SWIDTH 1105 0
DWIDTH 15 0
BBX 14 10 1 0
BITMAP
0C58
0C30
0C00
FCFC
CC1C
CC38
CC30
CC60
FCFC
FCFC
ENDCHAR
STARTCHAR uni01C7
ENCODING 455
SWIDTH 927 0
DWIDTH 13 0
BBX 11 10 1 0
BITMAP
C060
C060
C060
C060
C060
C060
C060
C060
FDE0
FDC0
ENDCHAR
STARTCHAR uni01C8
ENCODING 456
SWIDTH 813 0
DWIDTH 11 0
BBX 9 13 1 -3
BITMAP
C180
C000
C000
C080
C080
C080
C080
C080
FC80
FC80
0080
0380
0380
ENDCHAR
STARTCHAR uni01C9
ENCODING 457
SWIDTH 550 0
DWIDTH 8 0
BBX 6 13 1 -3
BITMAP
CC
C0
C0
CC
CC
CC
CC
CC
CC
CC
0C
1C
18
ENDCHAR
STARTCHAR uni01CA
ENCODING 458
SWIDTH 1112 0
DWIDTH 16 0
BBX 13 10 1 0
BITMAP
C318
E318
F318
F318
DB18
DB18
CF18
C718
C778
C378
ENDCHAR
STARTCHAR uni01CB
ENCODING 459
SWIDTH 998 0
DWIDTH 14 0
BBX 12 13 1 -3
BITMAP
C330
E300
F300
F330
DB30
DB30
CF30
C730
C730
C330
0030
0070
0060
ENDCHAR
STARTCHAR uni01CC
ENCODING 460
SWIDTH 868 0
DWIDTH 12 0
BBX 10 13 1 -3
BITMAP
00C0
0000
0000
FCC0
CCC0
CCC0
CCC0
CCC0
CCC0
CCC0
00C0
01C0
0180
ENDCHAR
STARTCHAR uni01CD
ENCODING 461
SWIDTH 686 0
DWIDTH 10 0
BBX 9 12 0 0
BITMAP
1600
0C00
1C00
1E00
1E00
3600
3300
3300
7F00
7F80
6180
C180
ENDCHAR
STARTCHAR uni01CE
ENCODING 462
SWIDTH 565 0
DWIDTH 8 0
BBX 6 10 1 0
BITMAP
58
30
00
F8
0C
0C
FC
8C
CC
FC
ENDCHAR
STARTCHAR uni01CF
ENCODING 463
SWIDTH 306 0
DWIDTH 4 0
BBX 4 12 0 0
BITMAP
D0
60
60
60
60
60
60
60
60
60
60
60
ENDCHAR
STARTCHAR uni01D0
ENCODING 464
SWIDTH 275 0
DWIDTH 4 0
BBX 4 10 0 0
BITMAP
B0
60
00
60
60
60
60
60
60
60
ENDCHAR
STARTCHAR uni01D1
ENCODING 465
SWIDTH 707 0
DWIDTH 10 0
BBX 8 12 1 0
BITMAP
2C
18
3C
FF
C3
C3
C3
C3
C3
C3
FF
7E
ENDCHAR
STARTCHAR uni01D2
ENCODING 466
SWIDTH 574 0
DWIDTH 8 0
BBX 6 10 1 0
BITMAP
78
30
00
FC
CC
CC
CC
CC
CC
FC
ENDCHAR
STARTCHAR uni01D3
ENCODING 467
SWIDTH 698 0
DWIDTH 10 0
BBX 8 12 1 0
BITMAP
2C
18
C3
C3
C3
C3
C3
C3
C3
C3
FE
7E
ENDCHAR
STARTCHAR uni01D4
ENCODING 468
SWIDTH 593 0
DWIDTH 8 0
BBX 6 10 1 0
BITMAP
68
30
00
CC
CC
CC
CC
CC
FC
F4
ENDCHAR
STARTCHAR uni01D5
ENCODING 469
SWIDTH 698 0
DWIDTH 10 0
BBX 8 15 1 0
BITMAP
3C
3C
00
24
24
C3
C3
C3
C3
C3
C3
C3
C3
FE
7E
ENDCHAR
STARTCHAR uni01D6
ENCODING 470
SWIDTH 593 0
DWIDTH 8 0
BBX 6 12 1 0
BITMAP
78
78
48
48
00
CC
CC
CC
CC
CC
FC
F4
ENDCHAR
STARTCHAR uni01D7
ENCODING 471
SWIDTH 698 0
DWIDTH 10 0
BBX 8 15 1 0
BITMAP
0C
18
00
24
24
C3
C3
C3
C3
C3
C3
C3
C3
FE
7E
ENDCHAR
STARTCHAR uni01D8
ENCODING 472
SWIDTH 593 0
DWIDTH 8 0
BBX 6 12 1 0
BITMAP
18
20
48
48
00
CC
CC
CC
CC
CC
FC
F4
ENDCHAR
STARTCHAR uni01D9
ENCODING 473
SWIDTH 698 0
DWIDTH 10 0
BBX 8 15 1 0
BITMAP
2C
18
00
24
24
C3
C3
C3
C3
C3
C3
C3
C3
FE
7E
ENDCHAR
STARTCHAR uni01DA
ENCODING 474
SWIDTH 593 0
DWIDTH 8 0
BBX 6 12 1 0
BITMAP
68
30
48
48
00
CC
CC
CC
CC
CC
FC
F4
ENDCHAR
STARTCHAR uni01DB
ENCODING 475
SWIDTH 698 0
DWIDTH 10 0
BBX 8 15 1 0
BITMAP
70
18
00
24
24
C3
C3
C3
C3
C3
C3
C3
C3
FE
7E
ENDCHAR
STARTCHAR uni01DC
ENCODING 476
SWIDTH 593 0
DWIDTH 8 0
BBX 6 12 1 0
BITMAP
60
30
48
48
00
CC
CC
CC
CC
CC
FC
F4
ENDCHAR
STARTCHAR Gcaron
ENCODING 486
SWIDTH 669 0
DWIDTH 9 0
BBX 7 12 1 0
BITMAP
3C
18
3E
FE
C0
C0
C0
CE
C6
C6
E6
7E
ENDCHAR
STARTCHAR gcaron
ENCODING 487
SWIDTH 585 0
DWIDTH 8 0
BBX 6 13 1 -3
BITMAP
68
30
00
FC
CC
CC
CC
CC
FC
FC
0C
FC
F8
ENDCHAR
STARTCHAR uni01EA
ENCODING 490
SWIDTH 707 0
DWIDTH 10 0
BBX 8 13 1 -3
BITMAP
3C
FF
C3
C3
C3
C3
C3
C3
FF
7E
10
10
18
ENDCHAR
STARTCHAR uni01EB
ENCODING 491
SWIDTH 574 0
DWIDTH 8 0
BBX 6 10 1 -3
BITMAP
FC
CC
CC
CC
CC
CC
FC
20
20
30
ENDCHAR
STARTCHAR uni01F1
ENCODING 497
SWIDTH 1294 0
DWIDTH 18 0
BBX 16 10 1 0
BITMAP
F87F
FE7F
C703
C306
C30E
C31C
C318
C330
FE7F
FE7F
ENDCHAR
STARTCHAR uni01F2
ENCODING 498
SWIDTH 1204 0
DWIDTH 17 0
BBX 15 10 1 0
BITMAP
F800
FE00
C700
C37E
C306
C30C
C318
C330
FE7E
FE7E
ENDCHAR
STARTCHAR uni01F3
ENCODING 499
SWIDTH 1105 0
DWIDTH 15 0
BBX 14 10 1 0
BITMAP
0C00
0C00
0C00
FCFC
CC1C
CC38
CC30
CC60
FCFC
FCFC
ENDCHAR
STARTCHAR uni01F4
ENCODING 500
SWIDTH 669 0
DWIDTH 9 0
BBX 7 12 1 0
BITMAP
0C
18
3E
FE
C0
C0
C0
CE
C6
C6
E6
7E
ENDCHAR
STARTCHAR uni01F5
ENCODING 501
SWIDTH 585 0
DWIDTH 8 0
BBX 6 13 1 -3
BITMAP
18
20
00
FC
CC
CC
CC
CC
FC
FC
0C
FC
F8
ENDCHAR
STARTCHAR Aringacute
ENCODING 506
SWIDTH 683 0
DWIDTH 10 0
BBX 9 14 0 0
BITMAP
0600
0C00
1E00
1200
1E00
1E00
1E00
3600
3300
3300
7F00
7F80
6180
C180
ENDCHAR
STARTCHAR aringacute
ENCODING 507
SWIDTH 565 0
DWIDTH 8 0
BBX 6 14 1 0
BITMAP
38
20
00
78
48
78
00
F8
0C
0C
FC
8C
CC
FC
ENDCHAR
STARTCHAR AEacute
ENCODING 508
SWIDTH 964 0
DWIDTH 14 0
BBX 13 12 0 0
BITMAP
0180
0200
0FF8
0FF8
1E00
1B00
33F0
33F0
7F00
7F00
C1F8
C1F8
ENDCHAR
STARTCHAR aeacute
ENCODING 509
SWIDTH 869 0
DWIDTH 12 0
BBX 10 10 1 0
BITMAP
0600
0800
0000
FFC0
0CC0
0C40
FFC0
8C00
CE00
FFC0
ENDCHAR
STARTCHAR Oslashacute
ENCODING 510
SWIDTH 707 0
DWIDTH 10 0
BBX 8 14 1 -1
BITMAP
0C
18
00
3F
FF
C7
CF
CB
DB
F3
E3
FF
7E
C0
ENDCHAR
STARTCHAR oslashacute
ENCODING 511
SWIDTH 574 0
DWIDTH 8 0
BBX 6 11 1 -1
BITMAP
18
20
04
FC
DC
DC
FC
EC
EC
FC
80
ENDCHAR
STARTCHAR uni0200
ENCODING 512
SWIDTH 686 0
DWIDTH 10 0
BBX 9 12 0 0
BITMAP
2C00
1600
1C00
1E00
1E00
3600
3300
3300
7F00
7F80
6180
C180
ENDCHAR
STARTCHAR uni0201
ENCODING 513
SWIDTH 565 0
DWIDTH 8 0
BBX 6 10 1 0
BITMAP
F0
48
00
F8
0C
0C
FC
8C
CC
FC
ENDCHAR
STARTCHAR uni0202
ENCODING 514
SWIDTH 686 0
DWIDTH 10 0
BBX 9 12 0 0
BITMAP
1E00
1200
1C00
1E00
1E00
3600
3300
3300
7F00
7F80
6180
C180
ENDCHAR
STARTCHAR uni0203
ENCODING 515
SWIDTH 565 0
DWIDTH 8 0
BBX 6 10 1 0
BITMAP
78
48
00
F8
0C
0C
FC
8C
CC
FC
ENDCHAR
STARTCHAR uni0204
ENCODING 516
SWIDTH 607 0
DWIDTH 9 0
BBX 7 12 1 0
BITMAP
D8
2C
FE
FE
C0
C0
FC
FC
C0
C0
FE
FE
ENDCHAR
STARTCHAR uni0205
ENCODING 517
SWIDTH 557 0
DWIDTH 8 0
BBX 6 10 1 0
BITMAP
F0
48
00
FC
CC
CC
FC
C0
C0
FC
ENDCHAR
STARTCHAR uni0206
ENCODING 518
SWIDTH 607 0
DWIDTH 9 0
BBX 7 12 1 0
BITMAP
38
64
FE
FE
C0
C0
FC
FC
C0
C0
FE
FE
ENDCHAR
STARTCHAR uni0207
ENCODING 519
SWIDTH 557 0
DWIDTH 8 0
BBX 6 10 1 0
BITMAP
78
48
00
FC
CC
CC
FC
C0
C0
FC
ENDCHAR
STARTCHAR uni0208
ENCODING 520
SWIDTH 306 0
DWIDTH 4 0
BBX 5 12 -1 0
BITMAP
D0
48
30
30
30
30
30
30
30
30
30
30
ENDCHAR
STARTCHAR uni0209
ENCODING 521
SWIDTH 275 0
DWIDTH 4 0
BBX 5 10 -1 0
BITMAP
B0
48
00
30
30
30
30
30
30
30
ENDCHAR
STARTCHAR uni020A
ENCODING 522
SWIDTH 306 0
DWIDTH 4 0
BBX 4 12 0 0
BITMAP
F0
90
60
60
60
60
60
60
60
60
60
60
ENDCHAR
STARTCHAR uni020B
ENCODING 523
SWIDTH 275 0
DWIDTH 4 0
BBX 4 10 0 0
BITMAP
F0
90
00
60
60
60
60
60
60
60
ENDCHAR
STARTCHAR uni020C
ENCODING 524
SWIDTH 707 0
DWIDTH 10 0
BBX 8 12 1 0
BITMAP
78
24
3C
FF
C3
C3
C3
C3
C3
C3
FF
7E
ENDCHAR
STARTCHAR uni020D
ENCODING 525
SWIDTH 574 0
DWIDTH 8 0
BBX 6 10 1 0
BITMAP
F0
48
00
FC
CC
CC
CC
CC
CC
FC
ENDCHAR
STARTCHAR uni020E
ENCODING 526
SWIDTH 707 0
DWIDTH 10 0
BBX 8 12 1 0
BITMAP
3C
24
3C
FF
C3
C3
C3
C3
C3
C3
FF
7E
ENDCHAR
STARTCHAR uni020F
ENCODING 527
SWIDTH 574 0
DWIDTH 8 0
BBX 6 10 1 0
BITMAP
78
48
00
FC
CC
CC
CC
CC
CC
FC
ENDCHAR
STARTCHAR uni0210
ENCODING 528
SWIDTH 676 0
DWIDTH 9 0
BBX 8 12 1 0
BITMAP
D8
2C
FC
FE
C3
C3
C7
FE
CC
C6
C6
C3
ENDCHAR
STARTCHAR uni0211
ENCODING 529
SWIDTH 395 0
DWIDTH 6 0
BBX 6 10 -1 0
BITMAP
D8
2C
00
3C
3C
30
30
30
30
30
ENDCHAR
STARTCHAR uni0212
ENCODING 530
SWIDTH 676 0
DWIDTH 9 0
BBX 8 12 1 0
BITMAP
3C
24
FC
FE
C3
C3
C7
FE
CC
C6
C6
C3
ENDCHAR
STARTCHAR uni0213
ENCODING 531
SWIDTH 395 0
DWIDTH 6 0
BBX 4 10 1 0
BITMAP
F0
90
00
F0
F0
C0
C0
C0
C0
C0
ENDCHAR
STARTCHAR uni0214
ENCODING 532
SWIDTH 698 0
DWIDTH 10 0
BBX 8 12 1 0
BITMAP
58
24
C3
C3
C3
C3
C3
C3
C3
C3
FE
7E
ENDCHAR
STARTCHAR uni0215
ENCODING 533
SWIDTH 593 0
DWIDTH 8 0
BBX 6 10 1 0
BITMAP
D0
68
00
CC
CC
CC
CC
CC
FC
F4
ENDCHAR
STARTCHAR uni0216
ENCODING 534
SWIDTH 698 0
DWIDTH 10 0
BBX 8 12 1 0
BITMAP
3C
24
C3
C3
C3
C3
C3
C3
C3
C3
FE
7E
ENDCHAR
STARTCHAR uni0217
ENCODING 535
SWIDTH 593 0
DWIDTH 8 0
BBX 6 10 1 0
BITMAP
78
48
00
CC
CC
CC
CC
CC
FC
F4
ENDCHAR
STARTCHAR uni0218
ENCODING 536
SWIDTH 620 0
DWIDTH 9 0
BBX 7 14 1 -4
BITMAP
7C
FC
C0
C0
FC
7E
06
06
FE
FC
00
30
30
30
ENDCHAR
STARTCHAR uni0219
ENCODING 537
SWIDTH 499 0
DWIDTH 7 0
BBX 5 11 1 -4
BITMAP
F8
80
C0
F8
08
18
F8
00
20
20
60
ENDCHAR
STARTCHAR uni021A
ENCODING 538
SWIDTH 582 0
DWIDTH 8 0
BBX 8 14 0 -4
BITMAP
FF
FF
18
18
18
18
18
18
18
18
00
18
18
18
ENDCHAR
STARTCHAR uni021B
ENCODING 539
SWIDTH 390 0
DWIDTH 5 0
BBX 5 13 0 -4
BITMAP
30
30
F8
30
30
30
30
30
30
00
30
30
60
ENDCHAR
STARTCHAR uni022A
ENCODING 554
SWIDTH 707 0
DWIDTH 10 0
BBX 8 15 1 0
BITMAP
3C
3C
00
24
24
3C
FF
C3
C3
C3
C3
C3
C3
FF
7E
ENDCHAR
STARTCHAR uni022B
ENCODING 555
SWIDTH 574 0
DWIDTH 8 0
BBX 6 12 1 0
BITMAP
78
78
48
48
00
FC
CC
CC
CC
CC
CC
FC
ENDCHAR
STARTCHAR uni022C
ENCODING 556
SWIDTH 707 0
DWIDTH 10 0
BBX 8 15 1 0
BITMAP
3C
3C
00
3E
4C
3C
FF
C3
C3
C3
C3
C3
C3
FF
7E
ENDCHAR
STARTCHAR uni022D
ENCODING 557
SWIDTH 574 0
DWIDTH 8 0
BBX 6 12 1 0
BITMAP
78
78
7C
98
00
FC
CC
CC
CC
CC
CC
FC
ENDCHAR
STARTCHAR uni0230
ENCODING 560
SWIDTH 707 0
DWIDTH 10 0
BBX 8 15 1 0
BITMAP
3C
3C
00
18
18
3C
FF
C3
C3
C3
C3
C3
C3
FF
7E
ENDCHAR
STARTCHAR uni0231
ENCODING 561
SWIDTH 574 0
DWIDTH 8 0
BBX 6 12 1 0
BITMAP
78
78
30
30
00
FC
CC
CC
CC
CC
CC
FC
ENDCHAR
STARTCHAR uni0232
ENCODING 562
SWIDTH 624 0
DWIDTH 9 0
BBX 9 12 0 0
BITMAP
3E00
3E00
C180
6300
6300
3600
3400
1C00
1800
1800
1800
1800
ENDCHAR
STARTCHAR uni0233
ENCODING 563
SWIDTH 593 0
DWIDTH 8 0
BBX 6 13 1 -3
BITMAP
78
78
00
CC
CC
CC
CC
CC
FC
7C
0C
FC
F8
ENDCHAR
STARTCHAR uni0237
ENCODING 567
SWIDTH 275 0
DWIDTH 4 0
BBX 3 10 0 -3
BITMAP
60
60
60
60
60
60
60
60
E0
C0
ENDCHAR
STARTCHAR uni0259
ENCODING 601
SWIDTH 557 0
DWIDTH 8 0
BBX 6 7 1 0
BITMAP
F8
0C
0C
FC
CC
CC
F8
ENDCHAR
STARTCHAR uni0272
ENCODING 626
SWIDTH 593 0
DWIDTH 8 0
BBX 7 10 0 -3
BITMAP
7E
66
66
66
66
66
66
60
E0
C0
ENDCHAR
STARTCHAR uni02B9
ENCODING 697
SWIDTH 144 0
DWIDTH 2 0
BBX 2 5 0 5
BITMAP
C0
C0
C0
C0
80
ENDCHAR
STARTCHAR uni02BA
ENCODING 698
SWIDTH 329 0
DWIDTH 5 0
BBX 5 5 0 5
BITMAP
D8
D8
D0
D0
90
ENDCHAR
STARTCHAR uni02BC
ENCODING 700
SWIDTH 149 0
DWIDTH 2 0
BBX 2 3 0 7
BITMAP
C0
40
C0
ENDCHAR
STARTCHAR circumflex
ENCODING 710
SWIDTH 321 0
DWIDTH 5 0
BBX 5 2 0 8
BITMAP
70
D8
ENDCHAR
STARTCHAR caron
ENCODING 711
SWIDTH 321 0
DWIDTH 5 0
BBX 5 2 0 8
BITMAP
D8
60
ENDCHAR
STARTCHAR uni02C9
ENCODING 713
SWIDTH 315 0
DWIDTH 4 0
BBX 4 2 0 8
BITMAP
F0
F0
ENDCHAR
STARTCHAR breve
ENCODING 728
SWIDTH 295 0
DWIDTH 4 0
BBX 4 2 0 8
BITMAP
90
F0
ENDCHAR
STARTCHAR dotaccent
ENCODING 729
SWIDTH 113 0
DWIDTH 2 0
BBX 2 2 0 8
BITMAP
C0
C0
ENDCHAR
STARTCHAR ring
ENCODING 730
SWIDTH 283 0
DWIDTH 4 0
BBX 4 3 0 8
BITMAP
F0
90
F0
ENDCHAR
STARTCHAR ogonek
ENCODING 731
SWIDTH 175 0
DWIDTH 2 0
BBX 2 3 0 -3
BITMAP
C0
C0
C0
ENDCHAR
STARTCHAR tilde
ENCODING 732
SWIDTH 364 0
DWIDTH 5 0
BBX 5 2 0 8
BITMAP
F8
98
ENDCHAR
STARTCHAR hungarumlaut
ENCODING 733
SWIDTH 387 0
DWIDTH 5 0
BBX 5 2 0 8
BITMAP
68
90
ENDCHAR
STARTCHAR gravecomb
ENCODING 768
SWIDTH 0 0
DWIDTH 0 0
BBX 3 2 0 8
BITMAP
C0
20
ENDCHAR
STARTCHAR acutecomb
ENCODING 769
SWIDTH 0 0
DWIDTH 0 0
BBX 3 2 0 8
BITMAP
60
C0
ENDCHAR
STARTCHAR uni0302
ENCODING 770
SWIDTH 0 0
DWIDTH 0 0
BBX 5 2 0 8
BITMAP
70
D8
ENDCHAR
STARTCHAR tildecomb
ENCODING 771
SWIDTH 0 0
DWIDTH 0 0
BBX 5 2 0 8
BITMAP
F8
98
ENDCHAR
STARTCHAR uni0304
ENCODING 772
SWIDTH 0 0
DWIDTH 0 0
BBX 4 2 0 8
BITMAP
F0
F0
ENDCHAR
STARTCHAR uni0306
ENCODING 774
SWIDTH 0 0
DWIDTH 0 0
BBX 4 2 0 8
BITMAP
90
F0
ENDCHAR
STARTCHAR uni0307
ENCODING 775
SWIDTH 0 0
DWIDTH 0 0
BBX 2 2 0 8
BITMAP
C0
C0
ENDCHAR
STARTCHAR uni0308
ENCODING 776
SWIDTH 0 0
DWIDTH 0 0
BBX 4 2 0 8
BITMAP
D0
D0
ENDCHAR
STARTCHAR hookabovecomb
ENCODING 777
SWIDTH 0 0
DWIDTH 0 0
BBX 4 3 0 8
BITMAP
E0
30
60
ENDCHAR
STARTCHAR uni030A
ENCODING 778
SWIDTH 0 0
DWIDTH 0 0
BBX 4 3 0 8
BITMAP
F0
90
F0
ENDCHAR
STARTCHAR uni030B
ENCODING 779
SWIDTH 0 0
DWIDTH 0 0
BBX 5 2 0 8
BITMAP
68
90
ENDCHAR
STARTCHAR uni030C
ENCODING 780
SWIDTH 0 0
DWIDTH 0 0
BBX 5 2 0 8
BITMAP
D8
60
ENDCHAR
STARTCHAR uni030F
ENCODING 783
SWIDTH 0 0
DWIDTH 0 0
BBX 5 2 0 8
BITMAP
D8
68
ENDCHAR
STARTCHAR uni0311
ENCODING 785
SWIDTH 0 0
DWIDTH 0 0
BBX 4 2 0 8
BITMAP
F0
90
ENDCHAR
STARTCHAR uni0312
ENCODING 786
SWIDTH 0 0
DWIDTH 0 0
BBX 2 3 0 8
BITMAP
C0
C0
C0
ENDCHAR
STARTCHAR uni031B
ENCODING 795
SWIDTH 0 0
DWIDTH 0 0
BBX 3 2 0 6
BITMAP
20
C0
ENDCHAR
STARTCHAR dotbelowcomb
ENCODING 803
SWIDTH 0 0
DWIDTH 0 0
BBX 1 2 0 -3
BITMAP
80
80
ENDCHAR
STARTCHAR uni0324
ENCODING 804
SWIDTH 0 0
DWIDTH 0 0
BBX 4 2 0 -3
BITMAP
D0
D0
ENDCHAR
STARTCHAR uni0326
ENCODING 806
SWIDTH 0 0
DWIDTH 0 0
BBX 2 3 0 -4
BITMAP
C0
C0
C0
ENDCHAR
STARTCHAR uni0327
ENCODING 807
SWIDTH 0 0
DWIDTH 0 0
BBX 2 3 0 -3
BITMAP
40
C0
C0
ENDCHAR
STARTCHAR uni0328
ENCODING 808
SWIDTH 0 0
DWIDTH 0 0
BBX 2 3 0 -3
BITMAP
C0
C0
C0
ENDCHAR
STARTCHAR uni032E
ENCODING 814
SWIDTH 0 0
DWIDTH 0 0
BBX 4 2 0 -3
BITMAP
90
F0
ENDCHAR
STARTCHAR uni0331
ENCODING 817
SWIDTH 0 0
DWIDTH 0 0
BBX 4 1 0 -3
BITMAP
F0
ENDCHAR
STARTCHAR uni0335
ENCODING 821
SWIDTH 0 0
DWIDTH 0 0
BBX 4 2 0 4
BITMAP
F0
F0
ENDCHAR
STARTCHAR uni0336
ENCODING 822
SWIDTH 0 0
DWIDTH 0 0
BBX 8 1 0 7
BITMAP
FF
ENDCHAR
STARTCHAR uni0394
ENCODING 916
SWIDTH 687 0
DWIDTH 10 0
BBX 9 10 0 0
BITMAP
1C00
1E00
1E00
3600
3300
3300
6300
6180
7F80
FF80
ENDCHAR
STARTCHAR uni03A9
ENCODING 937
SWIDTH 709 0
DWIDTH 10 0
BBX 8 10 1 0
BITMAP
3C
FF
C3
C3
C3
C3
C3
C3
E7
E7
ENDCHAR
STARTCHAR uni03BC
ENCODING 956
SWIDTH 593 0
DWIDTH 8 0
BBX 6 10 1 -3
BITMAP
CC
CC
CC
CC
CC
FC
F4
C0
C0
C0
ENDCHAR
STARTCHAR pi
ENCODING 960
SWIDTH 588 0
DWIDTH 8 0
BBX 6 7 1 0
BITMAP
FC
CC
CC
CC
CC
CC
CC
ENDCHAR
STARTCHAR uni1E0C
ENCODING 7692
SWIDTH 683 0
DWIDTH 10 0
BBX 8 13 1 -3
BITMAP
F8
FE
C7
C3
C3
C3
C3
C3
FE
FE
00
18
18
ENDCHAR
STARTCHAR uni1E0D
ENCODING 7693
SWIDTH 585 0
DWIDTH 8 0
BBX 6 13 1 -3
BITMAP
0C
0C
0C
FC
CC
CC
CC
CC
FC
FC
00
30
30
ENDCHAR
STARTCHAR uni1E24
ENCODING 7716
SWIDTH 722 0
DWIDTH 10 0
BBX 8 13 1 -3
BITMAP
C3
C3
C3
C3
FF
FF
C3
C3
C3
C3
00
18
18
ENDCHAR
STARTCHAR uni1E25
ENCODING 7717
SWIDTH 593 0
DWIDTH 8 0
BBX 6 13 1 -3
BITMAP
C0
C0
C0
FC
CC
CC
CC
CC
CC
CC
00
30
30
ENDCHAR
STARTCHAR uni1E44
ENCODING 7748
SWIDTH 723 0
DWIDTH 10 0
BBX 8 12 1 0
BITMAP
18
18
C3
E3
F3
F3
DB
DB
CF
C7
C7
C3
ENDCHAR
STARTCHAR uni1E45
ENCODING 7749
SWIDTH 593 0
DWIDTH 8 0
BBX 6 10 1 0
BITMAP
30
30
00
FC
CC
CC
CC
CC
CC
CC
ENDCHAR
STARTCHAR uni1E5A
ENCODING 7770
SWIDTH 676 0
DWIDTH 9 0
BBX 8 13 1 -3
BITMAP
FC
FE
C3
C3
C7
FE
CC
C6
C6
C3
00
10
10
ENDCHAR
STARTCHAR uni1E5B
ENCODING 7771
SWIDTH 395 0
DWIDTH 6 0
BBX 4 10 1 -3
BITMAP
F0
F0
C0
C0
C0
C0
C0
00
C0
C0
ENDCHAR
STARTCHAR uni1E62
ENCODING 7778
SWIDTH 620 0
DWIDTH 9 0
BBX 7 13 1 -3
BITMAP
7C
FC
C0
C0
FC
7E
06
06
FE
FC
00
10
10
ENDCHAR
STARTCHAR uni1E63
ENCODING 7779
SWIDTH 499 0
DWIDTH 7 0
BBX 5 10 1 -3
BITMAP
F8
80
C0
F8
08
18
F8
00
20
20
ENDCHAR
STARTCHAR uni1E6C
ENCODING 7788
SWIDTH 582 0
DWIDTH 8 0
BBX 8 13 0 -3
BITMAP
FF
FF
18
18
18
18
18
18
18
18
00
18
18
ENDCHAR
STARTCHAR uni1E6D
ENCODING 7789
SWIDTH 390 0
DWIDTH 5 0
BBX 5 12 0 -3
BITMAP
30
30
F8
30
30
30
30
30
30
00
20
20
ENDCHAR
STARTCHAR Wgrave
ENCODING 7808
SWIDTH 989 0
DWIDTH 14 0
BBX 14 12 0 0
BITMAP
0600
0300
C30C
6318
6798
6798
6798
24B0
3CF0
3CF0
3CF0
1860
ENDCHAR
STARTCHAR wgrave
ENCODING 7809
SWIDTH 832 0
DWIDTH 12 0
BBX 11 10 0 0
BITMAP
0C00
0600
0000
C660
6660
6E60
6F40
2BC0
39C0
3980
ENDCHAR
STARTCHAR Wacute
ENCODING 7810
SWIDTH 989 0
DWIDTH 14 0
BBX 14 12 0 0
BITMAP
0180
0300
C30C
6318
6798
6798
6798
24B0
3CF0
3CF0
3CF0
1860
ENDCHAR
STARTCHAR wacute
ENCODING 7811
SWIDTH 832 0
DWIDTH 12 0
BBX 11 10 0 0
BITMAP
0700
0C00
0000
C660
6660
6E60
6F40
2BC0
39C0
3980
ENDCHAR
STARTCHAR Wdieresis
ENCODING 7812
SWIDTH 989 0
DWIDTH 14 0
BBX 14 12 0 0
BITMAP
0480
0480
C30C
6318
6798
6798
6798
24B0
3CF0
3CF0
3CF0
1860
ENDCHAR
STARTCHAR wdieresis
ENCODING 7813
SWIDTH 832 0
DWIDTH 12 0
BBX 11 10 0 0
BITMAP
0B00
0B00
0000
C660
6660
6E60
6F40
2BC0
39C0
3980
ENDCHAR
STARTCHAR uni1E92
ENCODING 7826
SWIDTH 611 0
DWIDTH 9 0
BBX 7 13 1 -3
BITMAP
FE
FE
0C
1C
18
30
60
E0
FE
FE
00
10
10
ENDCHAR
STARTCHAR uni1E93
ENCODING 7827
SWIDTH 521 0
DWIDTH 7 0
BBX 6 10 1 -3
BITMAP
FC
18
38
70
60
FC
FC
00
20
20
ENDCHAR
STARTCHAR uni1E9E
ENCODING 7838
SWIDTH 725 0
DWIDTH 10 0
BBX 8 10 1 0
BITMAP
3E
7F
C7
CE
CC
CF
C3
C3
DF
DF
ENDCHAR
STARTCHAR uni1EA0
ENCODING 7840
SWIDTH 686 0
DWIDTH 10 0
BBX 9 13 0 -3
BITMAP
1C00
1E00
1E00
3600
3300
3300
7F00
7F80
6180
C180
0000
0C00
0C00
ENDCHAR
STARTCHAR uni1EA1
ENCODING 7841
SWIDTH 565 0
DWIDTH 8 0
BBX 6 10 1 -3
BITMAP
F8
0C
0C
FC
8C
CC
FC
00
30
30
ENDCHAR
STARTCHAR uni1EA2
ENCODING 7842
SWIDTH 686 0
DWIDTH 10 0
BBX 9 13 0 0
BITMAP
1C00
0200
0C00
1C00
1E00
1E00
3600
3300
3300
7F00
7F80
6180
C180
ENDCHAR
STARTCHAR uni1EA3
ENCODING 7843
SWIDTH 565 0
DWIDTH 8 0
BBX 6 11 1 0
BITMAP
78
08
30
00
F8
0C
0C
FC
8C
CC
FC
ENDCHAR
STARTCHAR uni1EA4
ENCODING 7844
SWIDTH 686 0
DWIDTH 10 0
BBX 9 15 0 0
BITMAP
0600
0C00
0000
1C00
1200
1C00
1E00
1E00
3600
3300
3300
7F00
7F80
6180
C180
ENDCHAR
STARTCHAR uni1EA5
ENCODING 7845
SWIDTH 565 0
DWIDTH 8 0
BBX 6 13 1 0
BITMAP
18
30
00
30
48
00
F8
0C
0C
FC
8C
CC
FC
ENDCHAR
STARTCHAR uni1EA6
ENCODING 7846
SWIDTH 686 0
DWIDTH 10 0
BBX 9 15 0 0
BITMAP
3000
1800
0400
1C00
1200
1C00
1E00
1E00
3600
3300
3300
7F00
7F80
6180
C180
ENDCHAR
STARTCHAR uni1EA7
ENCODING 7847
SWIDTH 565 0
DWIDTH 8 0
BBX 6 13 1 0
BITMAP
60
20
10
30
48
00
F8
0C
0C
FC
8C
CC
FC
ENDCHAR
STARTCHAR uni1EA8
ENCODING 7848
SWIDTH 686 0
DWIDTH 10 0
BBX 9 15 0 0
BITMAP
1E00
0600
0800
1C00
1200
1C00
1E00
1E00
3600
3300
3300
7F00
7F80
6180
C180
ENDCHAR
STARTCHAR uni1EA9
ENCODING 7849
SWIDTH 565 0
DWIDTH 8 0
BBX 6 13 1 0
BITMAP
78
18
20
30
48
00
F8
0C
0C
FC
8C
CC
FC
ENDCHAR
STARTCHAR uni1EAA
ENCODING 7850
SWIDTH 686 0
DWIDTH 10 0
BBX 9 15 0 0
BITMAP
1200
3E00
0000
1C00
1200
1C00
1E00
1E00
3600
3300
3300
7F00
7F80
6180
C180
ENDCHAR
STARTCHAR uni1EAB
ENCODING 7851
SWIDTH 565 0
DWIDTH 8 0
BBX 6 13 1 0
BITMAP
44
F8
00
30
48
00
F8
0C
0C
FC
8C
CC
FC
ENDCHAR
STARTCHAR uni1EAC
ENCODING 7852
SWIDTH 686 0
DWIDTH 10 0
BBX 9 15 0 -3
BITMAP
1C00
1200
1C00
1E00
1E00
3600
3300
3300
7F00
7F80
6180
C180
0000
0C00
0C00
ENDCHAR
STARTCHAR uni1EAD
ENCODING 7853
SWIDTH 565 0
DWIDTH 8 0
BBX 6 13 1 -3
BITMAP
30
48
00
F8
0C
0C
FC
8C
CC
FC
00
30
30
ENDCHAR
STARTCHAR uni1EAE
ENCODING 7854
SWIDTH 686 0
DWIDTH 10 0
BBX 9 15 0 0
BITMAP
0600
0C00
0000
1200
1C00
1C00
1E00
1E00
3600
3300
3300
7F00
7F80
6180
C180
ENDCHAR
STARTCHAR uni1EAF
ENCODING 7855
SWIDTH 565 0
DWIDTH 8 0
BBX 6 13 1 0
BITMAP
18
30
00
48
78
00
F8
0C
0C
FC
8C
CC
FC
ENDCHAR
STARTCHAR uni1EB0
ENCODING 7856
SWIDTH 686 0
DWIDTH 10 0
BBX 9 15 0 0
BITMAP
1000
0800
0400
1200
1C00
1C00
1E00
1E00
3600
3300
3300
7F00
7F80
6180
C180
ENDCHAR
STARTCHAR uni1EB1
ENCODING 7857
SWIDTH 565 0
DWIDTH 8 0
BBX 6 13 1 0
BITMAP
60
20
10
48
78
00
F8
0C
0C
FC
8C
CC
FC
ENDCHAR
STARTCHAR uni1EB2
ENCODING 7858
SWIDTH 686 0
DWIDTH 10 0
BBX 9 15 0 0
BITMAP
1E00
0600
0800
1200
1C00
1C00
1E00
1E00
3600
3300
3300
7F00
7F80
6180
C180
ENDCHAR
STARTCHAR uni1EB3
ENCODING 7859
SWIDTH 565 0
DWIDTH 8 0
BBX 6 13 1 0
BITMAP
78
18
20
48
78
00
F8
0C
0C
FC
8C
CC
FC
ENDCHAR
STARTCHAR uni1EB4
ENCODING 7860
SWIDTH 686 0
DWIDTH 10 0
BBX 9 15 0 0
BITMAP
0200
3E00
0000
1200
1C00
1C00
1E00
1E00
3600
3300
3300
7F00
7F80
6180
C180
ENDCHAR
STARTCHAR uni1EB5
ENCODING 7861
SWIDTH 565 0
DWIDTH 8 0
BBX 6 13 1 0
BITMAP
04
F8
00
48
78
00
F8
0C
0C
FC
8C
CC
FC
ENDCHAR
STARTCHAR uni1EB6
ENCODING 7862
SWIDTH 686 0
DWIDTH 10 0
BBX 9 15 0 -3
BITMAP
1200
1C00
1C00
1E00
1E00
3600
3300
3300
7F00
7F80
6180
C180
0000
0C00
0C00
ENDCHAR
STARTCHAR uni1EB7
ENCODING 7863
SWIDTH 565 0
DWIDTH 8 0
BBX 6 13 1 -3
BITMAP
48
78
00
F8
0C
0C
FC
8C
CC
FC
00
30
30
ENDCHAR
STARTCHAR uni1EB8
ENCODING 7864
SWIDTH 607 0
DWIDTH 9 0
BBX 7 13 1 -3
BITMAP
FE
FE
C0
C0
FC
FC
C0
C0
FE
FE
00
10
10
ENDCHAR
STARTCHAR uni1EB9
ENCODING 7865
SWIDTH 557 0
DWIDTH 8 0
BBX 6 10 1 -3
BITMAP
FC
CC
CC
FC
C0
C0
FC
00
30
30
ENDCHAR
STARTCHAR uni1EBA
ENCODING 7866
SWIDTH 607 0
DWIDTH 9 0
BBX 7 13 1 0
BITMAP
38
08
10
FE
FE
C0
C0
FC
FC
C0
C0
FE
FE
ENDCHAR
STARTCHAR uni1EBB
ENCODING 7867
SWIDTH 557 0
DWIDTH 8 0
BBX 6 11 1 0
BITMAP
78
08
30
00
FC
CC
CC
FC
C0
C0
FC
ENDCHAR
STARTCHAR uni1EBC
ENCODING 7868
SWIDTH 607 0
DWIDTH 9 0
BBX 7 12 1 0
BITMAP
7C
4C
FE
FE
C0
C0
FC
FC
C0
C0
FE
FE
ENDCHAR
STARTCHAR uni1EBD
ENCODING 7869
SWIDTH 557 0
DWIDTH 8 0
BBX 6 10 1 0
BITMAP
7C
98
00
FC
CC
CC
FC
C0
C0
FC
ENDCHAR
STARTCHAR uni1EBE
ENCODING 7870
SWIDTH 607 0
DWIDTH 9 0
BBX 7 15 1 0
BITMAP
0C
18
00
38
6C
FE
FE
C0
C0
FC
FC
C0
C0
FE
FE
ENDCHAR
STARTCHAR uni1EBF
ENCODING 7871
SWIDTH 557 0
DWIDTH 8 0
BBX 6 13 1 0
BITMAP
18
30
00
30
48
00
FC
CC
CC
FC
C0
C0
FC
ENDCHAR
STARTCHAR uni1EC0
ENCODING 7872
SWIDTH 607 0
DWIDTH 9 0
BBX 7 15 1 0
BITMAP
60
30
00
38
6C
FE
FE
C0
C0
FC
FC
C0
C0
FE
FE
ENDCHAR
STARTCHAR uni1EC1
ENCODING 7873
SWIDTH 557 0
DWIDTH 8 0
BBX 6 13 1 0
BITMAP
60
20
10
30
48
00
FC
CC
CC
FC
C0
C0
FC
ENDCHAR
STARTCHAR uni1EC2
ENCODING 7874
SWIDTH 607 0
DWIDTH 9 0
BBX 7 15 1 0
BITMAP
38
08
10
38
6C
FE
FE
C0
C0
FC
FC
C0
C0
FE
FE
ENDCHAR
STARTCHAR uni1EC3
ENCODING 7875
SWIDTH 557 0
DWIDTH 8 0
BBX 6 13 1 0
BITMAP
78
18
20
30
48
00
FC
CC
CC
FC
C0
C0
FC
ENDCHAR
STARTCHAR uni1EC4
ENCODING 7876
SWIDTH 607 0
DWIDTH 9 0
BBX 7 15 1 0
BITMAP
24
7C
00
38
6C
FE
FE
C0
C0
FC
FC
C0
C0
FE
FE
ENDCHAR
STARTCHAR uni1EC5
ENCODING 7877
SWIDTH 557 0
DWIDTH 8 0
BBX 6 13 1 0
BITMAP
44
F8
00
30
48
00
FC
CC
CC
FC
C0
C0
FC
ENDCHAR
STARTCHAR uni1EC6
ENCODING 7878
SWIDTH 607 0
DWIDTH 9 0
BBX 7 15 1 -3
BITMAP
38
6C
FE
FE
C0
C0
FC
FC
C0
C0
FE
FE
00
10
10
ENDCHAR
STARTCHAR uni1EC7
ENCODING 7879
SWIDTH 557 0
DWIDTH 8 0
BBX 6 13 1 -3
BITMAP
30
48
00
FC
CC
CC
FC
C0
C0
FC
00
30
30
ENDCHAR
STARTCHAR uni1EC8
ENCODING 7880
SWIDTH 306 0
DWIDTH 4 0
BBX 4 13 0 0
BITMAP
F0
10
60
60
60
60
60
60
60
60
60
60
60
ENDCHAR
STARTCHAR uni1EC9
ENCODING 7881
SWIDTH 275 0
DWIDTH 4 0
BBX 4 11 0 0
BITMAP
F0
10
60
00
60
60
60
60
60
60
60
ENDCHAR
STARTCHAR uni1ECA
ENCODING 7882
SWIDTH 306 0
DWIDTH 4 0
BBX 2 13 1 -3
BITMAP
C0
C0
C0
C0
C0
C0
C0
C0
C0
C0
00
C0
C0
ENDCHAR
STARTCHAR uni1ECB
ENCODING 7883
SWIDTH 275 0
DWIDTH 4 0
BBX 2 13 1 -3
BITMAP
C0
00
00
C0
C0
C0
C0
C0
C0
C0
00
C0
C0
ENDCHAR
STARTCHAR uni1ECC
ENCODING 7884
SWIDTH 707 0
DWIDTH 10 0
BBX 8 13 1 -3
BITMAP
3C
FF
C3
C3
C3
C3
C3
C3
FF
7E
00
18
18
ENDCHAR
STARTCHAR uni1ECD
ENCODING 7885
SWIDTH 574 0
DWIDTH 8 0
BBX 6 10 1 -3
BITMAP
FC
CC
CC
CC
CC
CC
FC
00
30
30
ENDCHAR
STARTCHAR uni1ECE
ENCODING 7886
SWIDTH 707 0
DWIDTH 10 0
BBX 8 13 1 0
BITMAP
3C
04
18
3C
FF
C3
C3
C3
C3
C3
C3
FF
7E
ENDCHAR
STARTCHAR uni1ECF
ENCODING 7887
SWIDTH 574 0
DWIDTH 8 0
BBX 6 11 1 0
BITMAP
78
08
30
00
FC
CC
CC
CC
CC
CC
FC
ENDCHAR
STARTCHAR uni1ED0
ENCODING 7888
SWIDTH 707 0
DWIDTH 10 0
BBX 8 15 1 0
BITMAP
0C
18
00
18
24
3C
FF
C3
C3
C3
C3
C3
C3
FF
7E
ENDCHAR
STARTCHAR uni1ED1
ENCODING 7889
SWIDTH 574 0
DWIDTH 8 0
BBX 6 13 1 0
BITMAP
18
30
00
30
48
00
FC
CC
CC
CC
CC
CC
FC
ENDCHAR
STARTCHAR uni1ED2
ENCODING 7890
SWIDTH 707 0
DWIDTH 10 0
BBX 8 15 1 0
BITMAP
30
10
08
18
24
3C
FF
C3
C3
C3
C3
C3
C3
FF
7E
ENDCHAR
STARTCHAR uni1ED3
ENCODING 7891
SWIDTH 574 0
DWIDTH 8 0
BBX 6 13 1 0
BITMAP
60
30
00
30
48
00
FC
CC
CC
CC
CC
CC
FC
ENDCHAR
STARTCHAR uni1ED4
ENCODING 7892
SWIDTH 707 0
DWIDTH 10 0
BBX 8 15 1 0
BITMAP
3C
0C
10
18
24
3C
FF
C3
C3
C3
C3
C3
C3
FF
7E
ENDCHAR
STARTCHAR uni1ED5
ENCODING 7893
SWIDTH 574 0
DWIDTH 8 0
BBX 6 13 1 0
BITMAP
78
18
20
30
48
00
FC
CC
CC
CC
CC
CC
FC
ENDCHAR
STARTCHAR uni1ED6
ENCODING 7894
SWIDTH 707 0
DWIDTH 10 0
BBX 8 15 1 0
BITMAP
22
7C
00
18
24
3C
FF
C3
C3
C3
C3
C3
C3
FF
7E
ENDCHAR
STARTCHAR uni1ED7
ENCODING 7895
SWIDTH 574 0
DWIDTH 8 0
BBX 6 13 1 0
BITMAP
44
F8
00
30
48
00
FC
CC
CC
CC
CC
CC
FC
ENDCHAR
STARTCHAR uni1ED8
ENCODING 7896
SWIDTH 707 0
DWIDTH 10 0
BBX 8 15 1 -3
BITMAP
18
24
3C
FF
C3
C3
C3
C3
C3
C3
FF
7E
00
18
18
ENDCHAR
STARTCHAR uni1ED9
ENCODING 7897
SWIDTH 574 0
DWIDTH 8 0
BBX 6 13 1 -3
BITMAP
30
48
00
FC
CC
CC
CC
CC
CC
FC
00
30
30
ENDCHAR
STARTCHAR uni1EDA
ENCODING 7898
SWIDTH 707 0
DWIDTH 10 0
BBX 8 12 1 0
BITMAP
0C
19
3F
FF
C3
C3
C3
C3
C3
C3
FF
7E
ENDCHAR
STARTCHAR uni1EDB
ENCODING 7899
SWIDTH 574 0
DWIDTH 8 0
BBX 7 10 1 0
BITMAP
18
20
06
FC
CC
CC
CC
CC
CC
FC
ENDCHAR
STARTCHAR uni1EDC
ENCODING 7900
SWIDTH 707 0
DWIDTH 10 0
BBX 8 12 1 0
BITMAP
30
19
3F
FF
C3
C3
C3
C3
C3
C3
FF
7E
ENDCHAR
STARTCHAR uni1EDD
ENCODING 7901
SWIDTH 574 0
DWIDTH 8 0
BBX 7 10 1 0
BITMAP
60
30
06
FC
CC
CC
CC
CC
CC
FC
ENDCHAR
STARTCHAR uni1EDE
ENCODING 7902
SWIDTH 707 0
DWIDTH 10 0
BBX 8 13 1 0
BITMAP
3C
04
19
3F
FF
C3
C3
C3
C3
C3
C3
FF
7E
ENDCHAR
STARTCHAR uni1EDF
ENCODING 7903
SWIDTH 574 0
DWIDTH 8 0
BBX 7 11 1 0
BITMAP
78
08
30
06
FC
CC
CC
CC
CC
CC
FC
ENDCHAR
STARTCHAR uni1EE0
ENCODING 7904
SWIDTH 707 0
DWIDTH 10 0
BBX 8 12 1 0
BITMAP
3E
4D
3F
FF
C3
C3
C3
C3
C3
C3
FF
7E
ENDCHAR
STARTCHAR uni1EE1
ENCODING 7905
SWIDTH 580 0
DWIDTH 8 0
BBX 7 10 1 0
BITMAP
7C
48
06
FC
CC
CC
CC
CC
CC
FC
ENDCHAR
STARTCHAR uni1EE2
ENCODING 7906
SWIDTH 707 0
DWIDTH 10 0
BBX 8 14 1 -3
BITMAP
01
3F
FF
C3
C3
C3
C3
C3
C3
FF
7E
00
18
18
ENDCHAR
STARTCHAR uni1EE3
ENCODING 7907
SWIDTH 574 0
DWIDTH 8 0
BBX 7 11 1 -3
BITMAP
06
FC
CC
CC
CC
CC
CC
FC
00
30
30
ENDCHAR
STARTCHAR uni1EE4
ENCODING 7908
SWIDTH 698 0
DWIDTH 10 0
BBX 8 13 1 -3
BITMAP
C3
C3
C3
C3
C3
C3
C3
C3
FE
7E
00
18
18
ENDCHAR
STARTCHAR uni1EE5
ENCODING 7909
SWIDTH 593 0
DWIDTH 8 0
BBX 6 10 1 -3
BITMAP
CC
CC
CC
CC
CC
FC
F4
00
30
30
ENDCHAR
STARTCHAR uni1EE6
ENCODING 7910
SWIDTH 698 0
DWIDTH 10 0
BBX 8 13 1 0
BITMAP
3C
04
18
C3
C3
C3
C3
C3
C3
C3
C3
FE
7E
ENDCHAR
STARTCHAR uni1EE7
ENCODING 7911
SWIDTH 593 0
DWIDTH 8 0
BBX 6 11 1 0
BITMAP
78
08
30
00
CC
CC
CC
CC
CC
FC
F4
ENDCHAR
STARTCHAR uni1EE8
ENCODING 7912
SWIDTH 698 0
DWIDTH 10 0
BBX 9 12 1 0
BITMAP
0C00
1880
C380
C300
C300
C300
C300
C300
C300
C300
FE00
7E00
ENDCHAR
STARTCHAR uni1EE9
ENCODING 7913
SWIDTH 593 0
DWIDTH 8 0
BBX 8 10 1 0
BITMAP
18
20
03
CE
CC
CC
CC
CC
FC
F4
ENDCHAR
STARTCHAR uni1EEA
ENCODING 7914
SWIDTH 698 0
DWIDTH 10 0
BBX 9 12 1 0
BITMAP
7000
1880
C380
C300
C300
C300
C300
C300
C300
C300
FE00
7E00
ENDCHAR
STARTCHAR uni1EEB
ENCODING 7915
SWIDTH 593 0
DWIDTH 8 0
BBX 8 10 1 0
BITMAP
60
30
03
CE
CC
CC
CC
CC
FC
F4
ENDCHAR
STARTCHAR uni1EEC
ENCODING 7916
SWIDTH 698 0
DWIDTH 10 0
BBX 9 13 1 0
BITMAP
3C00
0400
1880
C380
C300
C300
C300
C300
C300
C300
C300
FE00
7E00
ENDCHAR
STARTCHAR uni1EED
ENCODING 7917
SWIDTH 593 0
DWIDTH 8 0
BBX 8 11 1 0
BITMAP
78
08
30
03
CE
CC
CC
CC
CC
FC
F4
ENDCHAR
STARTCHAR uni1EEE
ENCODING 7918
SWIDTH 698 0
DWIDTH 10 0
BBX 9 12 1 0
BITMAP
3C00
4C80
C380
C300
C300
C300
C300
C300
C300
C300
FE00
7E00
ENDCHAR
STARTCHAR uni1EEF
ENCODING 7919
SWIDTH 604 0
DWIDTH 8 0
BBX 8 10 1 0
BITMAP
7C
4C
03
CE
CC
CC
CC
CC
FC
F4
ENDCHAR
STARTCHAR uni1EF0
ENCODING 7920
SWIDTH 698 0
DWIDTH 10 0
BBX 9 14 1 -3
BITMAP
0080
C380
C300
C300
C300
C300
C300
C300
C300
FE00
7E00
0000
1800
1800
ENDCHAR
STARTCHAR uni1EF1
ENCODING 7921
SWIDTH 593 0
DWIDTH 8 0
BBX 8 11 1 -3
BITMAP
03
CE
CC
CC
CC
CC
FC
F4
00
30
30
ENDCHAR
STARTCHAR Ygrave
ENCODING 7922
SWIDTH 624 0
DWIDTH 9 0
BBX 9 12 0 0
BITMAP
3000
1800
C180
6300
6300
3600
3400
1C00
1800
1800
1800
1800
ENDCHAR
STARTCHAR ygrave
ENCODING 7923
SWIDTH 593 0
DWIDTH 8 0
BBX 6 13 1 -3
BITMAP
60
30
00
CC
CC
CC
CC
CC
FC
7C
0C
FC
F8
ENDCHAR
STARTCHAR uni1EF4
ENCODING 7924
SWIDTH 624 0
DWIDTH 9 0
BBX 9 13 0 -3
BITMAP
C180
6300
6300
3600
3400
1C00
1800
1800
1800
1800
0000
0800
0800
ENDCHAR
STARTCHAR uni1EF5
ENCODING 7925
SWIDTH 593 0
DWIDTH 8 0
BBX 6 13 1 -6
BITMAP
CC
CC
CC
CC
CC
FC
7C
0C
FC
F8
00
30
30
ENDCHAR
STARTCHAR uni1EF6
ENCODING 7926
SWIDTH 624 0
DWIDTH 9 0
BBX 9 13 0 0
BITMAP
1C00
0400
0800
C180
6300
6300
3600
3400
1C00
1800
1800
1800
1800
ENDCHAR
STARTCHAR uni1EF7
ENCODING 7927
SWIDTH 593 0
DWIDTH 8 0
BBX 6 14 1 -3
BITMAP
78
08
30
00
CC
CC
CC
CC
CC
FC
7C
0C
FC
F8
ENDCHAR
STARTCHAR uni1EF8
ENCODING 7928
SWIDTH 624 0
DWIDTH 9 0
BBX 9 12 0 0
BITMAP
3E00
2600
C180
6300
6300
3600
3400
1C00
1800
1800
1800
1800
ENDCHAR
STARTCHAR uni1EF9
ENCODING 7929
SWIDTH 593 0
DWIDTH 8 0
BBX 6 13 1 -3
BITMAP
7C
58
00
CC
CC
CC
CC
CC
FC
7C
0C
FC
F8
ENDCHAR
STARTCHAR uni2002
ENCODING 8194
SWIDTH 500 0
DWIDTH 7 0
BBX 1 1 0 0
BITMAP
00
ENDCHAR
STARTCHAR uni2003
ENCODING 8195
SWIDTH 1000 0
DWIDTH 14 0
BBX 1 1 0 0
BITMAP
00
ENDCHAR
STARTCHAR uni2004
ENCODING 8196
SWIDTH 333 0
DWIDTH 5 0
BBX 1 1 0 0
BITMAP
00
ENDCHAR
STARTCHAR uni2005
ENCODING 8197
SWIDTH 250 0
DWIDTH 4 0
BBX 1 1 0 0
BITMAP
00
ENDCHAR
STARTCHAR uni2010
ENCODING 8208
SWIDTH 369 0
DWIDTH 5 0
BBX 3 2 1 3
BITMAP
E0
E0
ENDCHAR
STARTCHAR endash
ENCODING 8211
SWIDTH 475 0
DWIDTH 7 0
BBX 5 1 1 4
BITMAP
F8
ENDCHAR
STARTCHAR emdash
ENCODING 8212
SWIDTH 876 0
DWIDTH 12 0
BBX 11 1 1 4
BITMAP
FFE0
ENDCHAR
STARTCHAR underscoredbl
ENCODING 8215
SWIDTH 340 0
DWIDTH 5 0
BBX 5 3 0 -4
BITMAP
F8
F8
F8
ENDCHAR
STARTCHAR quoteleft
ENCODING 8216
SWIDTH 267 0
DWIDTH 4 0
BBX 2 4 1 6
BITMAP
40
80
C0
C0
ENDCHAR
STARTCHAR quoteright
ENCODING 8217
SWIDTH 267 0
DWIDTH 4 0
BBX 2 4 1 6
BITMAP
C0
C0
40
80
ENDCHAR
STARTCHAR quotesinglbase
ENCODING 8218
SWIDTH 267 0
DWIDTH 4 0
BBX 2 4 1 -2
BITMAP
C0
C0
40
80
ENDCHAR
STARTCHAR quotedblleft
ENCODING 8220
SWIDTH 468 0
DWIDTH 7 0
BBX 5 4 1 6
BITMAP
48
90
D8
D8
ENDCHAR
STARTCHAR quotedblright
ENCODING 8221
SWIDTH 468 0
DWIDTH 7 0
BBX 5 4 1 6
BITMAP
D8
D8
58
90
ENDCHAR
STARTCHAR quotedblbase
ENCODING 8222
SWIDTH 468 0
DWIDTH 7 0
BBX 5 4 1 -2
BITMAP
D8
D8
58
90
ENDCHAR
STARTCHAR dagger
ENCODING 8224
SWIDTH 492 0
DWIDTH 7 0
BBX 5 10 1 0
BITMAP
20
20
20
F8
20
20
20
20
20
20
ENDCHAR
STARTCHAR daggerdbl
ENCODING 8225
SWIDTH 492 0
DWIDTH 7 0
BBX 5 10 1 0
BITMAP
20
20
20
F8
20
20
70
F8
20
20
ENDCHAR
STARTCHAR bullet
ENCODING 8226
SWIDTH 385 0
DWIDTH 5 0
BBX 3 3 1 3
BITMAP
E0
E0
E0
ENDCHAR
STARTCHAR ellipsis
ENCODING 8230
SWIDTH 821 0
DWIDTH 12 0
BBX 10 2 1 0
BITMAP
CCC0
CCC0
ENDCHAR
STARTCHAR perthousand
ENCODING 8240
SWIDTH 1003 0
DWIDTH 14 0
BBX 12 10 1 0
BITMAP
E300
A200
A400
AC00
E800
1620
3550
2550
4550
C770
ENDCHAR
STARTCHAR minute
ENCODING 8242
SWIDTH 252 0
DWIDTH 4 0
BBX 2 5 1 5
BITMAP
C0
C0
C0
80
80
ENDCHAR
STARTCHAR second
ENCODING 8243
SWIDTH 437 0
DWIDTH 6 0
BBX 4 5 1 5
BITMAP
D0
D0
F0
B0
B0
ENDCHAR
STARTCHAR guilsinglleft
ENCODING 8249
SWIDTH 309 0
DWIDTH 4 0
BBX 4 6 0 1
BITMAP
30
60
C0
40
20
30
ENDCHAR
STARTCHAR guilsinglright
ENCODING 8250
SWIDTH 309 0
DWIDTH 4 0
BBX 3 6 1 1
BITMAP
80
40
60
40
C0
80
ENDCHAR
STARTCHAR exclamdbl
ENCODING 8252
SWIDTH 541 0
DWIDTH 8 0
BBX 6 10 1 0
BITMAP
DC
DC
CC
CC
C8
C8
C8
00
CC
CC
ENDCHAR
STARTCHAR fraction
ENCODING 8260
SWIDTH 156 0
DWIDTH 2 0
BBX 8 10 -3 0
BITMAP
01
02
04
04
08
18
10
20
60
C0
ENDCHAR
STARTCHAR uni2052
ENCODING 8274
SWIDTH 378 0
DWIDTH 5 0
BBX 5 10 0 0
BITMAP
C8
C8
10
10
30
20
60
40
58
98
ENDCHAR
STARTCHAR uni2070
ENCODING 8304
SWIDTH 383 0
DWIDTH 5 0
BBX 4 5 1 6
BITMAP
F0
90
90
90
F0
ENDCHAR
STARTCHAR uni2074
ENCODING 8308
SWIDTH 369 0
DWIDTH 5 0
BBX 5 5 0 6
BITMAP
20
40
50
F8
10
ENDCHAR
STARTCHAR uni2075
ENCODING 8309
SWIDTH 361 0
DWIDTH 5 0
BBX 4 5 1 6
BITMAP
E0
80
E0
30
E0
ENDCHAR
STARTCHAR uni2076
ENCODING 8310
SWIDTH 378 0
DWIDTH 5 0
BBX 4 5 1 6
BITMAP
F0
80
F0
90
F0
ENDCHAR
STARTCHAR uni2077
ENCODING 8311
SWIDTH 328 0
DWIDTH 5 0
BBX 4 5 0 6
BITMAP
F0
10
20
20
40
ENDCHAR
STARTCHAR uni2078
ENCODING 8312
SWIDTH 392 0
DWIDTH 5 0
BBX 4 5 1 6
BITMAP
F0
90
F0
90
F0
ENDCHAR
STARTCHAR uni2079
ENCODING 8313
SWIDTH 378 0
DWIDTH 5 0
BBX 5 5 0 6
BITMAP
78
C8
78
18
70
ENDCHAR
STARTCHAR uni2080
ENCODING 8320
SWIDTH 383 0
DWIDTH 5 0
BBX 4 5 1 -1
BITMAP
F0
90
90
90
F0
ENDCHAR
STARTCHAR uni2081
ENCODING 8321
SWIDTH 229 0
DWIDTH 3 0
BBX 2 5 0 -1
BITMAP
C0
40
40
40
40
ENDCHAR
STARTCHAR uni2082
ENCODING 8322
SWIDTH 353 0
DWIDTH 5 0
BBX 4 5 0 -1
BITMAP
70
10
70
40
F0
ENDCHAR
STARTCHAR uni2083
ENCODING 8323
SWIDTH 350 0
DWIDTH 5 0
BBX 4 5 0 -1
BITMAP
F0
10
70
10
F0
ENDCHAR
STARTCHAR uni2084
ENCODING 8324
SWIDTH 369 0
DWIDTH 5 0
BBX 5 5 0 -1
BITMAP
20
40
50
F8
10
ENDCHAR
STARTCHAR uni2085
ENCODING 8325
SWIDTH 361 0
DWIDTH 5 0
BBX 4 5 1 -1
BITMAP
E0
80
E0
30
E0
ENDCHAR
STARTCHAR uni2086
ENCODING 8326
SWIDTH 378 0
DWIDTH 5 0
BBX 4 5 1 -1
BITMAP
F0
80
F0
90
F0
ENDCHAR
STARTCHAR uni2087
ENCODING 8327
SWIDTH 328 0
DWIDTH 5 0
BBX 4 5 0 -1
BITMAP
F0
10
20
20
40
ENDCHAR
STARTCHAR uni2088
ENCODING 8328
SWIDTH 392 0
DWIDTH 5 0
BBX 4 5 1 -1
BITMAP
F0
90
F0
90
F0
ENDCHAR
STARTCHAR uni2089
ENCODING 8329
SWIDTH 378 0
DWIDTH 5 0
BBX 5 5 0 -1
BITMAP
78
C8
78
18
70
ENDCHAR
STARTCHAR colonmonetary
ENCODING 8353
SWIDTH 571 0
DWIDTH 8 0
BBX 7 12 1 -1
BITMAP
0A
3E
FE
CE
DC
D4
D4
D4
D4
FC
7C
28
ENDCHAR
STARTCHAR franc
ENCODING 8355
SWIDTH 569 0
DWIDTH 8 0
BBX 7 10 0 0
BITMAP
7E
7E
60
60
60
7E
60
FC
FC
60
ENDCHAR
STARTCHAR lira
ENCODING 8356
SWIDTH 599 0
DWIDTH 8 0
BBX 7 10 1 0
BITMAP
3E
7E
60
60
FC
60
FC
60
FE
FE
ENDCHAR
STARTCHAR uni20A6
ENCODING 8358
SWIDTH 723 0
DWIDTH 10 0
BBX 10 10 0 0
BITMAP
6180
7180
7980
7980
FFC0
FFC0
6780
6380
6380
6180
ENDCHAR
STARTCHAR peseta
ENCODING 8359
SWIDTH 647 0
DWIDTH 9 0
BBX 10 10 0 0
BITMAP
7E00
7F00
6300
FFC0
6300
7F00
7E00
6000
6000
6000
ENDCHAR
STARTCHAR uni20A9
ENCODING 8361
SWIDTH 989 0
DWIDTH 14 0
BBX 14 10 0 0
BITMAP
C30C
6318
6798
6798
6798
FFFC
3CF0
3CF0
3CF0
1860
ENDCHAR
STARTCHAR dong
ENCODING 8363
SWIDTH 566 0
DWIDTH 8 0
BBX 7 10 1 0
BITMAP
3E
3E
0C
FC
CC
CC
CC
DC
FC
FC
ENDCHAR
STARTCHAR Euro
ENCODING 8364
SWIDTH 614 0
DWIDTH 9 0
BBX 8 10 0 0
BITMAP
1F
3F
30
30
FE
30
FE
30
3F
1F
ENDCHAR
STARTCHAR uni20AD
ENCODING 8365
SWIDTH 678 0
DWIDTH 9 0
BBX 9 10 0 0
BITMAP
6180
6300
6700
6600
FF80
FF80
6600
6700
6300
6180
ENDCHAR
STARTCHAR uni20B1
ENCODING 8369
SWIDTH 647 0
DWIDTH 9 0
BBX 10 10 0 0
BITMAP
7E00
7F00
FFC0
6100
FFC0
7F00
7E00
6000
6000
6000
ENDCHAR
STARTCHAR uni20B2
ENCODING 8370
SWIDTH 616 0
DWIDTH 9 0
BBX 7 10 1 0
BITMAP
10
38
FC
D0
DE
DE
D6
FE
7C
10
ENDCHAR
STARTCHAR uni20B5
ENCODING 8373
SWIDTH 571 0
DWIDTH 8 0
BBX 6 12 1 -1
BITMAP
18
3C
FC
D8
D8
D8
D8
D8
D8
FC
7C
18
ENDCHAR
STARTCHAR uni20B9
ENCODING 8377
SWIDTH 606 0
DWIDTH 8 0
BBX 7 10 1 0
BITMAP
FE
FC
0C
FE
0C
FC
E0
70
38
1E
ENDCHAR
STARTCHAR uni20BA
ENCODING 8378
SWIDTH 583 0
DWIDTH 8 0
BBX 8 10 0 0
BITMAP
60
60
60
7C
E0
7C
E3
63
7F
7E
ENDCHAR
STARTCHAR uni20BC
ENCODING 8380
SWIDTH 698 0
DWIDTH 10 0
BBX 8 11 1 0
BITMAP
18
3C
FE
DB
DB
DB
DB
DB
DB
DB
DB
ENDCHAR
STARTCHAR uni20BD
ENCODING 8381
SWIDTH 647 0
DWIDTH 9 0
BBX 9 10 0 0
BITMAP
7E00
7F00
6300
6180
6300
FF00
FE00
6000
FC00
6000
ENDCHAR
STARTCHAR uni2113
ENCODING 8467
SWIDTH 499 0
DWIDTH 7 0
BBX 6 10 0 0
BITMAP
18
3C
6C
6C
6C
78
F0
E0
7C
3C
ENDCHAR
STARTCHAR uni2116
ENCODING 8470
SWIDTH 1058 0
DWIDTH 15 0
BBX 12 10 2 0
BITMAP
8260
8290
C290
C290
A260
9200
8AF0
8A00
8600
8200
ENDCHAR
STARTCHAR trademark
ENCODING 8482
SWIDTH 782 0
DWIDTH 11 0
BBX 9 5 1 5
BITMAP
E880
4D80
4D80
4A80
4A80
ENDCHAR
STARTCHAR uni2126
ENCODING 8486
SWIDTH 709 0
DWIDTH 10 0
BBX 8 10 1 0
BITMAP
3C
FF
C3
C3
C3
C3
C3
C3
E7
E7
ENDCHAR
STARTCHAR estimated
ENCODING 8494
SWIDTH 707 0
DWIDTH 10 0
BBX 8 10 1 0
BITMAP
3C
C3
C3
C3
C3
FC
C0
C1
C1
7E
ENDCHAR
STARTCHAR uni2153
ENCODING 8531
SWIDTH 735 0
DWIDTH 10 0
BBX 10 10 0 0
BITMAP
4100
C200
4600
4400
4800
5BC0
10C0
2180
2040
43C0
ENDCHAR
STARTCHAR uni2154
ENCODING 8532
SWIDTH 859 0
DWIDTH 12 0
BBX 12 10 0 0
BITMAP
70C0
1080
1100
6100
4200
F4E0
0420
08E0
1030
30E0
ENDCHAR
STARTCHAR oneeighth
ENCODING 8539
SWIDTH 777 0
DWIDTH 11 0
BBX 10 10 0 0
BITMAP
4100
C200
4600
4400
4800
5BC0
1240
23C0
2240
43C0
ENDCHAR
STARTCHAR threeeighths
ENCODING 8540
SWIDTH 898 0
DWIDTH 13 0
BBX 12 10 0 0
BITMAP
F0C0
1080
1100
7300
1200
F4F0
0490
08F0
1090
30F0
ENDCHAR
STARTCHAR fiveeighths
ENCODING 8541
SWIDTH 909 0
DWIDTH 13 0
BBX 11 10 1 0
BITMAP
E080
8100
E300
3200
3400
EDE0
0920
11E0
3120
61E0
ENDCHAR
STARTCHAR seveneighths
ENCODING 8542
SWIDTH 832 0
DWIDTH 12 0
BBX 11 10 0 0
BITMAP
F180
1100
3200
2200
6400
49E0
0920
11E0
3120
61E0
ENDCHAR
STARTCHAR arrowleft
ENCODING 8592
SWIDTH 883 0
DWIDTH 12 0
BBX 11 4 1 2
BITMAP
3000
FFE0
6000
1000
ENDCHAR
STARTCHAR arrowup
ENCODING 8593
SWIDTH 395 0
DWIDTH 6 0
BBX 4 11 1 -1
BITMAP
40
40
60
E0
50
40
40
40
40
40
40
ENDCHAR
STARTCHAR arrowright
ENCODING 8594
SWIDTH 883 0
DWIDTH 12 0
BBX 11 4 1 2
BITMAP
0100
FFE0
0180
0200
ENDCHAR
STARTCHAR arrowdown
ENCODING 8595
SWIDTH 395 0
DWIDTH 6 0
BBX 4 11 1 -1
BITMAP
40
40
40
40
40
40
40
D0
E0
60
40
ENDCHAR
STARTCHAR arrowboth
ENCODING 8596
SWIDTH 883 0
DWIDTH 12 0
BBX 11 4 1 2
BITMAP
3100
FFE0
6180
1200
ENDCHAR
STARTCHAR arrowupdn
ENCODING 8597
SWIDTH 395 0
DWIDTH 6 0
BBX 4 11 1 -1
BITMAP
40
40
60
F0
40
40
40
D0
E0
60
40
ENDCHAR
STARTCHAR arrowupdnbse
ENCODING 8616
SWIDTH 395 0
DWIDTH 6 0
BBX 4 13 1 -3
BITMAP
40
40
60
F0
40
40
40
D0
E0
60
40
00
F0
ENDCHAR
STARTCHAR partialdiff
ENCODING 8706
SWIDTH 574 0
DWIDTH 8 0
BBX 6 10 1 0
BITMAP
38
18
0C
FC
CC
CC
CC
CC
CC
FC
ENDCHAR
STARTCHAR uni2206
ENCODING 8710
SWIDTH 687 0
DWIDTH 10 0
BBX 9 10 0 0
BITMAP
1C00
1E00
1E00
3600
3300
3300
6300
6180
7F80
FF80
ENDCHAR
STARTCHAR product
ENCODING 8719
SWIDTH 724 0
DWIDTH 10 0
BBX 8 13 1 -3
BITMAP
FF
FF
C3
C3
C3
C3
C3
C3
C3
C3
C3
C3
C3
ENDCHAR
STARTCHAR summation
ENCODING 8721
SWIDTH 706 0
DWIDTH 10 0
BBX 8 13 1 -3
BITMAP
FF
FF
60
70
38
1C
0E
1C
38
70
60
FF
FF
ENDCHAR
STARTCHAR minus
ENCODING 8722
SWIDTH 540 0
DWIDTH 8 0
BBX 6 1 1 3
BITMAP
FC
ENDCHAR
STARTCHAR uni2215
ENCODING 8725
SWIDTH 378 0
DWIDTH 5 0
BBX 5 10 0 0
BITMAP
08
08
10
10
30
20
60
40
40
80
ENDCHAR
STARTCHAR uni2219
ENCODING 8729
SWIDTH 385 0
DWIDTH 5 0
BBX 3 3 1 3
BITMAP
E0
E0
E0
ENDCHAR
STARTCHAR radical
ENCODING 8730
SWIDTH 679 0
DWIDTH 10 0
BBX 9 12 0 -1
BITMAP
0180
0180
0180
0100
0300
0300
2200
E200
3600
3600
1C00
1C00
ENDCHAR
STARTCHAR infinity
ENCODING 8734
SWIDTH 1037 0
DWIDTH 15 0
BBX 13 6 1 1
BITMAP
3060
FDF0
8718
8618
8718
FDF0
ENDCHAR
STARTCHAR integral
ENCODING 8747
SWIDTH 418 0
DWIDTH 6 0
BBX 5 13 0 -3
BITMAP
18
38
30
30
30
30
30
30
30
30
30
F0
E0
ENDCHAR
STARTCHAR approxequal
ENCODING 8776
SWIDTH 497 0
DWIDTH 7 0
BBX 5 5 1 1
BITMAP
C8
F8
00
F8
98
ENDCHAR
STARTCHAR notequal
ENCODING 8800
SWIDTH 540 0
DWIDTH 8 0
BBX 6 7 1 0
BITMAP
18
FC
FC
20
FC
FC
C0
ENDCHAR
STARTCHAR lessequal
ENCODING 8804
SWIDTH 541 0
DWIDTH 8 0
BBX 6 8 1 0
BITMAP
0C
78
C0
F0
1C
04
00
FC
ENDCHAR
STARTCHAR greaterequal
ENCODING 8805
SWIDTH 541 0
DWIDTH 8 0
BBX 6 8 1 0
BITMAP
C0
78
0C
38
E0
80
00
FC
ENDCHAR
STARTCHAR house
ENCODING 8962
SWIDTH 748 0
DWIDTH 10 0
BBX 9 10 1 0
BITMAP
1800
3C00
6600
C300
8180
8180
8180
8180
8180
FF80
ENDCHAR
STARTCHAR lozenge
ENCODING 9674
SWIDTH 540 0
DWIDTH 8 0
BBX 6 10 1 0
BITMAP
30
70
58
C8
8C
8C
C8
58
70
30
ENDCHAR
STARTCHAR uni27E8
ENCODING 10216
SWIDTH 306 0
DWIDTH 4 0
BBX 4 12 0 -1
BITMAP
30
30
20
60
60
40
C0
40
60
20
30
30
ENDCHAR
STARTCHAR uni27E9
ENCODING 10217
SWIDTH 306 0
DWIDTH 4 0
BBX 4 12 0 -1
BITMAP
C0
40
60
60
20
30
30
20
60
60
40
C0
ENDCHAR
STARTCHAR uniA78B
ENCODING 42891
SWIDTH 271 0
DWIDTH 4 0
BBX 2 6 1 4
BITMAP
C0
C0
C0
C0
C0
80
ENDCHAR
STARTCHAR uniA78C
ENCODING 42892
SWIDTH 254 0
DWIDTH 4 0
BBX 2 6 1 4
BITMAP
C0
C0
C0
C0
80
80
ENDCHAR
STARTCHAR uniE0FF
ENCODING 57599
SWIDTH 841 0
DWIDTH 12 0
BBX 10 10 1 0
BITMAP
FFC0
FFC0
E3C0
C9C0
CCC0
CCC0
CDC0
E1C0
FFC0
FFC0
ENDCHAR
STARTCHAR uniEFFD
ENCODING 61437
SWIDTH 886 0
DWIDTH 12 0
BBX 10 16 1 -1
BITMAP
0400
0400
1E00
0C00
0200
FFC0
FFC0
DA40
DA40
DA40
DA40
DA40
DA40
DA40
7BC0
0400
ENDCHAR
STARTCHAR uniF000
ENCODING 61440
SWIDTH 600 0
DWIDTH 8 0
BBX 1 1 0 0
BITMAP
00
ENDCHAR
STARTCHAR uniF8FF
ENCODING 63743
SWIDTH 841 0
DWIDTH 12 0
BBX 10 10 1 0
BITMAP
FFC0
FFC0
E3C0
C9C0
CCC0
CCC0
CDC0
E1C0
FFC0
FFC0
ENDCHAR
STARTCHAR fi
ENCODING 64257
SWIDTH 679 0
DWIDTH 10 0
BBX 9 10 0 0
BITMAP
3980
3000
3000
F980
3180
3180
3180
3180
3180
3180
ENDCHAR
STARTCHAR fl
ENCODING 64258
SWIDTH 659 0
DWIDTH 9 0
BBX 8 10 0 0
BITMAP
3B
33
33
FB
33
33
33
33
33
33
ENDCHAR
STARTCHAR .notdef
ENCODING -1
SWIDTH 500 0
DWIDTH 7 0
BBX 7 10 0 0
BITMAP
FE
92
AA
C6
8A
92
92
82
92
FE
ENDCHAR
STARTCHAR uni004A0301
ENCODING -1
SWIDTH 695 0
DWIDTH 10 0
BBX 9 12 1 0
BITMAP
6180
C200
C300
C300
C300
C300
C300
C300
C300
C300
CE00
CE00
ENDCHAR
STARTCHAR Y.loclGUA
ENCODING -1
SWIDTH 626 0
DWIDTH 9 0
BBX 7 10 1 0
BITMAP
C6
C6
C6
C6
C6
C6
FE
30
30
30
ENDCHAR
STARTCHAR Yacute.loclGUA
ENCODING -1
SWIDTH 626 0
DWIDTH 9 0
BBX 7 12 1 0
BITMAP
1C
30
C6
C6
C6
C6
C6
C6
FE
30
30
30
ENDCHAR
STARTCHAR Ycircumflex.loclGUA
ENCODING -1
SWIDTH 626 0
DWIDTH 9 0
BBX 7 12 1 0
BITMAP
38
68
C6
C6
C6
C6
C6
C6
FE
30
30
30
ENDCHAR
STARTCHAR Ydieresis.loclGUA
ENCODING -1
SWIDTH 626 0
DWIDTH 9 0
BBX 7 12 1 0
BITMAP
6C
6C
C6
C6
C6
C6
C6
C6
FE
30
30
30
ENDCHAR
STARTCHAR uni1EF4.loclGUA
ENCODING -1
SWIDTH 626 0
DWIDTH 9 0
BBX 7 13 1 -3
BITMAP
C6
C6
C6
C6
C6
C6
FE
30
30
30
00
10
10
ENDCHAR
STARTCHAR Ygrave.loclGUA
ENCODING -1
SWIDTH 626 0
DWIDTH 9 0
BBX 7 12 1 0
BITMAP
60
30
C6
C6
C6
C6
C6
C6
FE
30
30
30
ENDCHAR
STARTCHAR uni1EF6.loclGUA
ENCODING -1
SWIDTH 626 0
DWIDTH 9 0
BBX 7 13 1 0
BITMAP
38
08
10
C6
C6
C6
C6
C6
C6
FE
30
30
30
ENDCHAR
STARTCHAR uni0232.loclGUA
ENCODING -1
SWIDTH 626 0
DWIDTH 9 0
BBX 7 12 1 0
BITMAP
7C
7C
C6
C6
C6
C6
C6
C6
FE
30
30
30
ENDCHAR
STARTCHAR uni1EF8.loclGUA
ENCODING -1
SWIDTH 626 0
DWIDTH 9 0
BBX 7 12 1 0
BITMAP
7C
4C
C6
C6
C6
C6
C6
C6
FE
30
30
30
ENDCHAR
STARTCHAR Cacute.loclPLK
ENCODING -1
SWIDTH 571 0
DWIDTH 8 0
BBX 6 12 1 0
BITMAP
18
10
3C
FC
C0
C0
C0
C0
C0
C0
FC
7C
ENDCHAR
STARTCHAR Nacute.loclPLK
ENCODING -1
SWIDTH 723 0
DWIDTH 10 0
BBX 8 12 1 0
BITMAP
0C
18
C3
E3
F3
F3
DB
DB
CF
C7
C7
C3
ENDCHAR
STARTCHAR Oacute.loclPLK
ENCODING -1
SWIDTH 707 0
DWIDTH 10 0
BBX 8 12 1 0
BITMAP
0C
18
3C
FF
C3
C3
C3
C3
C3
C3
FF
7E
ENDCHAR
STARTCHAR Sacute.loclPLK
ENCODING -1
SWIDTH 620 0
DWIDTH 9 0
BBX 7 12 1 0
BITMAP
18
10
7C
FC
C0
C0
FC
7E
06
06
FE
FC
ENDCHAR
STARTCHAR Zacute.loclPLK
ENCODING -1
SWIDTH 611 0
DWIDTH 9 0
BBX 7 12 1 0
BITMAP
18
10
FE
FE
0C
1C
18
30
60
E0
FE
FE
ENDCHAR
STARTCHAR A.ss01
ENCODING -1
SWIDTH 698 0
DWIDTH 10 0
BBX 8 10 1 0
BITMAP
3C
FE
C3
C3
C3
FF
FF
C3
C3
C3
ENDCHAR
STARTCHAR Aacute.ss01
ENCODING -1
SWIDTH 698 0
DWIDTH 10 0
BBX 8 12 1 0
BITMAP
0C
18
3C
FE
C3
C3
C3
FF
FF
C3
C3
C3
ENDCHAR
STARTCHAR Abreve.ss01
ENCODING -1
SWIDTH 698 0
DWIDTH 10 0
BBX 8 12 1 0
BITMAP
24
38
3C
FE
C3
C3
C3
FF
FF
C3
C3
C3
ENDCHAR
STARTCHAR uni1EAE.ss01
ENCODING -1
SWIDTH 698 0
DWIDTH 10 0
BBX 8 15 1 0
BITMAP
0C
18
00
24
38
3C
FE
C3
C3
C3
FF
FF
C3
C3
C3
ENDCHAR
STARTCHAR uni1EB6.ss01
ENCODING -1
SWIDTH 698 0
DWIDTH 10 0
BBX 8 15 1 -3
BITMAP
24
38
3C
FE
C3
C3
C3
FF
FF
C3
C3
C3
00
18
18
ENDCHAR
STARTCHAR uni1EB0.ss01
ENCODING -1
SWIDTH 698 0
DWIDTH 10 0
BBX 8 15 1 0
BITMAP
30
10
08
24
38
3C
FE
C3
C3
C3
FF
FF
C3
C3
C3
ENDCHAR
STARTCHAR uni1EB2.ss01
ENCODING -1
SWIDTH 698 0
DWIDTH 10 0
BBX 8 15 1 0
BITMAP
3C
0C
10
24
38
3C
FE
C3
C3
C3
FF
FF
C3
C3
C3
ENDCHAR
STARTCHAR uni1EB4.ss01
ENCODING -1
SWIDTH 698 0
DWIDTH 10 0
BBX 8 15 1 0
BITMAP
04
7C
00
24
38
3C
FE
C3
C3
C3
FF
FF
C3
C3
C3
ENDCHAR
STARTCHAR uni01CD.ss01
ENCODING -1
SWIDTH 698 0
DWIDTH 10 0
BBX 8 12 1 0
BITMAP
2C
18
3C
FE
C3
C3
C3
FF
FF
C3
C3
C3
ENDCHAR
STARTCHAR Acircumflex.ss01
ENCODING -1
SWIDTH 698 0
DWIDTH 10 0
BBX 8 12 1 0
BITMAP
18
24
3C
FE
C3
C3
C3
FF
FF
C3
C3
C3
ENDCHAR
STARTCHAR uni1EA4.ss01
ENCODING -1
SWIDTH 698 0
DWIDTH 10 0
BBX 8 15 1 0
BITMAP
0C
18
00
18
24
3C
FE
C3
C3
C3
FF
FF
C3
C3
C3
ENDCHAR
STARTCHAR uni1EAC.ss01
ENCODING -1
SWIDTH 698 0
DWIDTH 10 0
BBX 8 15 1 -3
BITMAP
18
24
3C
FE
C3
C3
C3
FF
FF
C3
C3
C3
00
18
18
ENDCHAR
STARTCHAR uni1EA6.ss01
ENCODING -1
SWIDTH 698 0
DWIDTH 10 0
BBX 8 15 1 0
BITMAP
60
10
08
18
24
3C
FE
C3
C3
C3
FF
FF
C3
C3
C3
ENDCHAR
STARTCHAR uni1EA8.ss01
ENCODING -1
SWIDTH 698 0
DWIDTH 10 0
BBX 8 15 1 0
BITMAP
3C
0C
10
18
24
3C
FE
C3
C3
C3
FF
FF
C3
C3
C3
ENDCHAR
STARTCHAR uni1EAA.ss01
ENCODING -1
SWIDTH 698 0
DWIDTH 10 0
BBX 8 15 1 0
BITMAP
24
7C
00
18
24
3C
FE
C3
C3
C3
FF
FF
C3
C3
C3
ENDCHAR
STARTCHAR uni0200.ss01
ENCODING -1
SWIDTH 698 0
DWIDTH 10 0
BBX 8 12 1 0
BITMAP
58
24
3C
FE
C3
C3
C3
FF
FF
C3
C3
C3
ENDCHAR
STARTCHAR Adieresis.ss01
ENCODING -1
SWIDTH 698 0
DWIDTH 10 0
BBX 8 12 1 0
BITMAP
24
24
3C
FE
C3
C3
C3
FF
FF
C3
C3
C3
ENDCHAR
STARTCHAR uni1EA0.ss01
ENCODING -1
SWIDTH 698 0
DWIDTH 10 0
BBX 8 13 1 -3
BITMAP
3C
FE
C3
C3
C3
FF
FF
C3
C3
C3
00
18
18
ENDCHAR
STARTCHAR Agrave.ss01
ENCODING -1
SWIDTH 698 0
DWIDTH 10 0
BBX 8 12 1 0
BITMAP
70
18
3C
FE
C3
C3
C3
FF
FF
C3
C3
C3
ENDCHAR
STARTCHAR uni1EA2.ss01
ENCODING -1
SWIDTH 698 0
DWIDTH 10 0
BBX 8 13 1 0
BITMAP
3C
04
18
3C
FE
C3
C3
C3
FF
FF
C3
C3
C3
ENDCHAR
STARTCHAR uni0202.ss01
ENCODING -1
SWIDTH 698 0
DWIDTH 10 0
BBX 8 12 1 0
BITMAP
3C
24
3C
FE
C3
C3
C3
FF
FF
C3
C3
C3
ENDCHAR
STARTCHAR Amacron.ss01
ENCODING -1
SWIDTH 698 0
DWIDTH 10 0
BBX 8 12 1 0
BITMAP
3C
3C
3C
FE
C3
C3
C3
FF
FF
C3
C3
C3
ENDCHAR
STARTCHAR Aogonek.ss01
ENCODING -1
SWIDTH 698 0
DWIDTH 10 0
BBX 8 13 1 -3
BITMAP
3C
FE
C3
C3
C3
FF
FF
C3
C3
C3
02
06
03
ENDCHAR
STARTCHAR Aring.ss01
ENCODING -1
SWIDTH 698 0
DWIDTH 10 0
BBX 8 13 1 0
BITMAP
3C
24
3C
3C
FE
C3
C3
C3
FF
FF
C3
C3
C3
ENDCHAR
STARTCHAR Aringacute.ss01
ENCODING -1
SWIDTH 698 0
DWIDTH 10 0
BBX 8 16 1 0
BITMAP
0C
18
00
3C
24
3C
3C
FE
C3
C3
C3
FF
FF
C3
C3
C3
ENDCHAR
STARTCHAR Atilde.ss01
ENCODING -1
SWIDTH 698 0
DWIDTH 10 0
BBX 8 12 1 0
BITMAP
3C
4C
3C
FE
C3
C3
C3
FF
FF
C3
C3
C3
ENDCHAR
STARTCHAR G.ss01
ENCODING -1
SWIDTH 688 0
DWIDTH 10 0
BBX 8 10 1 0
BITMAP
3E
7E
C0
C0
CF
CF
C3
C3
FF
7E
ENDCHAR
STARTCHAR uni01F4.ss01
ENCODING -1
SWIDTH 688 0
DWIDTH 10 0
BBX 8 12 1 0
BITMAP
0C
10
3E
7E
C0
C0
CF
CF
C3
C3
FF
7E
ENDCHAR
STARTCHAR Gbreve.ss01
ENCODING -1
SWIDTH 688 0
DWIDTH 10 0
BBX 8 12 1 0
BITMAP
24
38
3E
7E
C0
C0
CF
CF
C3
C3
FF
7E
ENDCHAR
STARTCHAR Gcaron.ss01
ENCODING -1
SWIDTH 688 0
DWIDTH 10 0
BBX 8 12 1 0
BITMAP
2C
18
3E
7E
C0
C0
CF
CF
C3
C3
FF
7E
ENDCHAR
STARTCHAR Gcircumflex.ss01
ENCODING -1
SWIDTH 688 0
DWIDTH 10 0
BBX 8 12 1 0
BITMAP
38
24
3E
7E
C0
C0
CF
CF
C3
C3
FF
7E
ENDCHAR
STARTCHAR uni0122.ss01
ENCODING -1
SWIDTH 688 0
DWIDTH 10 0
BBX 8 14 1 -4
BITMAP
3E
7E
C0
C0
CF
CF
C3
C3
FF
7E
00
18
18
18
ENDCHAR
STARTCHAR Gdotaccent.ss01
ENCODING -1
SWIDTH 688 0
DWIDTH 10 0
BBX 8 12 1 0
BITMAP
18
18
3E
7E
C0
C0
CF
CF
C3
C3
FF
7E
ENDCHAR
STARTCHAR R.ss01
ENCODING -1
SWIDTH 681 0
DWIDTH 10 0
BBX 8 10 1 0
BITMAP
FC
FE
C3
C3
C6
FC
C6
C3
C3
C3
ENDCHAR
STARTCHAR Racute.ss01
ENCODING -1
SWIDTH 681 0
DWIDTH 10 0
BBX 8 12 1 0
BITMAP
0C
10
FC
FE
C3
C3
C6
FC
C6
C3
C3
C3
ENDCHAR
STARTCHAR Rcaron.ss01
ENCODING -1
SWIDTH 681 0
DWIDTH 10 0
BBX 8 12 1 0
BITMAP
2C
18
FC
FE
C3
C3
C6
FC
C6
C3
C3
C3
ENDCHAR
STARTCHAR uni0156.ss01
ENCODING -1
SWIDTH 681 0
DWIDTH 10 0
BBX 8 14 1 -4
BITMAP
FC
FE
C3
C3
C6
FC
C6
C3
C3
C3
00
18
18
18
ENDCHAR
STARTCHAR uni0210.ss01
ENCODING -1
SWIDTH 681 0
DWIDTH 10 0
BBX 8 12 1 0
BITMAP
D8
2C
FC
FE
C3
C3
C6
FC
C6
C3
C3
C3
ENDCHAR
STARTCHAR uni1E5A.ss01
ENCODING -1
SWIDTH 681 0
DWIDTH 10 0
BBX 8 13 1 -3
BITMAP
FC
FE
C3
C3
C6
FC
C6
C3
C3
C3
00
18
18
ENDCHAR
STARTCHAR uni0212.ss01
ENCODING -1
SWIDTH 681 0
DWIDTH 10 0
BBX 8 12 1 0
BITMAP
3C
24
FC
FE
C3
C3
C6
FC
C6
C3
C3
C3
ENDCHAR
STARTCHAR i.loclTRK
ENCODING -1
SWIDTH 275 0
DWIDTH 4 0
BBX 2 10 1 0
BITMAP
C0
00
00
C0
C0
C0
C0
C0
C0
C0
ENDCHAR
STARTCHAR uni006A0301
ENCODING -1
SWIDTH 275 0
DWIDTH 4 0
BBX 4 13 0 -3
BITMAP
70
40
00
60
60
60
60
60
60
60
60
E0
C0
ENDCHAR
STARTCHAR y.loclGUA
ENCODING -1
SWIDTH 541 0
DWIDTH 8 0
BBX 7 10 0 -3
BITMAP
C6
66
64
6C
3C
3C
38
18
18
30
ENDCHAR
STARTCHAR yacute.loclGUA
ENCODING -1
SWIDTH 541 0
DWIDTH 8 0
BBX 7 13 0 -3
BITMAP
1C
30
00
C6
66
64
6C
3C
3C
38
18
18
30
ENDCHAR
STARTCHAR ycircumflex.loclGUA
ENCODING -1
SWIDTH 541 0
DWIDTH 8 0
BBX 7 13 0 -3
BITMAP
38
24
00
C6
66
64
6C
3C
3C
38
18
18
30
ENDCHAR
STARTCHAR ydieresis.loclGUA
ENCODING -1
SWIDTH 541 0
DWIDTH 8 0
BBX 7 13 0 -3
BITMAP
2C
2C
00
C6
66
64
6C
3C
3C
38
18
18
30
ENDCHAR
STARTCHAR uni1EF5.loclGUA
ENCODING -1
SWIDTH 541 0
DWIDTH 8 0
BBX 7 10 0 -3
BITMAP
C6
66
64
6C
3C
3C
38
18
1A
32
ENDCHAR
STARTCHAR ygrave.loclGUA
ENCODING -1
SWIDTH 541 0
DWIDTH 8 0
BBX 7 13 0 -3
BITMAP
30
18
00
C6
66
64
6C
3C
3C
38
18
18
30
ENDCHAR
STARTCHAR uni1EF7.loclGUA
ENCODING -1
SWIDTH 541 0
DWIDTH 8 0
BBX 7 14 0 -3
BITMAP
38
04
18
00
C6
66
64
6C
3C
3C
38
18
18
30
ENDCHAR
STARTCHAR uni0233.loclGUA
ENCODING -1
SWIDTH 541 0
DWIDTH 8 0
BBX 7 13 0 -3
BITMAP
3C
3C
00
C6
66
64
6C
3C
3C
38
18
18
30
ENDCHAR
STARTCHAR uni1EF9.loclGUA
ENCODING -1
SWIDTH 541 0
DWIDTH 8 0
BBX 7 13 0 -3
BITMAP
7C
4C
00
C6
66
64
6C
3C
3C
38
18
18
30
ENDCHAR
STARTCHAR cacute.loclPLK
ENCODING -1
SWIDTH 462 0
DWIDTH 6 0
BBX 5 10 1 0
BITMAP
18
30
00
F8
C0
C0
C0
C0
C0
F8
ENDCHAR
STARTCHAR nacute.loclPLK
ENCODING -1
SWIDTH 593 0
DWIDTH 8 0
BBX 6 10 1 0
BITMAP
18
10
00
FC
CC
CC
CC
CC
CC
CC
ENDCHAR
STARTCHAR oacute.loclPLK
ENCODING -1
SWIDTH 574 0
DWIDTH 8 0
BBX 6 10 1 0
BITMAP
18
10
00
FC
CC
CC
CC
CC
CC
FC
ENDCHAR
STARTCHAR sacute.loclPLK
ENCODING -1
SWIDTH 499 0
DWIDTH 7 0
BBX 5 10 1 0
BITMAP
18
30
00
F8
80
C0
F8
08
18
F8
ENDCHAR
STARTCHAR zacute.loclPLK
ENCODING -1
SWIDTH 521 0
DWIDTH 7 0
BBX 6 10 1 0
BITMAP
18
10
00
FC
18
38
70
60
FC
FC
ENDCHAR
STARTCHAR f_f
ENCODING -1
SWIDTH 739 0
DWIDTH 10 0
BBX 10 10 0 0
BITMAP
39C0
3300
3300
FFC0
3300
3300
3300
3300
3300
3300
ENDCHAR
STARTCHAR f_f_i
ENCODING -1
SWIDTH 1014 0
DWIDTH 14 0
BBX 13 10 0 0
BITMAP
39D8
3300
3300
FFD8
3318
3318
3318
3318
3318
3318
ENDCHAR
STARTCHAR f_f_l
ENCODING -1
SWIDTH 994 0
DWIDTH 14 0
BBX 13 10 0 0
BITMAP
39D8
3318
3318
FFD8
3318
3318
3318
3318
3318
3318
ENDCHAR
STARTCHAR zero.zero
ENCODING -1
SWIDTH 666 0
DWIDTH 9 0
BBX 7 10 1 0
BITMAP
7C
FE
C6
C6
FE
FE
C6
C6
FE
7E
ENDCHAR
STARTCHAR zero.lf
ENCODING -1
SWIDTH 666 0
DWIDTH 9 0
BBX 7 10 1 0
BITMAP
7C
FE
C6
C6
C6
C6
C6
C6
FE
7E
ENDCHAR
STARTCHAR one.lf
ENCODING -1
SWIDTH 389 0
DWIDTH 5 0
BBX 4 10 0 0
BITMAP
10
70
F0
30
30
30
30
30
30
30
ENDCHAR
STARTCHAR two.lf
ENCODING -1
SWIDTH 611 0
DWIDTH 9 0
BBX 7 10 1 0
BITMAP
F8
FC
06
06
1C
78
E0
C0
FE
FE
ENDCHAR
STARTCHAR three.lf
ENCODING -1
SWIDTH 607 0
DWIDTH 9 0
BBX 7 10 1 0
BITMAP
F8
FC
0E
0C
7C
7C
0E
06
FC
FC
ENDCHAR
STARTCHAR four.lf
ENCODING -1
SWIDTH 647 0
DWIDTH 9 0
BBX 8 10 1 0
BITMAP
18
38
30
60
64
CC
FF
FF
0C
0C
ENDCHAR
STARTCHAR five.lf
ENCODING -1
SWIDTH 623 0
DWIDTH 9 0
BBX 7 10 1 0
BITMAP
FC
FC
C0
C0
FC
FE
06
06
FE
FC
ENDCHAR
STARTCHAR six.lf
ENCODING -1
SWIDTH 664 0
DWIDTH 9 0
BBX 7 10 1 0
BITMAP
3E
FE
C0
C0
FE
FE
C2
C2
FE
7E
ENDCHAR
STARTCHAR seven.lf
ENCODING -1
SWIDTH 569 0
DWIDTH 8 0
BBX 7 10 0 0
BITMAP
FE
FE
06
06
0C
0C
18
18
30
30
ENDCHAR
STARTCHAR eight.lf
ENCODING -1
SWIDTH 682 0
DWIDTH 10 0
BBX 8 10 1 0
BITMAP
3C
FE
C3
C3
FE
7E
C3
C3
FF
7E
ENDCHAR
STARTCHAR nine.lf
ENCODING -1
SWIDTH 664 0
DWIDTH 9 0
BBX 7 10 1 0
BITMAP
7C
FE
C6
C6
C6
FE
06
06
FE
FC
ENDCHAR
STARTCHAR zero.osf
ENCODING -1
SWIDTH 620 0
DWIDTH 9 0
BBX 7 8 1 0
BITMAP
FC
C6
C6
C6
C6
C6
CE
7C
ENDCHAR
STARTCHAR one.osf
ENCODING -1
SWIDTH 620 0
DWIDTH 9 0
BBX 7 8 1 0
BITMAP
38
78
98
18
18
18
18
FE
ENDCHAR
STARTCHAR two.osf
ENCODING -1
SWIDTH 620 0
DWIDTH 9 0
BBX 6 8 1 0
BITMAP
FC
0C
04
1C
70
C0
FC
FC
ENDCHAR
STARTCHAR three.osf
ENCODING -1
SWIDTH 620 0
DWIDTH 9 0
BBX 6 8 1 0
BITMAP
FC
0C
0C
3C
3C
0C
8C
FC
ENDCHAR
STARTCHAR four.osf
ENCODING -1
SWIDTH 620 0
DWIDTH 9 0
BBX 7 8 1 0
BITMAP
38
30
60
6C
CC
FE
0C
0C
ENDCHAR
STARTCHAR five.osf
ENCODING -1
SWIDTH 620 0
DWIDTH 9 0
BBX 7 8 1 0
BITMAP
FC
C0
C0
FC
8E
06
8C
FC
ENDCHAR
STARTCHAR six.osf
ENCODING -1
SWIDTH 620 0
DWIDTH 9 0
BBX 7 8 1 0
BITMAP
7C
C0
C0
FC
C6
C6
C6
7C
ENDCHAR
STARTCHAR seven.osf
ENCODING -1
SWIDTH 620 0
DWIDTH 9 0
BBX 7 8 1 0
BITMAP
FE
06
0C
08
18
30
30
60
ENDCHAR
STARTCHAR eight.osf
ENCODING -1
SWIDTH 620 0
DWIDTH 9 0
BBX 7 8 1 0
BITMAP
FC
C6
C6
7C
FE
C6
C6
7C
ENDCHAR
STARTCHAR nine.osf
ENCODING -1
SWIDTH 620 0
DWIDTH 9 0
BBX 7 8 1 0
BITMAP
FC
C6
C6
FE
7E
06
8C
FC
ENDCHAR
STARTCHAR four.ss01
ENCODING -1
SWIDTH 649 0
DWIDTH 9 0
BBX 8 10 1 0
BITMAP
1C
1C
3C
6C
6C
CC
FF
FF
0C
0C
ENDCHAR
STARTCHAR six.ss01
ENCODING -1
SWIDTH 651 0
DWIDTH 9 0
BBX 7 10 1 0
BITMAP
1C
38
70
60
FC
FE
C6
C2
EE
7C
ENDCHAR
STARTCHAR nine.ss01
ENCODING -1
SWIDTH 651 0
DWIDTH 9 0
BBX 7 10 1 0
BITMAP
7C
FE
C6
C6
C6
FE
0E
0C
18
70
ENDCHAR
STARTCHAR zero.tf
ENCODING -1
SWIDTH 620 0
DWIDTH 9 0
BBX 7 10 1 0
BITMAP
7C
FE
C6
C6
C6
C6
C6
C6
FE
FC
ENDCHAR
STARTCHAR one.tf
ENCODING -1
SWIDTH 620 0
DWIDTH 9 0
BBX 7 10 1 0
BITMAP
18
78
F8
18
18
18
18
18
FE
FE
ENDCHAR
STARTCHAR two.tf
ENCODING -1
SWIDTH 620 0
DWIDTH 9 0
BBX 7 10 1 0
BITMAP
F8
FE
06
06
1E
7C
E0
C0
FE
FE
ENDCHAR
STARTCHAR three.tf
ENCODING -1
SWIDTH 620 0
DWIDTH 9 0
BBX 7 10 1 0
BITMAP
F8
FC
06
06
3C
3C
06
06
FE
FC
ENDCHAR
STARTCHAR four.tf
ENCODING -1
SWIDTH 620 0
DWIDTH 9 0
BBX 8 10 0 0
BITMAP
0C
18
18
30
32
66
FF
FF
06
06
ENDCHAR
STARTCHAR five.tf
ENCODING -1
SWIDTH 620 0
DWIDTH 9 0
BBX 7 10 1 0
BITMAP
FC
FC
C0
C0
FC
FE
06
06
FE
FC
ENDCHAR
STARTCHAR six.tf
ENCODING -1
SWIDTH 620 0
DWIDTH 9 0
BBX 7 10 1 0
BITMAP
3C
FE
C0
C0
FC
FE
C6
C6
FE
7C
ENDCHAR
STARTCHAR seven.tf
ENCODING -1
SWIDTH 620 0
DWIDTH 9 0
BBX 7 10 1 0
BITMAP
FE
FE
0E
0C
0C
18
18
30
30
60
ENDCHAR
STARTCHAR eight.tf
ENCODING -1
SWIDTH 620 0
DWIDTH 9 0
BBX 8 10 0 0
BITMAP
3E
7F
63
63
7F
7F
63
C3
7F
7E
ENDCHAR
STARTCHAR nine.tf
ENCODING -1
SWIDTH 620 0
DWIDTH 9 0
BBX 7 10 1 0
BITMAP
7C
FE
C6
86
C6
FE
06
06
FE
FC
ENDCHAR
STARTCHAR zero.tosf
ENCODING -1
SWIDTH 620 0
DWIDTH 9 0
BBX 7 8 1 0
BITMAP
FC
C6
C6
C6
C6
C6
CE
7C
ENDCHAR
STARTCHAR one.tosf
ENCODING -1
SWIDTH 620 0
DWIDTH 9 0
BBX 7 8 1 0
BITMAP
38
78
98
18
18
18
18
FE
ENDCHAR
STARTCHAR two.tosf
ENCODING -1
SWIDTH 620 0
DWIDTH 9 0
BBX 6 8 1 0
BITMAP
FC
0C
04
1C
70
C0
FC
FC
ENDCHAR
STARTCHAR three.tosf
ENCODING -1
SWIDTH 620 0
DWIDTH 9 0
BBX 6 8 1 0
BITMAP
FC
0C
0C
3C
3C
0C
8C
FC
ENDCHAR
STARTCHAR four.tosf
ENCODING -1
SWIDTH 620 0
DWIDTH 9 0
BBX 7 8 1 0
BITMAP
38
30
60
6C
CC
FE
0C
0C
ENDCHAR
STARTCHAR five.tosf
ENCODING -1
SWIDTH 620 0
DWIDTH 9 0
BBX 7 8 1 0
BITMAP
FC
C0
C0
FC
8E
06
8C
FC
ENDCHAR
STARTCHAR six.tosf
ENCODING -1
SWIDTH 620 0
DWIDTH 9 0
BBX 7 8 1 0
BITMAP
7C
C0
C0
FC
C6
C6
C6
7C
ENDCHAR
STARTCHAR seven.tosf
ENCODING -1
SWIDTH 620 0
DWIDTH 9 0
BBX 7 8 1 0
BITMAP
FE
06
0C
08
18
30
30
60
ENDCHAR
STARTCHAR eight.tosf
ENCODING -1
SWIDTH 620 0
DWIDTH 9 0
BBX 7 8 1 0
BITMAP
FC
C6
C6
7C
FE
C6
C6
7C
ENDCHAR
STARTCHAR nine.tosf
ENCODING -1
SWIDTH 620 0
DWIDTH 9 0
BBX 7 8 1 0
BITMAP
FC
C6
C6
FE
7E
06
8C
FC
ENDCHAR
STARTCHAR zero.lf.zero
ENCODING -1
SWIDTH 666 0
DWIDTH 9 0
BBX 7 10 1 0
BITMAP
7C
FE
C6
C6
FE
FE
C6
C6
FE
7E
ENDCHAR
STARTCHAR zero.osf.zero
ENCODING -1
SWIDTH 620 0
DWIDTH 9 0
BBX 7 8 1 0
BITMAP
FC
C6
C6
FE
FE
C6
CE
7C
ENDCHAR
STARTCHAR zero.tf.zero
ENCODING -1
SWIDTH 620 0
DWIDTH 9 0
BBX 7 10 1 0
BITMAP
7C
FE
C6
C6
FE
FE
C6
C6
FE
FC
ENDCHAR
STARTCHAR zero.tosf.zero
ENCODING -1
SWIDTH 620 0
DWIDTH 9 0
BBX 7 8 1 0
BITMAP
FC
C6
C6
FE
FE
C6
CE
7C
ENDCHAR
STARTCHAR zero.dnom
ENCODING -1
SWIDTH 383 0
DWIDTH 5 0
BBX 4 5 1 0
BITMAP
F0
90
90
90
F0
ENDCHAR
STARTCHAR one.dnom
ENCODING -1
SWIDTH 229 0
DWIDTH 3 0
BBX 2 5 0 0
BITMAP
C0
40
40
40
40
ENDCHAR
STARTCHAR two.dnom
ENCODING -1
SWIDTH 353 0
DWIDTH 5 0
BBX 4 5 0 0
BITMAP
70
10
70
40
F0
ENDCHAR
STARTCHAR three.dnom
ENCODING -1
SWIDTH 350 0
DWIDTH 5 0
BBX 4 5 0 0
BITMAP
F0
10
70
10
F0
ENDCHAR
STARTCHAR four.dnom
ENCODING -1
SWIDTH 369 0
DWIDTH 5 0
BBX 5 5 0 0
BITMAP
20
40
50
F8
10
ENDCHAR
STARTCHAR five.dnom
ENCODING -1
SWIDTH 361 0
DWIDTH 5 0
BBX 4 5 1 0
BITMAP
E0
80
E0
30
E0
ENDCHAR
STARTCHAR six.dnom
ENCODING -1
SWIDTH 378 0
DWIDTH 5 0
BBX 4 5 1 0
BITMAP
F0
80
F0
90
F0
ENDCHAR
STARTCHAR seven.dnom
ENCODING -1
SWIDTH 328 0
DWIDTH 5 0
BBX 4 5 0 0
BITMAP
F0
10
20
20
40
ENDCHAR
STARTCHAR eight.dnom
ENCODING -1
SWIDTH 392 0
DWIDTH 5 0
BBX 4 5 1 0
BITMAP
F0
90
F0
90
F0
ENDCHAR
STARTCHAR nine.dnom
ENCODING -1
SWIDTH 378 0
DWIDTH 5 0
BBX 5 5 0 0
BITMAP
78
C8
78
18
70
ENDCHAR
STARTCHAR zero.numr
ENCODING -1
SWIDTH 383 0
DWIDTH 5 0
BBX 4 6 1 4
BITMAP
E0
B0
90
90
90
E0
ENDCHAR
STARTCHAR one.numr
ENCODING -1
SWIDTH 229 0
DWIDTH 3 0
BBX 2 6 0 4
BITMAP
40
C0
40
40
40
40
ENDCHAR
STARTCHAR two.numr
ENCODING -1
SWIDTH 353 0
DWIDTH 5 0
BBX 4 6 0 4
BITMAP
70
10
10
60
40
F0
ENDCHAR
STARTCHAR three.numr
ENCODING -1
SWIDTH 350 0
DWIDTH 5 0
BBX 4 6 0 4
BITMAP
F0
10
10
70
10
F0
ENDCHAR
STARTCHAR four.numr
ENCODING -1
SWIDTH 369 0
DWIDTH 5 0
BBX 5 6 0 4
BITMAP
20
20
50
D0
F8
10
ENDCHAR
STARTCHAR five.numr
ENCODING -1
SWIDTH 361 0
DWIDTH 5 0
BBX 4 6 1 4
BITMAP
E0
80
E0
30
30
E0
ENDCHAR
STARTCHAR six.numr
ENCODING -1
SWIDTH 378 0
DWIDTH 5 0
BBX 4 6 1 4
BITMAP
70
80
E0
90
90
E0
ENDCHAR
STARTCHAR seven.numr
ENCODING -1
SWIDTH 328 0
DWIDTH 5 0
BBX 4 6 0 4
BITMAP
F0
10
30
20
60
40
ENDCHAR
STARTCHAR eight.numr
ENCODING -1
SWIDTH 392 0
DWIDTH 5 0
BBX 4 6 1 4
BITMAP
E0
90
B0
F0
90
E0
ENDCHAR
STARTCHAR nine.numr
ENCODING -1
SWIDTH 378 0
DWIDTH 5 0
BBX 5 6 0 4
BITMAP
70
D8
D8
68
18
70
ENDCHAR
STARTCHAR exclam.case
ENCODING -1
SWIDTH 303 0
DWIDTH 4 0
BBX 2 10 1 0
BITMAP
C0
C0
C0
C0
C0
C0
C0
00
C0
C0
ENDCHAR
STARTCHAR exclamdown.case
ENCODING -1
SWIDTH 290 0
DWIDTH 4 0
BBX 2 9 1 0
BITMAP
C0
C0
00
C0
C0
C0
C0
C0
C0
ENDCHAR
STARTCHAR question.case
ENCODING -1
SWIDTH 511 0
DWIDTH 7 0
BBX 5 10 1 0
BITMAP
F0
F8
18
18
38
60
60
00
60
60
ENDCHAR
STARTCHAR questiondown.case
ENCODING -1
SWIDTH 511 0
DWIDTH 7 0
BBX 6 10 1 -1
BITMAP
30
30
00
10
30
E0
C0
C0
FC
38
ENDCHAR
STARTCHAR periodcentered.loclCAT
ENCODING -1
SWIDTH 124 0
DWIDTH 2 0
BBX 2 2 0 3
BITMAP
C0
C0
ENDCHAR
STARTCHAR exclam.ss02
ENCODING -1
SWIDTH 794 0
DWIDTH 11 0
BBX 9 10 1 0
BITMAP
1C00
6300
8880
8880
8880
8880
8080
8880
4100
3E00
ENDCHAR
STARTCHAR bullet.ss02
ENCODING -1
SWIDTH 783 0
DWIDTH 11 0
BBX 9 10 1 0
BITMAP
0800
1400
1400
1C00
E380
A280
6B00
1400
1400
0800
ENDCHAR
STARTCHAR asterisk.ss02
ENCODING -1
SWIDTH 817 0
DWIDTH 11 0
BBX 11 10 0 0
BITMAP
0400
0400
0400
8600
7FE0
1F80
0F00
1F00
1900
3080
ENDCHAR
STARTCHAR periodcentered.loclCAT.case
ENCODING -1
SWIDTH 124 0
DWIDTH 2 0
BBX 2 2 0 3
BITMAP
C0
C0
ENDCHAR
STARTCHAR parenleft.ss02
ENCODING -1
SWIDTH 397 0
DWIDTH 6 0
BBX 5 10 1 0
BITMAP
18
78
F8
F8
F8
F8
F8
F8
78
38
ENDCHAR
STARTCHAR parenright.ss02
ENCODING -1
SWIDTH 397 0
DWIDTH 6 0
BBX 5 10 0 0
BITMAP
C0
E0
F0
F8
F8
F8
F8
F0
F0
C0
ENDCHAR
STARTCHAR bracketleft.ss02
ENCODING -1
SWIDTH 397 0
DWIDTH 6 0
BBX 5 10 1 0
BITMAP
18
78
F8
F8
F8
F8
F8
F8
F8
F8
ENDCHAR
STARTCHAR bracketright.ss02
ENCODING -1
SWIDTH 397 0
DWIDTH 6 0
BBX 5 10 0 0
BITMAP
C0
E0
F0
F8
F8
F8
F8
F8
F8
F8
ENDCHAR
STARTCHAR bar.ss02
ENCODING -1
SWIDTH 498 0
DWIDTH 7 0
BBX 7 10 0 0
BITMAP
FE
FE
FE
FE
FE
FE
FE
FE
FE
FE
ENDCHAR
STARTCHAR arrowup.ss01
ENCODING -1
SWIDTH 345 0
DWIDTH 5 0
BBX 4 4 0 3
BITMAP
20
20
70
F0
ENDCHAR
STARTCHAR arrowright.ss01
ENCODING -1
SWIDTH 363 0
DWIDTH 5 0
BBX 4 4 1 3
BITMAP
80
C0
F0
80
ENDCHAR
STARTCHAR arrowdown.ss01
ENCODING -1
SWIDTH 345 0
DWIDTH 5 0
BBX 4 4 0 2
BITMAP
F0
60
20
20
ENDCHAR
STARTCHAR arrowleft.ss01
ENCODING -1
SWIDTH 363 0
DWIDTH 5 0
BBX 4 4 0 3
BITMAP
10
30
F0
10
ENDCHAR
STARTCHAR uni03060301
ENCODING -1
SWIDTH 0 0
DWIDTH 0 0
BBX 4 5 0 8
BITMAP
30
60
00
90
F0
ENDCHAR
STARTCHAR uni03060300
ENCODING -1
SWIDTH 0 0
DWIDTH 0 0
BBX 4 5 0 8
BITMAP
C0
60
00
90
70
ENDCHAR
STARTCHAR uni03060309
ENCODING -1
SWIDTH 0 0
DWIDTH 0 0
BBX 4 5 0 8
BITMAP
F0
30
40
90
F0
ENDCHAR
STARTCHAR uni03060303
ENCODING -1
SWIDTH 0 0
DWIDTH 0 0
BBX 5 5 0 8
BITMAP
08
F8
00
D8
70
ENDCHAR
STARTCHAR uni03020301
ENCODING -1
SWIDTH 0 0
DWIDTH 0 0
BBX 5 5 0 8
BITMAP
30
60
00
70
D8
ENDCHAR
STARTCHAR uni03020300
ENCODING -1
SWIDTH 0 0
DWIDTH 0 0
BBX 5 5 0 8
BITMAP
C0
60
00
70
D8
ENDCHAR
STARTCHAR uni03020309
ENCODING -1
SWIDTH 0 0
DWIDTH 0 0
BBX 5 5 0 8
BITMAP
F0
30
40
70
D8
ENDCHAR
STARTCHAR uni03020303
ENCODING -1
SWIDTH 0 0
DWIDTH 0 0
BBX 5 5 0 8
BITMAP
48
F8
00
70
D8
ENDCHAR
STARTCHAR uni030C.alt
ENCODING -1
SWIDTH 0 0
DWIDTH 0 0
BBX 2 4 0 6
BITMAP
40
40
40
C0
ENDCHAR
STARTCHAR uni0308.case
ENCODING -1
SWIDTH 0 0
DWIDTH 0 0
BBX 4 2 0 8
BITMAP
D0
D0
ENDCHAR
STARTCHAR uni0307.case
ENCODING -1
SWIDTH 0 0
DWIDTH 0 0
BBX 2 2 0 8
BITMAP
C0
C0
ENDCHAR
STARTCHAR gravecomb.case
ENCODING -1
SWIDTH 0 0
DWIDTH 0 0
BBX 3 2 0 8
BITMAP
C0
20
ENDCHAR
STARTCHAR acutecomb.case
ENCODING -1
SWIDTH 0 0
DWIDTH 0 0
BBX 3 2 0 8
BITMAP
60
C0
ENDCHAR
STARTCHAR uni030B.case
ENCODING -1
SWIDTH 0 0
DWIDTH 0 0
BBX 5 2 0 8
BITMAP
68
90
ENDCHAR
STARTCHAR uni0302.case
ENCODING -1
SWIDTH 0 0
DWIDTH 0 0
BBX 5 2 0 8
BITMAP
70
D8
ENDCHAR
STARTCHAR uni03020300.case
ENCODING -1
SWIDTH 0 0
DWIDTH 0 0
BBX 5 5 0 8
BITMAP
C0
60
00
70
D8
ENDCHAR
STARTCHAR uni03020301.case
ENCODING -1
SWIDTH 0 0
DWIDTH 0 0
BBX 5 5 0 8
BITMAP
30
20
40
70
D8
ENDCHAR
STARTCHAR uni03020303.case
ENCODING -1
SWIDTH 0 0
DWIDTH 0 0
BBX 5 5 0 8
BITMAP
88
F8
00
70
D8
ENDCHAR
STARTCHAR uni03020309.case
ENCODING -1
SWIDTH 0 0
DWIDTH 0 0
BBX 5 5 0 8
BITMAP
F0
30
40
70
D8
ENDCHAR
STARTCHAR uni030C.case
ENCODING -1
SWIDTH 0 0
DWIDTH 0 0
BBX 5 2 0 8
BITMAP
D8
60
ENDCHAR
STARTCHAR uni0306.case
ENCODING -1
SWIDTH 0 0
DWIDTH 0 0
BBX 4 2 0 8
BITMAP
90
F0
ENDCHAR
STARTCHAR uni03060300.case
ENCODING -1
SWIDTH 0 0
DWIDTH 0 0
BBX 4 5 0 8
BITMAP
C0
40
20
90
F0
ENDCHAR
STARTCHAR uni03060301.case
ENCODING -1
SWIDTH 0 0
DWIDTH 0 0
BBX 4 5 0 8
BITMAP
30
20
40
90
F0
ENDCHAR
STARTCHAR uni03060303.case
ENCODING -1
SWIDTH 0 0
DWIDTH 0 0
BBX 5 5 0 8
BITMAP
08
F8
00
90
F0
ENDCHAR
STARTCHAR uni03060309.case
ENCODING -1
SWIDTH 0 0
DWIDTH 0 0
BBX 4 5 0 8
BITMAP
F0
30
40
90
F0
ENDCHAR
STARTCHAR uni030A.case
ENCODING -1
SWIDTH 0 0
DWIDTH 0 0
BBX 4 3 0 8
BITMAP
F0
90
F0
ENDCHAR
STARTCHAR tildecomb.case
ENCODING -1
SWIDTH 0 0
DWIDTH 0 0
BBX 5 2 0 8
BITMAP
F8
98
ENDCHAR
STARTCHAR uni0304.case
ENCODING -1
SWIDTH 0 0
DWIDTH 0 0
BBX 4 2 0 8
BITMAP
F0
F0
ENDCHAR
STARTCHAR hookabovecomb.case
ENCODING -1
SWIDTH 0 0
DWIDTH 0 0
BBX 4 3 0 8
BITMAP
E0
30
60
ENDCHAR
STARTCHAR uni030F.case
ENCODING -1
SWIDTH 0 0
DWIDTH 0 0
BBX 5 2 0 8
BITMAP
D8
68
ENDCHAR
STARTCHAR uni0311.case
ENCODING -1
SWIDTH 0 0
DWIDTH 0 0
BBX 4 2 0 8
BITMAP
F0
90
ENDCHAR
STARTCHAR uni0312.case
ENCODING -1
SWIDTH 0 0
DWIDTH 0 0
BBX 2 3 0 8
BITMAP
C0
C0
C0
ENDCHAR
STARTCHAR uni031B.case
ENCODING -1
SWIDTH 0 0
DWIDTH 0 0
BBX 3 2 0 6
BITMAP
20
C0
ENDCHAR
STARTCHAR dotbelowcomb.case
ENCODING -1
SWIDTH 0 0
DWIDTH 0 0
BBX 1 2 0 -3
BITMAP
80
80
ENDCHAR
STARTCHAR uni0324.case
ENCODING -1
SWIDTH 0 0
DWIDTH 0 0
BBX 4 2 0 -3
BITMAP
D0
D0
ENDCHAR
STARTCHAR uni0326.case
ENCODING -1
SWIDTH 0 0
DWIDTH 0 0
BBX 2 3 0 -4
BITMAP
C0
C0
C0
ENDCHAR
STARTCHAR uni0327.case
ENCODING -1
SWIDTH 0 0
DWIDTH 0 0
BBX 2 3 0 -3
BITMAP
40
C0
C0
ENDCHAR
STARTCHAR uni0328.case
ENCODING -1
SWIDTH 0 0
DWIDTH 0 0
BBX 2 3 0 -3
BITMAP
C0
C0
C0
ENDCHAR
STARTCHAR uni032E.case
ENCODING -1
SWIDTH 0 0
DWIDTH 0 0
BBX 4 2 0 -3
BITMAP
90
F0
ENDCHAR
STARTCHAR uni0331.case
ENCODING -1
SWIDTH 0 0
DWIDTH 0 0
BBX 4 1 0 -3
BITMAP
F0
ENDCHAR
STARTCHAR acute.loclPLK
ENCODING -1
SWIDTH 179 0
DWIDTH 3 0
BBX 3 2 0 8
BITMAP
E0
C0
ENDCHAR
STARTCHAR acute.case.loclPLK
ENCODING -1
SWIDTH 179 0
DWIDTH 3 0
BBX 3 2 0 10
BITMAP
E0
80
ENDCHAR
STARTCHAR dialog
ENCODING -1
SWIDTH 805 0
DWIDTH 11 0
BBX 9 13 1 -3
BITMAP
FF80
8080
8080
8080
8080
8080
8080
8080
8080
E380
0400
0800
1000
ENDCHAR
STARTCHAR leftOpenDialog
ENCODING -1
SWIDTH 625 0
DWIDTH 9 0
BBX 9 10 0 0
BITMAP
FF80
8000
8000
8000
8000
8000
8000
8000
8000
FF80
ENDCHAR
STARTCHAR rightCloseDialog
ENCODING -1
SWIDTH 627 0
DWIDTH 9 0
BBX 9 13 0 -3
BITMAP
FF80
0080
0080
0080
0080
0080
0080
0080
0080
E780
0800
1000
2000
ENDCHAR
STARTCHAR rightOpenDialog
ENCODING -1
SWIDTH 626 0
DWIDTH 9 0
BBX 9 10 0 0
BITMAP
FF80
0080
0080
0080
0080
0080
0080
0080
0080
FF80
ENDCHAR
STARTCHAR orn.001
ENCODING -1
SWIDTH 337 0
DWIDTH 5 0
BBX 3 3 1 3
BITMAP
E0
E0
E0
ENDCHAR
STARTCHAR orn.002
ENCODING -1
SWIDTH 549 0
DWIDTH 8 0
BBX 6 8 1 1
BITMAP
40
A0
A0
DC
D4
A8
A0
40
ENDCHAR
STARTCHAR orn.003
ENCODING -1
SWIDTH 415 0
DWIDTH 6 0
BBX 4 8 1 1
BITMAP
40
A0
A0
D0
D0
B0
A0
40
ENDCHAR
STARTCHAR orn.007
ENCODING -1
SWIDTH 337 0
DWIDTH 5 0
BBX 3 3 1 3
BITMAP
E0
E0
C0
ENDCHAR
STARTCHAR orn.010
ENCODING -1
SWIDTH 794 0
DWIDTH 11 0
BBX 9 10 1 0
BITMAP
1C00
7F00
FF80
FF80
FF80
FF80
FF80
FF80
7F80
3F80
ENDCHAR
STARTCHAR orn.015
ENCODING -1
SWIDTH 565 0
DWIDTH 8 0
BBX 8 13 0 -3
BITMAP
FF
00
00
00
00
00
00
00
00
E7
08
10
20
ENDCHAR
STARTCHAR orn.016
ENCODING -1
SWIDTH 565 0
DWIDTH 8 0
BBX 8 10 0 0
BITMAP
FF
00
00
00
00
00
00
00
00
FF
ENDCHAR
STARTCHAR orn.017
ENCODING -1
SWIDTH 60 0
DWIDTH 1 0
BBX 1 10 0 0
BITMAP
80
80
80
80
80
80
80
80
80
80
ENDCHAR
STARTCHAR orn.018
ENCODING -1
SWIDTH 792 0
DWIDTH 11 0
BBX 9 8 1 1
BITMAP
4100
A280
A280
D580
D580
B580
A280
4100
ENDCHAR
STARTCHAR orn.019
ENCODING -1
SWIDTH 549 0
DWIDTH 8 0
BBX 6 8 1 1
BITMAP
10
28
14
F4
B4
D4
28
18
ENDCHAR
STARTCHAR orn.020
ENCODING -1
SWIDTH 415 0
DWIDTH 6 0
BBX 4 8 1 1
BITMAP
60
A0
50
D0
B0
D0
50
60
ENDCHAR
STARTCHAR orn.021
ENCODING -1
SWIDTH 753 0
DWIDTH 11 0
BBX 9 12 1 -2
BITMAP
1C00
7F00
FF00
FF80
FF80
FF80
FF80
FF00
7F00
3E00
1C00
0800
ENDCHAR
STARTCHAR orn.022
ENCODING -1
SWIDTH 389 0
DWIDTH 5 0
BBX 4 4 1 3
BITMAP
40
F0
F0
E0
ENDCHAR
STARTCHAR Oslash.BRACKET.86
ENCODING -1
SWIDTH 707 0
DWIDTH 10 0
BBX 8 11 1 -1
BITMAP
3F
FF
C3
C3
C3
C3
C3
C3
FF
7E
C0
ENDCHAR
STARTCHAR Oslashacute.BRACKET.86
ENCODING -1
SWIDTH 707 0
DWIDTH 10 0
BBX 8 14 1 -1
BITMAP
0C
18
00
3F
FF
C3
C3
C3
C3
C3
C3
FF
7E
C0
ENDCHAR
STARTCHAR Q.BRACKET.64
ENCODING -1
SWIDTH 707 0
DWIDTH 10 0
BBX 8 12 1 -2
BITMAP
3C
FF
C3
C3
C3
C3
C3
C3
FF
7E
07
03
ENDCHAR
STARTCHAR uni20B5.BRACKET.86
ENCODING -1
SWIDTH 571 0
DWIDTH 8 0
BBX 6 12 1 -1
BITMAP
18
3C
FC
C0
C0
C0
C0
C0
C0
FC
7C
18
ENDCHAR
STARTCHAR cent.BRACKET.86
ENCODING -1
SWIDTH 468 0
DWIDTH 7 0
BBX 5 10 1 0
BITMAP
30
38
F8
C0
C0
C0
C0
E8
78
30
ENDCHAR
STARTCHAR colonmonetary.BRACKET.86
ENCODING -1
SWIDTH 571 0
DWIDTH 8 0
BBX 7 12 1 -1
BITMAP
0A
3E
FE
CE
DC
D4
D4
D4
D4
FC
7C
28
ENDCHAR
STARTCHAR dollar.BRACKET.64
ENCODING -1
SWIDTH 538 0
DWIDTH 8 0
BBX 6 10 1 0
BITMAP
20
78
F8
C0
F0
FC
0C
DC
F8
20
ENDCHAR
STARTCHAR uni20B2.BRACKET.64
ENCODING -1
SWIDTH 616 0
DWIDTH 9 0
BBX 7 10 1 0
BITMAP
10
38
FC
C0
DE
DE
C6
FE
7C
10
ENDCHAR
STARTCHAR oslash.BRACKET.86
ENCODING -1
SWIDTH 574 0
DWIDTH 8 0
BBX 6 9 1 -1
BITMAP
04
FC
CC
CC
CC
CC
CC
FC
80
ENDCHAR
STARTCHAR oslashacute.BRACKET.86
ENCODING -1
SWIDTH 574 0
DWIDTH 8 0
BBX 6 11 1 -1
BITMAP
18
20
04
FC
CC
CC
CC
CC
CC
FC
80
ENDCHAR
STARTCHAR uni20B1.BRACKET.86
ENCODING -1
SWIDTH 647 0
DWIDTH 9 0
BBX 10 10 0 0
BITMAP
7E00
7F00
E3C0
6100
E3C0
7F00
7E00
6000
6000
6000
ENDCHAR
STARTCHAR yen.BRACKET.48
ENCODING -1
SWIDTH 628 0
DWIDTH 9 0
BBX 8 10 0 0
BITMAP
C3
63
66
36
77
1C
7F
18
18
18
ENDCHAR
ENDFONT
